ams-euler.sfdir
StartChar: uni0021
Encoding: 33 33 49
Width: 295
Flags: MW
HStem: -12 117 184 21<132 132> 670 20<146 156.5>
VStem: 101 88
LayerCount: 2
Back
Fore
SplineSet
90 46 m 0
 90 77 116 103 148 103 c 0
 179 103 204 77 204 46 c 0
 204 15 179 -11 148 -11 c 0
 116 -11 90 15 90 46 c 0
132 184 m 1
 105 567 l 2
 103 586 102 608 102 625 c 0
 102 637 103 649 106 661 c 0
 108 668 111 676 118 681 c 0
 128 688 140 690 152 690 c 0
 161 690 170 688 176 682 c 0
 187 672 189 658 189 644 c 0
 189 615 187 586 184 557 c 2
 148 186 l 1
 132 184 l 1
EndSplineSet
AlternateSubs2: "'ssty' Script Style lookup 0-1" uni0021.ssty1 uni0021.ssty2
EndChar

StartChar: uni0022
Encoding: 34 34 129
Width: 214
Flags: MW
HStem: 432 21<34 34 34 55 155 176 155 155> 675 20
VStem: 9 67<645 662> 128 68<665.5 670.5>
LayerCount: 2
Fore
SplineSet
34 432 m 1
 14 584 l 2
 11 608 9 633 9 657 c 0
 9 667 9 679 18 686 c 0
 25 692 34 695 43 695 c 0
 51 695 59 695 65 690 c 0
 70 686 76 682 76 675 c 2
 76 623 l 1
 55 432 l 1
 34 432 l 1
155 432 m 1
 133 625 l 2
 131 639 128 663 128 668 c 0
 128 673 130 679 135 683 c 0
 143 691 155 692 167 692 c 0
 175 692 184 691 190 684 c 0
 193 681 196 677 196 673 c 0
 196 657 196 641 195 626 c 2
 176 432 l 1
 155 432 l 1
EndSplineSet
AlternateSubs2: "'ssty' Script Style lookup 0-1" uni0022.ssty1 uni0022.ssty2
EndChar
StartChar: numbersign
Encoding: 35 35 1759
Width: 500
Flags: W
HStem: -1.15463e-14 21G<81.0245 125.31 286.024 330.31> 228 40<4 116.006 163.359 321.006 368.359 469> 434 40<31 147.611 194.965 352.611 399.965 493>
VStem: 81.0245 41.2168<-1.15463e-14 41.2168> 186.888 41.2168<648.783 690> 286.024 41.2168<-1.15463e-14 41.2168> 391.888 41.2168<648.783 690>
DStem2: 81.0245 -1.15463e-14 122.241 -1.15463e-14 0.151651 0.988434<6.25058 230.668 277.387 439.078 485.797 698.074> 286.024 -1.15463e-14 327.241 -1.15463e-14 0.151651 0.988434<6.25058 230.668 277.387 439.078 485.797 698.074>
LayerCount: 2
Back
Fore
SplineSet
469 268 m 1
 469 228 l 1
 362.222 228 l 1
 327.241 -1.15463e-14 l 1
 286.024 -1.15463e-14 l 1
 321.006 228 l 1
 157.222 228 l 1
 122.241 -1.15463e-14 l 1
 81.0245 -1.15463e-14 l 1
 116.006 228 l 1
 4 228 l 1
 4 268 l 1
 122.143 268 l 1
 147.611 434 l 1
 31 434 l 1
 31 474 l 1
 153.748 474 l 1
 186.888 690 l 1
 228.105 690 l 1
 194.965 474 l 1
 358.748 474 l 1
 391.888 690 l 1
 433.105 690 l 1
 399.965 474 l 1
 493 474 l 1
 493 434 l 1
 393.828 434 l 1
 368.359 268 l 1
 469 268 l 1
327.143 268 m 1
 352.611 434 l 1
 188.828 434 l 1
 163.359 268 l 1
 327.143 268 l 1
EndSplineSet
Colour: ff0000
EndChar

StartChar: dollar
Encoding: 36 36 1867
Width: 557
Flags: W
HStem: -16 42<207.612 281> 609 33<240.004 281>
VStem: 119 74<437.853 556.627> 281 41<-99 -11 39 268 381 607 644 700> 399 81<109.858 219.586>
LayerCount: 2
Fore
SplineSet
477 555 m 1
 419 504 l 1
 407 507 l 1
 401 533 392 560 373 579 c 0
 358 593 341 603 322 607 c 1
 322 361 l 1
 334 356 l 2
 368 341 415 314 432 297 c 1
 460 270 480 228 480 190 c 0
 480 142 458 98 424 64 c 0
 395 35 360 13 322 -0 c 1
 322 -99 l 1
 282 -107 l 1
 281 -11 l 1
 264 -14 247 -16 229 -16 c 0
 186 -16 148 -5 118 26 c 0
 103 41 91 59 84 78 c 1
 136 139 l 1
 152 138 l 1
 160 110 171 81 191 61 c 0
 213 39 237 26 267 26 c 0
 272 26 276 26 281 27 c 1
 282 290 l 1
 241 308 189 332 166 355 c 0
 136 385 119 427 119 469 c 0
 119 512 133 556 163 587 c 1
 196 619 238 636 282 642 c 1
 282 700 l 1
 322 708 l 1
 322 644 l 1
 367 643 412 635 444 603 c 0
 458 589 468 572 477 555 c 1
322 268 m 1
 322 39 l 1
 338 46 352 56 364 68 c 0
 388 92 399 128 399 162 c 0
 399 184 384 214 367 233 c 0
 356 245 339 257 322 268 c 1
281 381 m 1
 281 609 l 1
 257 605 236 593 220 576 c 0
 201 557 193 529 193 501 c 0
 193 468 210 439 233 416 c 0
 246 403 263 391 281 381 c 1
EndSplineSet
Colour: ff0000
EndChar
StartChar: percent
Encoding: 37 37 1869
Width: 840
Flags: W
HStem: -20 21G<218 260.042> 0 45<607.49 691.049> 344 45<157.434 242.505>
VStem: 58 53<439.321 569.639> 290 51<448.298 573.284> 507 53<96.3212 226.331> 738 51<104.298 230.927>
DStem2: 216 4 250 -20 0.448721 0.893672<0 787.099>
LayerCount: 2
Back
Fore
SplineSet
656 344 m 1x7e
 687 335 716 318 738 295 c 1
 768 266 789 228 789 186 c 0
 789 135 764 88 729 53 c 0
 700 24 665 0 624 0 c 0
 595 0 568 12 548 32 c 0
 519 61 507 103 507 144 c 0
 507 194 530 240 565 275 c 0
 592 302 622 326 656 344 c 1x7e
612 293 m 1
 596 283 588 273 582 263 c 0
 566 240 560 208 560 179 c 0
 560 140 571 101 599 74 c 0
 615 58 639 45 661 45 c 0
 681 45 691 46 705 56 c 0
 731 74 738 123 738 153 c 0
 738 190 725 227 698 254 c 0
 679 273 640 291 612 293 c 1
208 688 m 1
 239 679 268 662 290 639 c 1
 320 610 341 572 341 530 c 0
 341 479 316 432 281 397 c 0
 252 368 216 344 175 344 c 0
 146 344 119 355 99 375 c 0
 70 404 58 446 58 487 c 0
 58 537 81 584 116 619 c 0
 143 646 174 670 208 688 c 1
163 637 m 1
 147 627 139 616 133 606 c 0
 117 583 111 551 111 522 c 0
 111 483 122 444 150 417 c 0
 166 401 191 389 213 389 c 0
 233 389 242 390 256 400 c 0
 282 418 290 467 290 497 c 0
 290 534 276 571 249 598 c 0
 230 617 191 635 163 637 c 1
603 702 m 1
 607 691 l 1
 250 -20 l 1xbe
 218 -10 l 1
 216 4 l 1
 570 707 l 1
 581 708 l 1
 603 702 l 1
EndSplineSet
Colour: ff0000
EndChar
StartChar: uni0026
Encoding: 38 38 50
Width: 737
Flags: MW
HStem: -8 40 352 46 652 46
VStem: 49 78<191 218.5> 181 61<537.5 545> 374 72<584 592.5> 511 52 711 23
LayerCount: 2
Back
Fore
SplineSet
346 356 m 1
 348 399 l 1
 404 396 481 396 548 396 c 0
 600 396 674 396 704 399 c 1
 701 351 l 1
 660 358 603 358 554 358 c 1
 559 337 563 316 563 295 c 0
 563 228 530 168 489 115 c 1
 492 112 l 2
 508 95 526 80 547 68 c 0
 562 60 579 53 597 53 c 0
 621 53 644 62 661 79 c 0
 690 108 703 146 713 189 c 1
 734 184 l 1
 724 126 705 68 663 26 c 0
 637 0 602 -11 566 -11 c 0
 516 -11 471 14 436 48 c 1
 431 52 l 1
 391 20 336 -8 278 -8 c 0
 217 -8 155 4 111 47 c 1
 72 87 49 140 49 195 c 0
 49 242 62 284 96 318 c 0
 120 342 166 372 207 397 c 1
 191 436 181 478 181 520 c 0
 181 570 198 619 234 655 c 0
 263 684 303 698 344 698 c 0
 373 698 401 687 421 666 c 1
 437 651 446 629 446 606 c 0
 446 562 432 525 399 495 c 0
 369 467 295 424 278 416 c 1
 302 363 336 302 370 253 c 0
 399 211 438 168 474 131 c 1
 500 169 512 218 512 266 c 0
 512 296 497 324 476 345 c 0
 460 361 437 361 415 361 c 0
 392 361 369 359 346 356 c 1
416 68 m 1
 379 109 341 160 311 206 c 0
 276 258 240 319 216 376 c 1
 193 361 173 339 165 331 c 0
 139 301 127 259 127 218 c 0
 127 164 148 113 186 75 c 0
 214 47 253 31 293 31 c 0
 346 31 384 42 416 68 c 1
270 435 m 1
 297 452 326 472 340 486 c 0
 365 511 374 547 374 582 c 0
 374 603 364 624 349 639 c 0
 339 649 320 663 307 663 c 0
 284 663 276 660 262 646 c 0
 244 628 242 584 242 559 c 0
 242 516 253 475 270 435 c 1
EndSplineSet
AlternateSubs2: "'ssty' Script Style lookup 0-1" uni0026.ssty1 uni0026.ssty2
EndChar

StartChar: uni0027
Encoding: 39 39 51
Width: 212
Flags: MW
HStem: 436 21<88 88 88 104> 675 20<99 108>
VStem: 68 66<659.5 666.5 656.5 670>
LayerCount: 2
Fore
SplineSet
88 436 m 1
 70 629 l 2
 69 641 68 653 68 666 c 0
 68 674 71 681 77 686 c 0
 84 692 94 695 104 695 c 0
 112 695 120 694 126 688 c 0
 132 681 134 671 134 662 c 0
 134 651 132 635 130 622 c 2
 104 436 l 1
 88 436 l 1
EndSplineSet
AlternateSubs2: "'ssty' Script Style lookup 0-1" uni0027.ssty1 uni0027.ssty2
EndChar
StartChar: uni0028
Encoding: 40 40 52
Width: 388
Flags: MW
IsExtendedShape: 1
GlyphVariantsVertical: uni0028 uni0028.alt01 uni0028.alt02 uni0028.alt03 uni0028.alt04
GlyphCompositionVertical: 3  uni239D%0,603,603,1809 uni239C%1,207,207,620 uni239B%0,603,603,1809
HStem: -186 21 718 20<301 301>
VStem: 113 52<239.5 310 231 318.5>
LayerCount: 2
Back
Fore
SplineSet
301 -163 m 1
 301 -187 l 1
 253 -183 211 -145 183 -108 c 1
 152 -65 140 -13 131 38 c 0
 117 118 113 199 113 280 c 0
 113 357 118 435 133 510 c 0
 144 564 160 618 191 664 c 1
 216 699 260 731 301 738 c 1
 301 711 l 1
 269 703 236 673 220 639 c 0
 198 592 187 541 179 489 c 0
 168 418 165 346 165 274 c 0
 165 188 168 102 182 18 c 1
 188 -11 194 -40 204 -68 c 0
 211 -88 220 -107 234 -123 c 0
 251 -143 281 -159 301 -163 c 1
EndSplineSet
AlternateSubs2: "'ssty' Script Style lookup 0-1" uni0028.ssty1 uni0028.ssty2
EndChar
StartChar: uni0029
Encoding: 41 41 53
Width: 388
Flags: MW
IsExtendedShape: 1
GlyphVariantsVertical: uni0029 uni0029.alt01 uni0029.alt02 uni0029.alt03 uni0029.alt04
GlyphCompositionVertical: 3  uni23A0%0,603,603,1809 uni239F%1,207,207,620 uni239E%0,603,603,1809
HStem: -187 21 715 20
VStem: 224 52<232 314.5 230 315.5>
LayerCount: 2
Back
Fore
SplineSet
86 709 m 1
 86 736 l 1
 120 729 152 708 176 682 c 0
 216 638 236 581 251 524 c 1
 271 441 276 357 276 272 c 0
 276 188 272 103 256 20 c 0
 245 -33 230 -86 195 -128 c 0
 168 -161 117 -185 86 -189 c 1
 86 -165 l 1
 113 -158 145 -143 165 -118 c 0
 177 -103 184 -85 190 -67 c 0
 199 -40 206 -15 210 12 c 0
 223 99 224 188 224 276 c 0
 224 355 219 434 205 511 c 1
 194 564 181 617 150 662 c 0
 134 684 111 700 86 709 c 1
EndSplineSet
AlternateSubs2: "'ssty' Script Style lookup 0-1" uni0029.ssty1 uni0029.ssty2
EndChar
StartChar: uni002B
Encoding: 43 43 55
Width: 755
Flags: MW
HStem: 236 40<53 356 53 356 46 356 396 704>
VStem: 356 40<-67 236 -67 236 -67 236 276 580 580 580>
LayerCount: 2
Back
Fore
SplineSet
396 276 m 1
 709 276 l 1
 704 236 l 1
 396 236 l 1
 396 -67 l 1
 356 -74 l 1
 356 236 l 1
 46 236 l 1
 53 276 l 1
 356 276 l 1
 356 580 l 1
 396 586 l 1
 396 276 l 1
EndSplineSet
AlternateSubs2: "'ssty' Script Style lookup 0-1" uni002B.ssty1 uni002B.ssty2
EndChar

StartChar: uni002C
Encoding: 44 44 56
Width: 277
Flags: MW
HStem: -192 21 87 20
VStem: 157 57<-67.5 -18.5>
LayerCount: 2
Fore
SplineSet
110 -210 m 1
 91 -196 l 1
 111 -170 139 -128 149 -103 c 0
 154 -91 157 -74 157 -61 c 0
 157 -46 153 -31 144 -19 c 2
 74 64 l 2
 70 69 67 80 67 90 c 0
 67 103 80 118 90 126 c 0
 98 132 116 138 126 138 c 0
 134 138 152 130 160 120 c 0
 175 100 197 47 206 24 c 0
 212 8 214 -10 214 -27 c 0
 214 -52 204 -74 192 -96 c 0
 174 -128 153 -160 110 -210 c 1
EndSplineSet
AlternateSubs2: "'ssty' Script Style lookup 0-1" uni002C.ssty1 uni002C.ssty2
EndChar
StartChar: hyphen
Encoding: 45 45 1866
Width: 544
Flags: W
HStem: 236 40<47 498>
LayerCount: 2
Back
Fore
SplineSet
498 236 m 1
 40 236 l 1
 47 276 l 1
 504 276 l 1
 498 236 l 1
EndSplineSet
Colour: ff0000
EndChar
StartChar: uni002E
Encoding: 46 46 58
Width: 277
Flags: MW
HStem: -21 129
VStem: 81 126
LayerCount: 2
Back
Fore
SplineSet
77 52 m 0
 77 89 107 119 144 119 c 0
 181 119 211 89 211 52 c 0
 211 15 181 -15 144 -15 c 0
 107 -15 77 15 77 52 c 0
EndSplineSet
AlternateSubs2: "'ssty' Script Style lookup 0-1" uni002E.ssty1 uni002E.ssty2
EndChar

StartChar: uni002F
Encoding: 47 47 59
Width: 501
Flags: MW
GlyphVariantsVertical: uni002F uni002F.alt01 uni002F.alt02 uni002F.alt03 uni002F.alt04
HStem: -182 21 702 20
VStem: 34 432
LayerCount: 2
Fore
SplineSet
458 715 m 1
 463 704 l 1
 74 -192 l 1
 42 -184 l 1
 39 -170 l 1
 425 718 l 1
 436 720 l 1
 458 715 l 1
EndSplineSet
AlternateSubs2: "'ssty' Script Style lookup 0-1" uni002F.ssty1 uni002F.ssty2
EndChar
StartChar: uni0030
Encoding: 48 48 346
Width: 499
Flags: MW
HStem: -14 64 639 61
VStem: 36 65 398 60
LayerCount: 2
Back
Fore
SplineSet
290 704 m 1
 340 672 376 632 405 582 c 0
 445 513 460 434 460 356 c 0
 460 295 452 234 432 177 c 0
 416 129 390 83 354 46 c 1
 315 8 262 -14 207 -14 c 0
 174 -14 142 -1 118 22 c 0
 87 53 66 94 55 136 c 0
 39 192 34 245 34 303 c 0
 34 423 79 544 164 629 c 0
 197 662 246 686 290 704 c 1
234 640 m 1
 215 628 197 614 181 595 c 0
 129 532 101 452 101 371 c 0
 101 313 106 254 122 199 c 0
 135 156 153 115 184 84 c 0
 203 65 232 52 252 52 c 0
 283 52 316 61 337 83 c 0
 360 106 373 135 383 166 c 0
 395 204 398 245 398 285 c 0
 398 375 374 461 330 539 c 0
 324 551 279 621 234 640 c 1
EndSplineSet
Substitution2: "'onum' Oldstyle Figures lookup 1-1" uni0030.onum
AlternateSubs2: "'ssty' Script Style lookup 0-1" uni0030.ssty1 uni0030.ssty2
EndChar
StartChar: uni0031
Encoding: 49 49 347
Width: 499
Flags: MW
HStem: -5 21<226 226> 612 29 692 20<308 308>
VStem: 222 86
LayerCount: 2
Back
Fore
SplineSet
308 712 m 1
 314 700 l 1
 309 611 307 521 307 432 c 0
 307 296 307 98 310 22 c 1
 226 -5 l 1
 214 0 l 1
 219 139 222 279 222 419 c 0
 222 468 222 541 221 566 c 0
 220 591 200 612 175 612 c 2
 92 612 l 1
 92 639 l 1
 308 712 l 1
EndSplineSet
AlternateSubs2: "'salt' Stylistic Alternatives lookup 5-1" uni0031.alt
Substitution2: "'onum' Oldstyle Figures lookup 1-1" uni0031.onum
AlternateSubs2: "'ssty' Script Style lookup 0-1" uni0031.ssty1 uni0031.ssty2
EndChar

StartChar: uni0032
Encoding: 50 50 348
Width: 499
Flags: MW
HStem: 2 86<158 449> 648 60
VStem: 334 92<475.5 573.5>
LayerCount: 2
Fore
SplineSet
472 80 m 1
 449 2 l 1
 12 2 l 1
 12 18 l 1
 69 76 125 135 178 197 c 0
 213 238 248 280 276 326 c 0
 311 382 334 443 334 508 c 0
 334 537 328 578 300 607 c 0
 280 629 250 640 221 640 c 0
 199 640 177 636 158 626 c 0
 130 611 108 596 84 576 c 1
 64 595 l 1
 94 628 128 658 168 679 c 0
 201 697 237 708 275 708 c 0
 316 708 355 693 384 664 c 0
 414 635 426 594 426 553 c 0
 426 500 404 451 378 405 c 0
 353 359 322 317 290 275 c 0
 245 215 197 157 147 99 c 0
 146 98 145 95 146 93 c 0
 148 89 153 88 158 88 c 2
 467 88 l 1
 472 80 l 1
EndSplineSet
Substitution2: "'onum' Oldstyle Figures lookup 1-1" uni0032.onum
AlternateSubs2: "'ssty' Script Style lookup 0-1" uni0032.ssty1 uni0032.ssty2
EndChar

StartChar: uni0033
Encoding: 51 51 349
Width: 499
Flags: MW
HStem: -17 43 345 31 639 63<199.5 272.5>
VStem: 352 94<185.5 207.5>
LayerCount: 2
Fore
SplineSet
241 382 m 1
 241 374 l 1
 275 371 308 366 341 355 c 0
 364 347 388 336 406 318 c 0
 433 291 446 254 446 215 c 0
 446 156 419 101 377 59 c 0
 325 8 254 -17 181 -17 c 0
 124 -17 70 3 25 38 c 1
 18 49 l 1
 60 121 l 1
 70 121 l 1
 82 101 95 83 111 67 c 0
 136 41 170 23 206 23 c 0
 243 23 279 36 306 63 c 0
 338 95 352 141 352 186 c 0
 352 229 332 269 303 300 c 0
 285 319 260 328 235 334 c 0
 199 343 162 345 125 345 c 1
 126 371 l 1
 156 378 187 386 215 399 c 0
 237 409 258 421 274 437 c 0
 302 465 317 502 317 540 c 0
 317 567 307 592 288 611 c 0
 267 632 238 639 208 639 c 0
 191 639 174 633 157 626 c 0
 132 615 109 601 86 586 c 1
 72 608 l 1
 103 634 137 659 173 678 c 0
 198 691 225 702 253 702 c 0
 292 702 333 694 361 665 c 1
 387 640 399 604 399 568 c 0
 399 523 384 478 352 446 c 0
 321 416 282 394 241 382 c 1
EndSplineSet
Substitution2: "'onum' Oldstyle Figures lookup 1-1" uni0033.onum
AlternateSubs2: "'ssty' Script Style lookup 0-1" uni0033.ssty1 uni0033.ssty2
EndChar
StartChar: uni0034
Encoding: 52 52 350
Width: 499
Flags: MW
HStem: -5 21<290 290> 191 44<69 283 -1 -1 375 457 375 375> 684 20<361 361>
VStem: 292 74
LayerCount: 2
Back
Fore
SplineSet
361 704 m 1
 368 698 l 1
 367 671 367 399 367 244 c 1
 374 235 l 1
 468 235 l 1
 473 228 l 1
 457 191 l 1
 375 191 l 1
 367 183 l 1
 367 129 367 50 370 28 c 1
 290 -5 l 1
 285 1 l 1
 290 36 290 119 290 182 c 1
 283 191 l 1
 -1 191 l 1
 -1 235 l 1
 285 669 l 1
 361 704 l 1
290 243 m 1
 290 585 l 2
 290 587 289 590 289 591 c 0
 287 594 282 593 280 591 c 0
 246 552 216 506 187 461 c 0
 149 402 65 264 64 242 c 1
 69 235 l 1
 284 235 l 1
 290 243 l 1
EndSplineSet
Substitution2: "'onum' Oldstyle Figures lookup 1-1" uni0034.onum
AlternateSubs2: "'ssty' Script Style lookup 0-1" uni0034.ssty1 uni0034.ssty2
EndChar
StartChar: uni0035
Encoding: 53 53 351
Width: 499
Flags: MW
HStem: -11 40 395 48<191 282.5> 604 83<134 161>
VStem: 83 42<406 413 413 594> 352 96<217.5 248>
LayerCount: 2
Back
Fore
SplineSet
125 594 m 2
 125 413 l 1
 125 406 l 1
 166 426 211 443 257 443 c 0
 308 443 359 429 395 393 c 0
 433 356 448 303 448 251 c 0
 448 184 425 118 378 71 c 0
 325 18 253 -11 178 -11 c 0
 115 -11 54 15 13 64 c 1
 12 76 l 1
 56 132 l 1
 67 132 l 1
 79 106 92 80 113 59 c 0
 132 40 158 26 186 26 c 0
 227 26 268 39 298 69 c 0
 337 108 352 167 352 223 c 0
 352 273 341 325 305 361 c 0
 281 385 247 395 213 395 c 0
 169 395 128 373 96 342 c 1
 83 353 l 1
 83 680 l 1
 90 687 l 1
 425 687 l 1
 398 609 l 1
 311 607 185 604 137 604 c 0
 131 604 125 600 125 594 c 2
EndSplineSet
Substitution2: "'onum' Oldstyle Figures lookup 1-1" uni0035.onum
AlternateSubs2: "'ssty' Script Style lookup 0-1" uni0035.ssty1 uni0035.ssty2
EndChar
StartChar: uni0036
Encoding: 54 54 352
Width: 499
Flags: MW
HStem: -13 45<250.5 267> 314 63<235.5 340> 641 59<353.5 423.5>
VStem: 45 88 392 79<181 192>
LayerCount: 2
Back
Fore
SplineSet
471 688 m 1
 451 634 l 1
 442 630 l 1
 422 638 404 641 384 641 c 0
 323 641 269 614 228 576 c 0
 149 503 130 402 129 306 c 1
 136 305 l 1
 189 348 252 377 321 377 c 0
 359 377 397 361 424 334 c 0
 456 301 471 256 471 211 c 0
 471 151 441 98 399 56 c 0
 356 13 298 -13 236 -13 c 0
 191 -13 147 2 115 34 c 0
 62 87 45 164 45 238 c 0
 45 363 90 487 179 576 c 1
 214 613 254 645 299 668 c 0
 335 687 375 700 416 700 c 0
 431 700 456 694 471 688 c 1
132 265 m 1
 132 224 136 179 148 139 c 0
 157 110 174 81 195 60 c 0
 213 43 238 32 263 32 c 0
 295 32 328 40 351 63 c 0
 380 91 392 131 392 172 c 0
 392 212 375 251 346 279 c 1
 323 303 289 314 256 314 c 0
 215 314 154 286 132 265 c 1
EndSplineSet
Substitution2: "'onum' Oldstyle Figures lookup 1-1" uni0036.onum
AlternateSubs2: "'ssty' Script Style lookup 0-1" uni0036.ssty1 uni0036.ssty2
EndChar

StartChar: uni0038
Encoding: 56 56 354
Width: 499
Flags: MW
HStem: -10 46 655 51
VStem: 40 83<156.5 178> 374 87<173 188.5>
LayerCount: 2
Fore
SplineSet
238 334 m 1
 211 320 181 301 159 279 c 0
 133 252 123 214 123 177 c 0
 123 136 136 95 165 65 c 1
 186 45 216 32 245 32 c 0
 278 32 313 40 337 64 c 0
 363 90 374 131 374 168 c 0
 374 209 353 245 324 274 c 1
 309 287 260 320 238 334 c 1
312 385 m 1
 349 360 398 324 415 307 c 0
 444 278 461 239 461 197 c 0
 461 149 444 102 410 67 c 0
 360 17 291 -10 219 -10 c 0
 171 -10 117 0 82 35 c 0
 50 67 40 112 40 157 c 0
 40 199 52 242 83 272 c 0
 108 297 158 327 201 352 c 1
 201 363 l 1
 169 385 142 409 119 441 c 1
 102 468 89 498 89 530 c 0
 89 570 103 611 134 638 c 0
 169 669 211 689 254 706 c 1
 284 707 311 703 339 694 c 0
 360 687 383 675 399 659 c 0
 423 635 435 602 435 568 c 0
 435 534 420 502 400 475 c 0
 376 443 346 417 312 396 c 1
 312 385 l 1
279 412 m 1
 321 441 351 490 351 543 c 0
 351 564 342 594 322 618 c 0
 299 644 266 659 223 659 c 1
 208 649 190 634 182 623 c 0
 170 606 166 582 166 562 c 0
 166 536 178 512 194 491 c 1
 215 461 249 433 279 412 c 1
EndSplineSet
Substitution2: "'onum' Oldstyle Figures lookup 1-1" uni0038.onum
AlternateSubs2: "'ssty' Script Style lookup 0-1" uni0038.ssty1 uni0038.ssty2
EndChar
StartChar: uni0039
Encoding: 57 57 355
Width: 499
Flags: MW
HStem: -9 21<129 129> 298 57 648 54
VStem: 42 87 382 80<464.5 551>
LayerCount: 2
Back
Fore
SplineSet
214 11 m 1
 129 -9 l 1
 119 -1 l 1
 139 45 187 109 232 167 c 1
 232 167 317 281 349 336 c 1
 344 342 l 1
 314 326 283 314 253 306 c 0
 235 301 213 299 194 299 c 0
 166 299 119 317 92 344 c 0
 63 373 40 419 40 465 c 0
 40 517 50 562 79 598 c 0
 108 634 196 680 246 702 c 1
 296 702 326 697 345 691 c 0
 370 683 394 670 413 651 c 0
 445 619 462 574 462 528 c 0
 462 490 449 453 434 417 c 0
 411 365 382 317 350 270 c 0
 316 220 283 169 255 115 c 0
 237 82 220 48 214 11 c 1
351 384 m 0
 376 409 382 447 382 482 c 0
 382 529 363 574 330 607 c 0
 305 632 261 644 219 644 c 0
 212 644 209 644 202 643 c 1
 156 616 129 573 129 515 c 0
 129 467 144 419 178 386 c 0
 199 365 230 352 259 352 c 0
 292 352 327 360 351 384 c 0
EndSplineSet
Substitution2: "'onum' Oldstyle Figures lookup 1-1" uni0039.onum
AlternateSubs2: "'ssty' Script Style lookup 0-1" uni0039.ssty1 uni0039.ssty2
EndChar
StartChar: uni003B
Encoding: 59 59 71
Width: 216
Flags: MW
HStem: -190 289<89 112> 343 116
VStem: 46 134
LayerCount: 2
Back
Fore
SplineSet
48 400 m 0
 48 431 74 457 106 457 c 0
 137 457 162 431 162 400 c 0
 162 369 137 343 106 343 c 0
 74 343 48 369 48 400 c 0
89 -190 m 1
 74 -177 l 1
 91 -154 103 -129 114 -103 c 0
 120 -90 121 -77 121 -64 c 0
 121 -50 116 -37 108 -26 c 2
 74 25 l 2
 69 33 65 42 65 51 c 0
 65 63 66 78 74 86 c 2
 76 88 l 1
 85 95 96 99 108 99 c 0
 116 99 124 95 129 88 c 1
 146 70 160 50 169 28 c 0
 175 12 179 -5 179 -22 c 0
 179 -49 169 -74 156 -97 c 0
 137 -130 113 -160 89 -190 c 1
EndSplineSet
AlternateSubs2: "'ssty' Script Style lookup 0-1" uni003B.ssty1 uni003B.ssty2
EndChar
StartChar: uni003C
Encoding: 60 60 249
Width: 756
Flags: MW
HStem: -39 21 514 20
VStem: 46 636
LayerCount: 2
Back
Fore
SplineSet
680 505 m 5
 678 496 l 5
 156 255 l 5
 156 243 l 5
 675 2 l 5
 680 -8 l 5
 669 -31 l 5
 659 -36 l 5
 59 244 l 5
 59 256 l 5
 660 531 l 5
 671 528 l 5
 680 505 l 5
EndSplineSet
AlternateSubs2: "'ssty' Script Style lookup 0-1" uni003C.ssty1 uni003C.ssty2
EndChar
StartChar: uni003D
Encoding: 61 61 72
Width: 756
Flags: MW
HStem: 236 40
LayerCount: 2
Back
Fore
SplineSet
716 329 m 5
 54 329 l 5
 61 369 l 5
 722 369 l 5
 716 329 l 5
716 132 m 5
 54 132 l 5
 61 172 l 5
 722 172 l 5
 716 132 l 5
EndSplineSet
AlternateSubs2: "'ssty' Script Style lookup 0-1" uni003D.ssty1 uni003D.ssty2
EndChar
StartChar: uni003E
Encoding: 62 62 250
Width: 756
Flags: MW
HStem: -39 21 514 20
VStem: 77 637
LayerCount: 2
Back
Fore
SplineSet
78 494 m 5
 76 504 l 5
 86 528 l 5
 96 531 l 5
 698 256 l 5
 698 244 l 5
 98 -36 l 5
 88 -31 l 5
 80 -7 l 5
 84 2 l 5
 602 245 l 5
 602 254 l 5
 78 494 l 5
EndSplineSet
AlternateSubs2: "'ssty' Script Style lookup 0-1" uni003E.ssty1 uni003E.ssty2
EndChar

StartChar: uni003F
Encoding: 63 63 73
Width: 362
Flags: MW
HStem: -11 114<146.5 178> 184 21 653 40
VStem: 190 109 369 71
LayerCount: 2
Fore
SplineSet
106 46 m 0
 106 77 131 103 162 103 c 0
 194 103 220 77 220 46 c 0
 220 15 194 -11 162 -11 c 0
 131 -11 106 15 106 46 c 0
186 211 m 1
 140 179 l 1
 117 193 98 220 98 250 c 0
 98 271 112 288 124 305 c 1
 146 333 172 357 199 381 c 0
 248 423 287 479 287 545 c 0
 287 575 274 606 253 627 c 0
 236 644 213 661 189 661 c 0
 165 661 144 653 127 636 c 0
 117 625 108 605 108 589 c 0
 108 565 121 543 140 528 c 1
 73 488 l 1
 55 504 45 531 45 557 c 0
 45 586 59 612 79 632 c 0
 119 672 173 693 229 693 c 0
 262 693 297 685 321 661 c 0
 346 636 358 601 358 565 c 0
 358 532 345 505 328 476 c 0
 310 446 255 397 225 370 c 0
 189 338 159 299 159 274 c 0
 159 254 170 234 186 222 c 1
 186 211 l 1
EndSplineSet
AlternateSubs2: "'ssty' Script Style lookup 0-1" uni003F.ssty1 uni003F.ssty2
EndChar
StartChar: at
Encoding: 64 64 1868
Width: 744
Flags: W
HStem: -31 51<272.578 505.949> 140 52<299.689 393.181> 490 28<333.154 424.774> 636 52<284.57 510.472>
VStem: 26 53<211.682 432.986> 197 71<225.285 415.246> 452 60<213.32 463.386> 674 44<296.292 483.606>
LayerCount: 2
Back
Fore
SplineSet
389 20 m 0
 510 20 597 81 652 153 c 1
 663 151 l 1
 691 133 l 1
 691 121 l 1
 628 37 524 -31 387 -31 c 0
 187 -31 26 121 26 321 c 0
 26 412 62 503 125 569 c 0
 195 643 295 687 397 688 c 0
 398 688 399 688 400 688 c 0
 568 688 718 570 718 401 c 0
 718 350 703 298 674 256 c 0
 638 203 568 144 499 140 c 0
 488 140 475 143 467 152 c 0
 458 162 456 174 454 187 c 1
 442 190 l 1
 420 176 399 163 375 154 c 0
 355 146 335 140 313 140 c 0
 284 140 254 150 234 173 c 0
 204 209 197 256 197 302 c 0
 197 364 213 428 258 472 c 0
 292 504 338 518 385 518 c 0
 410 518 444 508 469 490 c 1
 511 515 l 1
 515 511 l 1
 510 422 510 331 512 242 c 0
 512 222 518 184 543 189 c 0
 577 197 627 244 650 288 c 0
 666 319 674 354 674 389 c 0
 674 536 546 636 400 636 c 0
 399 636 398 636 397 636 c 0
 312 635 228 599 168 538 c 0
 112 481 79 402 79 322 c 0
 79 150 215 20 389 20 c 0
368 192 m 0
 403 192 430 212 452 228 c 1
 452 410 l 2
 452 431 452 451 439 464 c 0
 425 479 406 490 386 490 c 0
 358 490 332 480 311 460 c 0
 292 443 270 399 268 319 c 0
 268 286 272 253 290 225 c 0
 307 199 339 192 368 192 c 0
EndSplineSet
Colour: ff0000
EndChar

StartChar: uni0041
Encoding: 65 65 357
Width: 770
Flags: MW
HStem: -10 62 269 43 651 29
VStem: 25 718<8 26>
LayerCount: 2
Fore
SplineSet
536 76 m 2
 482 264 l 2
 480 268 474 273 471 273 c 2
 246 273 l 2
 242 273 238 269 236 265 c 2
 119 17 l 1
 28 -2 l 1
 25 8 l 1
 144 208 259 412 364 620 c 0
 365 623 365 624 365 627 c 0
 365 630 362 636 353 638 c 2
 263 653 l 1
 263 680 l 1
 457 680 l 1
 472 597 517 437 550 317 c 0
 572 236 599 139 635 79 c 0
 644 64 659 55 676 51 c 0
 683 50 691 49 699 49 c 0
 713 49 728 51 742 52 c 1
 743 26 l 1
 639 -4 l 2
 624 -8 609 -10 594 -10 c 0
 583 -10 574 -5 567 3 c 1
 553 16 543 50 536 76 c 2
382 572 m 2
 266 328 l 2
 265 326 265 320 265 319 c 0
 265 316 269 312 272 312 c 2
 460 312 l 2
 465 312 467 316 467 319 c 2
 467 319 465 327 465 328 c 2
 395 572 l 2
 394 574 391 576 388 576 c 0
 385 576 382 573 382 572 c 2
EndSplineSet
AlternateSubs2: "'ssty' Script Style lookup 0-1" uni0041.ssty1 uni0041.ssty2
EndChar

StartChar: uni0042
Encoding: 66 66 358
Width: 655
Flags: MW
HStem: -1 40<309 317 274 347> 346 35<268 294.5 261.5 295> 648 38<278 301.5>
VStem: 132 83<47 66> 483 91<186 222.5 176 224.5>
LayerCount: 2
Fore
SplineSet
215 324 m 1
 215 66 l 2
 215 53 220 49 226 45 c 0
 232 41 258 39 290 39 c 0
 344 39 400 51 439 89 c 1
 470 121 483 164 483 208 c 0
 483 241 475 276 450 301 c 0
 432 319 408 328 383 335 c 0
 349 344 313 346 277 346 c 0
 259 346 230 346 225 345 c 0
 221 345 217 342 215 338 c 1
 215 324 l 1
215 411 m 1
 215 391 l 1
 216 387 220 384 223 383 c 0
 231 380 254 381 269 381 c 0
 320 381 370 396 406 431 c 0
 436 461 449 503 449 545 c 0
 449 574 435 600 415 620 c 0
 403 632 385 637 368 641 c 0
 342 647 315 648 288 648 c 0
 268 648 248 646 228 643 c 0
 221 642 217 636 215 629 c 1
 215 411 l 1
381 378 m 1
 380 370 l 1
 411 366 447 358 477 349 c 0
 497 343 519 330 534 315 c 0
 565 284 574 244 574 201 c 0
 574 151 556 103 521 68 c 0
 466 12 385 -1 309 -1 c 1
 243 0 112 1 111 1 c 2
 110 11 l 1
 116 20 128 36 128 37 c 0
 130 40 131 43 132 47 c 0
 132 48 133 70 133 81 c 2
 133 611 l 2
 133 628 118 638 116 639 c 0
 99 647 75 655 50 662 c 1
 51 679 l 1
 58 686 l 1
 305 686 l 2
 346 686 386 684 426 674 c 0
 453 667 480 658 500 638 c 0
 522 615 534 585 534 553 c 0
 534 512 520 472 491 443 c 0
 461 412 421 395 381 378 c 1
EndSplineSet
AlternateSubs2: "'ssty' Script Style lookup 0-1" uni0042.ssty1 uni0042.ssty2
EndChar

StartChar: uni0043
Encoding: 67 67 359
Width: 714
Flags: MW
TopAccentHorizontal: 413
HStem: -15 53<395 444.5> 655 44
VStem: 87 89<298 368.5 298 374>
LayerCount: 2
Fore
SplineSet
615 528 m 1
 601 529 l 1
 589 561 572 590 549 613 c 0
 516 646 468 658 422 658 c 0
 361 658 299 637 255 593 c 0
 227 564 209 528 197 490 c 0
 182 443 176 393 176 344 c 0
 176 252 224 154 257 121 c 0
 312 66 354 38 436 38 c 0
 504 38 567 67 623 105 c 1
 640 76 l 1
 568 27 488 -15 401 -15 c 0
 322 -15 240 2 183 59 c 0
 113 129 87 228 87 326 c 0
 87 422 108 521 178 590 c 0
 251 663 352 699 456 699 c 0
 521 699 587 683 633 636 c 0
 648 621 661 604 672 586 c 1
 615 528 l 1
EndSplineSet
AlternateSubs2: "'ssty' Script Style lookup 0-1" uni0043.ssty1 uni0043.ssty2
EndChar
StartChar: uni0044
Encoding: 68 68 360
Width: 828
Flags: MW
HStem: 2 38<295.5 333.5 295.5 337> 643 43
VStem: 129 83 644 94<330 407.5>
LayerCount: 2
Back
Fore
SplineSet
212 575 m 2
 212 170 l 1
 213 130 215 68 230 53 c 0
 243 40 282 40 309 40 c 0
 358 40 407 45 454 60 c 0
 491 72 527 89 555 117 c 0
 623 185 644 283 644 377 c 0
 644 438 627 535 571 591 c 0
 549 613 523 626 481 635 c 0
 448 642 339 645 292 645 c 0
 249 645 232 644 226 641 c 0
 220 638 218 635 215 629 c 0
 213 626 212 606 212 575 c 2
106 2 m 1
 106 12 l 1
 126 27 127 41 128 79 c 1
 128 573 l 2
 128 589 127 605 126 620 c 0
 125 630 118 637 109 641 c 0
 90 648 70 653 51 659 c 1
 51 678 l 1
 58 686 l 1
 371 686 l 2
 433 686 495 681 555 666 c 0
 598 655 640 639 671 608 c 0
 696 583 711 551 721 517 c 0
 734 475 738 430 738 385 c 0
 738 258 716 174 639 91 c 0
 608 57 558 37 514 24 c 0
 457 7 397 2 337 2 c 2
 106 2 l 1
EndSplineSet
AlternateSubs2: "'ssty' Script Style lookup 0-1" uni0044.ssty1 uni0044.ssty2
EndChar

StartChar: uni0045
Encoding: 69 69 361
Width: 604
Flags: MW
HStem: 0 59 336 56 631 59
VStem: 134 75
LayerCount: 2
Fore
SplineSet
456 336 m 1
 417 339 377 342 338 342 c 0
 300 342 237 340 219 339 c 0
 212 338 209 334 209 327 c 2
 209 188 l 2
 209 150 210 101 224 76 c 0
 230 64 242 56 254 50 c 0
 266 45 292 44 320 44 c 0
 367 44 390 44 554 58 c 1
 559 53 l 1
 546 0 l 1
 158 0 l 1
 149 5 143 15 138 25 c 0
 133 37 132 52 132 66 c 2
 132 558 l 2
 132 572 132 602 123 622 c 0
 121 628 113 633 106 638 c 0
 98 644 68 651 47 654 c 1
 46 674 l 1
 53 681 l 1
 201 682 l 2
 271 682 372 688 443 688 c 0
 461 688 476 688 489 687 c 1
 487 637 l 1
 483 630 l 1
 414 634 281 640 274 640 c 2
 234 640 l 1
 229 639 224 636 221 631 c 0
 213 619 210 587 210 564 c 2
 210 398 l 2
 210 391 213 387 220 386 c 0
 259 383 379 385 456 391 c 1
 462 384 l 1
 456 336 l 1
EndSplineSet
AlternateSubs2: "'ssty' Script Style lookup 0-1" uni0045.ssty1 uni0045.ssty2
EndChar
StartChar: uni0046
Encoding: 70 70 362
Width: 499
Flags: MW
HStem: -2 21<118 118> 336 54<446 452> 631 58
VStem: 123 84
LayerCount: 2
Back
Fore
SplineSet
125 360 m 1
 127 521 l 2
 127 551 126 581 123 611 c 0
 122 628 111 643 94 647 c 2
 39 660 l 1
 39 681 l 1
 46 688 l 1
 188 688 394 688 467 690 c 1
 467 637 l 1
 459 629 l 1
 387 634 315 649 243 649 c 0
 230 649 216 643 211 626 c 0
 207 612 204 602 204 391 c 0
 204 386 208 378 217 378 c 0
 290 378 380 387 452 390 c 1
 451 341 l 1
 446 336 l 1
 376 340 288 341 217 341 c 0
 212 341 205 337 205 330 c 0
 205 229 206 114 210 13 c 1
 118 -2 l 1
 122 119 125 239 125 360 c 1
EndSplineSet
AlternateSubs2: "'ssty' Script Style lookup 0-1" uni0046.ssty1 uni0046.ssty2
EndChar

StartChar: uni0047
Encoding: 71 71 363
Width: 765
Flags: MW
TopAccentHorizontal: 410
HStem: -17 52<419 424.5> 261 46 654 45
VStem: 90 90<296 365.5 296 373> 572 85
LayerCount: 2
Fore
SplineSet
376 296 m 1
 652 307 l 1
 654 216 657 34 657 33 c 0
 569 10 461 -17 388 -17 c 0
 312 -17 237 9 183 63 c 0
 115 131 90 229 90 324 c 0
 90 422 112 523 182 593 c 0
 257 668 362 699 467 699 c 0
 531 699 595 679 640 634 c 0
 651 623 665 603 676 586 c 1
 618 529 l 1
 606 530 l 1
 593 556 578 581 558 601 c 0
 522 637 473 650 422 650 c 0
 363 650 304 636 261 594 c 0
 232 565 214 528 201 489 c 0
 186 441 180 391 180 340 c 0
 180 252 204 180 262 112 c 0
 306 60 380 35 458 35 c 0
 490 35 521 38 552 45 c 0
 562 47 569 56 570 66 c 0
 572 97 573 128 572 159 c 0
 572 182 571 206 569 228 c 0
 568 242 558 255 544 256 c 0
 500 261 436 263 382 265 c 1
 376 270 l 1
 376 296 l 1
EndSplineSet
AlternateSubs2: "'ssty' Script Style lookup 0-1" uni0047.ssty1 uni0047.ssty2
EndChar
StartChar: uni0048
Encoding: 72 72 364
Width: 783
Flags: MW
HStem: 346 39<225 228 228 571> 665 20G<59 221 221 221>
VStem: 132 81<394.5 408.5> 578 88<21 79>
LayerCount: 2
Back
Fore
SplineSet
744 14 m 1
 738 8 l 1
 589 0 l 1
 578 21 l 1
 580 118 583 237 583 334 c 0
 583 339 580 346 571 346 c 2
 228 346 l 2
 221 346 215 341 215 334 c 0
 215 267 214 171 215 104 c 0
 215 78 217 52 220 26 c 1
 128 -2 l 1
 122 3 l 1
 132 116 132 245 132 367 c 0
 132 450 131 533 126 616 c 0
 125 625 123 636 113 640 c 0
 109 641 73 652 53 659 c 1
 52 678 l 1
 59 685 l 1
 221 685 l 1
 226 680 l 1
 222 658 220 634 219 611 c 0
 217 546 213 462 213 397 c 0
 213 392 215 385 225 385 c 2
 571 385 l 2
 582 385 583 391 583 397 c 0
 583 483 580 587 580 673 c 1
 668 690 l 1
 673 684 l 1
 670 645 666 604 665 565 c 0
 661 403 660 241 666 79 c 0
 666 62 679 49 695 45 c 0
 713 40 742 32 743 32 c 2
 744 14 l 1
EndSplineSet
AlternateSubs2: "'ssty' Script Style lookup 0-1" uni0048.ssty1 uni0048.ssty2
EndChar
StartChar: uni0049
Encoding: 73 73 365
Width: 394
Flags: MW
HStem: -1 26<81 346 81 81> 651 32
VStem: 170 78
LayerCount: 2
Back
Fore
SplineSet
346 -1 m 1
 81 -1 l 1
 81 25 l 1
 101 29 124 34 142 39 c 1
 155 44 166 56 168 70 c 0
 169 81 169 113 170 134 c 1
 170 497 l 2
 170 536 170 574 167 612 c 0
 166 625 158 638 145 641 c 0
 144 641 100 650 78 655 c 1
 78 677 l 1
 85 683 l 1
 335 683 l 1
 341 677 l 1
 341 656 l 1
 274 641 l 2
 261 638 253 627 252 615 c 0
 249 595 249 537 249 499 c 0
 249 375 248 271 251 169 c 0
 251 136 252 103 255 70 c 0
 256 54 269 44 283 40 c 0
 305 35 347 23 348 23 c 2
 346 -1 l 1
EndSplineSet
AlternateSubs2: "'ssty' Script Style lookup 0-1" uni0049.ssty1 uni0049.ssty2
EndChar
StartChar: uni004A
Encoding: 74 74 366
Width: 402
Flags: MW
HStem: -167 21 660 30<94 349>
VStem: 175 85<96 608>
LayerCount: 2
Back
Fore
SplineSet
260 608 m 2
 260 91 l 2
 260 50 259 8 247 -31 c 0
 233 -76 210 -119 176 -152 c 0
 149 -177 99 -216 64 -234 c 1
 50 -216 l 1
 72 -202 98 -179 114 -162 c 0
 135 -138 146 -107 157 -69 c 0
 167 -35 175 36 175 96 c 2
 175 608 l 2
 175 619 171 642 159 645 c 2
 87 663 l 1
 87 684 l 1
 94 690 l 1
 344 690 l 1
 351 684 l 1
 349 660 l 1
 281 646 l 2
 269 643 260 626 260 608 c 2
EndSplineSet
AlternateSubs2: "'ssty' Script Style lookup 0-1" uni004A.ssty1 uni004A.ssty2
EndChar
StartChar: uni004B
Encoding: 75 75 367
Width: 668
Flags: MW
HStem: -7 21<546 546> 655 28
VStem: 131 82
LayerCount: 2
Back
Fore
SplineSet
221 319 m 1
 212 318 l 1
 212 220 212 122 218 25 c 1
 137 -4 l 1
 126 1 l 1
 129 148 l 1
 129 595 l 2
 129 605 128 616 124 626 c 0
 121 632 117 639 110 641 c 0
 90 647 50 659 49 659 c 2
 51 676 l 1
 59 683 l 1
 217 683 l 1
 224 676 l 1
 220 664 216 627 216 626 c 0
 214 599 209 471 209 358 c 1
 217 357 l 1
 504 683 l 1
 594 683 l 1
 593 674 l 1
 302 380 l 2
 299 377 294 372 294 369 c 0
 294 366 295 364 299 360 c 0
 406 253 571 89 632 35 c 1
 631 24 l 1
 546 -7 l 1
 441 105 329 210 221 319 c 1
EndSplineSet
AlternateSubs2: "'ssty' Script Style lookup 0-1" uni004B.ssty1 uni004B.ssty2
EndChar
StartChar: uni004C
Encoding: 76 76 368
Width: 559
Flags: MW
HStem: 2 41 663 27<58 301>
VStem: 128 84
LayerCount: 2
Back
Fore
SplineSet
534 48 m 1
 520 -5 l 1
 446 2 245 2 107 2 c 1
 107 16 l 1
 114 26 119 38 122 47 c 0
 126 57 129 129 129 143 c 2
 129 621 l 2
 129 635 123 651 108 654 c 0
 88 658 51 666 50 666 c 2
 51 683 l 1
 58 690 l 1
 295 690 l 1
 301 684 l 1
 301 663 l 1
 300 663 257 654 236 649 c 0
 224 647 219 635 218 624 c 0
 208 447 213 241 219 56 c 0
 220 50 227 43 232 43 c 0
 336 43 518 57 524 58 c 1
 534 48 l 1
EndSplineSet
AlternateSubs2: "'ssty' Script Style lookup 0-1" uni004C.ssty1 uni004C.ssty2
EndChar
StartChar: uni004D
Encoding: 77 77 369
Width: 1044
Flags: MW
HStem: -5 51 658 32
VStem: 817 79
LayerCount: 2
Back
Fore
SplineSet
800 690 m 1
 903 690 l 1
 903 678 l 1
 897 675 888 668 884 659 c 0
 878 644 878 608 878 583 c 0
 878 419 880 266 896 102 c 0
 898 85 906 68 920 57 c 0
 930 50 942 46 954 46 c 0
 967 46 992 50 1010 52 c 1
 1010 28 l 1
 966 12 914 -6 874 -6 c 0
 860 -6 846 -4 833 0 c 0
 820 4 811 21 811 29 c 2
 811 211 l 2
 811 236 803 482 801 548 c 0
 801 556 798 563 793 563 c 0
 790 563 785 560 782 555 c 2
 496 1 l 1
 466 1 l 1
 391 181 297 410 234 538 c 0
 231 543 227 548 223 548 c 0
 219 548 216 544 215 537 c 0
 192 367 175 195 161 23 c 1
 86 -3 l 1
 79 0 l 1
 117 196 152 393 179 591 c 0
 181 603 181 617 173 627 c 0
 168 634 161 639 152 642 c 2
 84 661 l 1
 86 683 l 1
 93 690 l 1
 269 690 l 1
 324 529 418 329 501 152 c 0
 503 148 508 138 512 138 c 0
 516 138 522 143 524 147 c 2
 800 690 l 1
EndSplineSet
AlternateSubs2: "'ssty' Script Style lookup 0-1" uni004D.ssty1 uni004D.ssty2
EndChar
StartChar: uni004E
Encoding: 78 78 370
Width: 829
Flags: MW
HStem: 64 19 660 32
VStem: 146 50 696 53
LayerCount: 2
Back
Fore
SplineSet
704 694 m 1
 710 686 l 1
 697 459 695 227 695 0 c 1
 659 0 l 1
 636 26 622 42 592 80 c 2
 433 278 l 2
 331 404 249 499 199 555 c 0
 196 559 191 565 187 564 c 0
 181 562 181 553 181 547 c 0
 181 418 194 199 205 25 c 1
 135 -5 l 1
 126 4 l 1
 136 205 142 407 138 608 c 0
 138 616 138 624 132 630 c 0
 128 635 123 640 117 641 c 0
 116 641 74 651 53 656 c 1
 49 683 l 1
 57 690 l 1
 219 690 l 1
 352 514 514 299 631 173 c 0
 634 170 638 165 642 165 c 0
 647 165 648 171 648 173 c 0
 648 275 645 374 624 678 c 1
 704 694 l 1
EndSplineSet
AlternateSubs2: "'ssty' Script Style lookup 0-1" uni004E.ssty1 uni004E.ssty2
EndChar

StartChar: uni004F
Encoding: 79 79 371
Width: 803
Flags: MW
TopAccentHorizontal: 429
HStem: -18 41<384.5 429.5> 660 40<387.5 428.5>
VStem: 72 93<301 373 301 382.5> 632 94<331.5 384>
LayerCount: 2
Fore
SplineSet
72 318 m 0
 72 447 99 532 173 612 c 0
 237 680 341 700 434 700 c 0
 510 700 587 678 642 624 c 1
 671 594 690 556 703 516 c 0
 719 468 726 416 726 364 c 0
 726 299 725 233 685 152 c 1
 638 54 508 -18 351 -18 c 0
 285 -18 211 2 164 50 c 1
 93 120 72 218 72 318 c 0
165 348 m 0
 165 254 182 168 244 100 c 0
 304 33 365 23 404 23 c 0
 462 23 510 43 550 82 c 1
 579 112 597 150 611 190 c 0
 626 236 632 286 632 336 c 0
 632 432 608 538 539 606 c 1
 501 646 455 660 402 660 c 0
 345 660 282 636 244 596 c 0
 216 567 199 532 187 494 c 0
 172 448 165 398 165 348 c 0
EndSplineSet
AlternateSubs2: "'ssty' Script Style lookup 0-1" uni004F.ssty1 uni004F.ssty2
EndChar

StartChar: uni0050
Encoding: 80 80 372
Width: 576
Flags: MW
ItalicCorrection: 27
HStem: -6 21<134 134> 287 42<222 222> 642 37
VStem: 134 82 454 96<485 524>
LayerCount: 2
Fore
SplineSet
281 640 m 2
 225 640 l 2
 218 640 216 634 216 629 c 0
 212 541 210 428 210 341 c 0
 210 332 217 329 221 329 c 0
 256 329 297 333 330 344 c 0
 357 352 382 364 401 383 c 0
 434 416 454 460 454 506 c 0
 454 542 442 578 416 604 c 0
 402 618 383 626 364 631 c 0
 337 638 309 640 281 640 c 2
217 22 m 1
 134 -6 l 1
 127 1 l 1
 129 141 134 282 134 423 c 0
 134 482 133 541 129 600 c 0
 128 618 120 636 102 643 c 0
 87 649 71 652 55 654 c 1
 55 672 l 1
 62 679 l 1
 319 679 l 2
 355 679 392 677 427 669 c 0
 451 664 476 657 495 641 c 0
 533 610 550 562 550 514 c 0
 550 456 528 399 486 358 c 1
 466 337 440 324 412 314 c 0
 377 302 341 296 304 293 c 0
 279 291 247 289 222 287 c 0
 214 286 210 281 210 274 c 0
 210 249 216 123 217 22 c 1
EndSplineSet
AlternateSubs2: "'ssty' Script Style lookup 0-1" uni0050.ssty1 uni0050.ssty2
EndChar

StartChar: uni0051
Encoding: 81 81 373
Width: 828
Flags: MW
HStem: -198 43 -16 44 653 45
VStem: 85 88 648 91
LayerCount: 2
Fore
SplineSet
767 -174 m 1
 774 -194 l 1
 735 -210 670 -235 619 -235 c 0
 570 -235 516 -207 482 -174 c 0
 445 -137 393 -60 366 -16 c 1
 297 -16 220 2 171 57 c 0
 114 121 85 213 86 305 c 0
 87 440 114 534 187 609 c 0
 255 679 350 698 445 698 c 0
 522 698 600 680 658 622 c 0
 721 559 741 449 741 366 c 0
 741 269 736 251 722 210 c 0
 708 166 696 133 654 87 c 0
 609 38 539 8 476 -7 c 1
 472 -17 l 1
 488 -47 514 -96 534 -122 c 0
 549 -143 592 -189 680 -189 c 0
 696 -189 744 -180 767 -174 c 1
410 22 m 0
 484 22 522 43 561 80 c 0
 626 143 646 248 646 338 c 0
 646 390 641 435 625 485 c 0
 611 526 589 571 557 602 c 1
 519 641 475 660 421 660 c 0
 364 660 295 637 256 594 c 0
 227 562 212 528 199 489 c 1
 184 439 179 386 179 334 c 0
 179 245 202 156 264 92 c 0
 302 52 357 22 410 22 c 0
EndSplineSet
AlternateSubs2: "'ssty' Script Style lookup 0-1" uni0051.ssty1 uni0051.ssty2
EndChar

StartChar: uni0052
Encoding: 82 82 374
Width: 609
Flags: MW
HStem: -6 21<136 136> 312 43<214 228.5> 640 39<227 231 231 271>
VStem: 132 84 438 98<515 538>
LayerCount: 2
Fore
SplineSet
213 370 m 0
 213 364 215 355 222 355 c 0
 235 355 248 355 260 356 c 0
 306 360 354 371 387 405 c 0
 418 436 438 478 438 523 c 0
 438 553 426 583 405 604 c 0
 391 618 372 626 353 631 c 0
 326 638 298 640 271 640 c 2
 231 640 l 2
 223 640 220 633 219 614 c 0
 217 550 213 375 213 370 c 0
321 331 m 1
 319 323 l 1
 582 27 l 1
 582 18 l 1
 483 -8 l 1
 390 111 263 274 234 303 c 0
 229 308 220 312 214 312 c 1
 214 216 214 119 219 23 c 1
 136 -6 l 1
 125 3 l 1
 133 148 134 294 134 439 c 0
 134 454 132 554 131 611 c 0
 131 625 121 637 108 641 c 0
 90 646 55 656 54 656 c 2
 55 673 l 1
 61 679 l 1
 333 679 l 2
 367 679 401 676 433 667 c 0
 457 660 480 651 497 633 c 0
 522 608 536 574 536 539 c 0
 536 491 532 477 517 443 c 0
 485 373 404 340 321 331 c 1
EndSplineSet
AlternateSubs2: "'ssty' Script Style lookup 0-1" uni0052.ssty1 uni0052.ssty2
EndChar
StartChar: uni0053
Encoding: 83 83 375
Width: 557
Flags: MW
TopAccentHorizontal: 306
HStem: -15 52 662 40
VStem: 91 80<529 535.5> 395 85
LayerCount: 2
Back
Fore
SplineSet
480 606 m 1
 417 550 l 1
 404 553 l 1
 397 581 388 611 367 632 c 0
 344 654 313 665 282 665 c 0
 251 665 221 650 200 628 c 0
 179 607 171 577 171 547 c 0
 171 511 190 479 215 454 c 0
 242 427 285 406 324 389 c 0
 361 373 413 344 431 325 c 1
 461 296 483 250 483 209 c 0
 483 157 459 109 422 72 c 0
 366 16 289 -15 210 -15 c 0
 163 -15 115 -3 82 31 c 0
 66 47 53 66 45 87 c 1
 102 153 l 1
 119 152 l 1
 128 122 139 91 161 69 c 0
 185 45 219 31 252 31 c 0
 290 31 329 49 357 76 c 0
 383 102 395 141 395 178 c 0
 395 202 379 234 360 255 c 0
 339 277 302 302 274 314 c 0
 228 334 168 362 142 388 c 0
 109 421 91 466 91 512 c 0
 91 559 105 606 138 640 c 1
 182 683 242 702 303 702 c 0
 354 702 407 695 444 658 c 0
 459 643 470 625 480 606 c 1
EndSplineSet
AlternateSubs2: "'ssty' Script Style lookup 0-1" uni0053.ssty1 uni0053.ssty2
EndChar
StartChar: uni0054
Encoding: 84 84 376
Width: 492
Flags: W
ItalicCorrection: 111
HStem: 634 61 644 42<216.5 365.5>
VStem: 257 89<633 638> 259 83<377.5 421>
LayerCount: 2
Back
Fore
SplineSet
575 689 m 1xa0
 573 641 l 1
 565 634 l 1xa0
 397 642 376 644 355 644 c 0
 349 644 346 639 346 633 c 0x60
 345 619 342 518 342 438 c 0
 342 317 348 138 355 17 c 1
 255 -10 l 1
 246 -1 l 1
 254 126 259 253 259 380 c 0x50
 259 462 258 606 257 636 c 0
 257 640 253 642 248 642 c 0
 224 642 145 639 34 635 c 1
 26 642 l 1
 26 690 l 1
 33 697 l 1
 128 694 128 686 305 686 c 0x60
 380 686 479 692 567 696 c 1
 575 689 l 1xa0
EndSplineSet
AlternateSubs2: "'ssty' Script Style lookup 0-1" uni0054.ssty1 uni0054.ssty2
EndChar

StartChar: uni0055
Encoding: 85 85 377
Width: 774
Flags: MW
HStem: -7 54 578 24
VStem: 145 83 561 77
LayerCount: 2
Fore
SplineSet
210 542 m 2
 202 269 l 1
 202 234 206 199 216 165 c 0
 224 139 234 113 254 94 c 0
 286 62 332 52 378 52 c 0
 440 52 500 79 554 111 c 1
 554 294 556 477 558 659 c 1
 646 694 l 1
 652 687 l 1
 637 573 636 364 636 202 c 0
 636 152 639 76 654 59 c 0
 661 50 674 48 684 48 c 0
 704 48 722 54 742 56 c 1
 746 39 l 1
 741 32 l 1
 690 16 619 -5 588 -5 c 0
 576 -5 558 1 556 16 c 1
 555 32 555 48 555 64 c 1
 547 70 l 1
 477 25 397 -9 314 -9 c 0
 286 -9 257 -6 230 2 c 0
 209 8 190 18 174 33 c 1
 148 60 134 107 130 127 c 0
 123 173 122 247 122 308 c 0
 122 405 126 503 124 601 c 0
 124 620 110 635 92 639 c 0
 74 644 38 653 36 653 c 1
 34 673 l 1
 42 680 l 1
 211 680 l 1
 218 674 l 1
 216 660 210 559 210 542 c 2
EndSplineSet
AlternateSubs2: "'ssty' Script Style lookup 0-1" uni0055.ssty1 uni0055.ssty2
EndChar
StartChar: uni0056
Encoding: 86 86 378
Width: 646
Flags: MW
ItalicCorrection: 83
TopAccentHorizontal: 379
HStem: -16 21<320 320> 652 46
VStem: 23 706<678 682>
LayerCount: 2
Back
Fore
SplineSet
637 680 m 1
 723 697 l 1
 729 678 l 1
 665 599 601 490 590 468 c 0
 552 399 534 365 500 291 c 0
 458 202 421 106 388 10 c 1
 320 -16 l 1
 310 -9 l 1
 167 473 l 2
 153 519 138 565 119 609 c 0
 115 617 111 625 105 631 c 0
 100 636 94 640 87 642 c 0
 75 647 45 652 24 655 c 1
 23 682 l 1
 30 688 l 1
 205 698 l 1
 244 507 299 320 370 138 c 0
 372 134 376 132 378 131 c 1
 381 132 384 132 386 135 c 0
 389 138 422 215 449 274 c 1
 504 402 l 1
 568 548 l 2
 588 593 612 637 637 680 c 1
EndSplineSet
AlternateSubs2: "'ssty' Script Style lookup 0-1" uni0056.ssty1 uni0056.ssty2
EndChar

StartChar: uni0057
Encoding: 87 87 379
Width: 986
Flags: MW
ItalicCorrection: 56
TopAccentHorizontal: 549
HStem: -11 21<246 246 657 657> 650 40
VStem: 13 1047<679 679>
LayerCount: 2
Fore
SplineSet
979 675 m 1
 1060 689 l 1
 1060 668 l 1
 945 480 l 2
 899 403 781 174 717 16 c 1
 657 -11 l 1
 645 -3 l 1
 613 178 576 357 536 536 c 0
 535 541 534 548 529 548 c 0
 526 548 522 541 520 536 c 2
 492 473 l 2
 438 352 357 173 310 18 c 1
 246 -11 l 1
 235 -6 l 1
 212 122 187 249 157 375 c 0
 137 456 117 537 87 614 c 0
 82 627 73 638 60 642 c 0
 47 646 30 652 15 655 c 1
 13 679 l 1
 21 686 l 1
 177 689 l 1
 192 608 251 338 290 163 c 0
 291 158 295 157 297 157 c 0
 300 157 303 159 304 161 c 0
 346 244 478 535 523 661 c 1
 599 690 l 1
 606 684 l 1
 606 622 637 471 668 325 c 0
 681 264 694 204 704 151 c 0
 705 147 710 139 717 139 c 0
 726 139 728 143 730 146 c 2
 810 316 l 1
 919 558 l 1
 941 604 961 644 979 675 c 1
EndSplineSet
AlternateSubs2: "'ssty' Script Style lookup 0-1" uni0057.ssty1 uni0057.ssty2
EndChar
StartChar: uni0058
Encoding: 88 88 380
Width: 666
Flags: MW
TopAccentHorizontal: 389
HStem: -11 21<526 526> 645 43
VStem: 27 609<0 32 16 32>
LayerCount: 2
Back
Fore
SplineSet
632 672 m 1
 445 466 l 1
 415 431 382 387 378 380 c 1
 378 367 495 180 534 131 c 1
 594 59 l 2
 601 52 623 38 631 36 c 1
 636 32 l 1
 636 16 l 1
 526 -11 l 1
 512 -5 l 1
 494 13 480 35 466 57 c 2
 323 296 l 1
 311 296 l 1
 297 279 256 223 228 182 c 1
 190 129 137 45 121 11 c 1
 27 0 l 1
 27 16 l 1
 298 345 l 1
 294 346 199 508 153 590 c 0
 142 608 116 627 98 634 c 0
 84 639 67 644 48 649 c 1
 48 674 l 1
 55 680 l 1
 80 681 156 685 201 688 c 1
 348 422 l 1
 357 422 l 1
 362 427 427 512 460 557 c 1
 492 603 537 674 537 674 c 1
 632 687 l 1
 632 672 l 1
EndSplineSet
AlternateSubs2: "'ssty' Script Style lookup 0-1" uni0058.ssty1 uni0058.ssty2
EndChar
StartChar: uni0059
Encoding: 89 89 381
Width: 555
Flags: MW
ItalicCorrection: 56
TopAccentHorizontal: 333
HStem: -11 21<266 266> 648 42
VStem: 23 592<675 675 675 679 675 679>
LayerCount: 2
Back
Fore
SplineSet
258 299 m 1
 109 594 l 2
 103 606 96 618 86 628 c 0
 80 635 72 641 63 643 c 0
 50 646 37 649 23 651 c 1
 23 679 l 1
 30 686 l 1
 175 686 l 1
 316 361 l 2
 317 359 322 353 328 353 c 0
 332 353 336 357 339 362 c 0
 342 367 385 437 398 460 c 0
 406 474 490 619 526 676 c 1
 611 693 l 1
 615 675 l 1
 504 530 430 434 347 306 c 1
 356 18 l 1
 266 -11 l 1
 255 -2 l 1
 258 98 258 199 258 299 c 1
EndSplineSet
AlternateSubs2: "'ssty' Script Style lookup 0-1" uni0059.ssty1 uni0059.ssty2
EndChar

StartChar: uni005A
Encoding: 90 90 382
Width: 666
Flags: MW
TopAccentHorizontal: 389
HStem: -13 78 631 64
VStem: 46 594<21 59>
LayerCount: 2
Fore
SplineSet
595 664 m 1
 460 471 286 200 196 61 c 1
 202 54 l 1
 631 68 l 1
 640 59 l 1
 622 -12 l 1
 493 0 239 0 47 0 c 1
 46 21 l 1
 470 627 l 1
 463 637 l 1
 276 637 174 631 147 628 c 1
 141 633 l 1
 141 687 l 1
 150 695 l 1
 298 686 446 683 595 683 c 1
 595 664 l 1
EndSplineSet
AlternateSubs2: "'ssty' Script Style lookup 0-1" uni005A.ssty1 uni005A.ssty2
EndChar
StartChar: uni005B
Encoding: 91 91 100
Width: 277
Flags: MW
IsExtendedShape: 1
GlyphVariantsVertical: uni005B bracketleft.alt01 bracketleft.alt02 bracketleft.alt03 bracketleft.alt04
GlyphCompositionVertical: 3  uni23A3%0,600,600,1799 uni23A2%1,201,201,602 uni23A1%0,600,600,1799
HStem: -120 24<252 279> 712 24<252 279>
VStem: 120 40<-83 699 -83 741>
LayerCount: 2
Back
Fore
SplineSet
279 712 m 1
 160 699 l 1
 160 -83 l 1
 279 -96 l 1
 279 -120 l 1
 225 -120 172 -120 120 -125 c 1
 120 741 l 1
 159 736 225 736 279 736 c 1
 279 712 l 1
EndSplineSet
AlternateSubs2: "'ssty' Script Style lookup 0-1" uni005B.ssty1 uni005B.ssty2
EndChar

StartChar: uni005C
Encoding: 92 92 445
Width: 501
Flags: MW
GlyphVariantsVertical: uni005C uni005C.alt01 uni005C.alt02 uni005C.alt03 uni005C.alt04
HStem: -194 21 706 20
VStem: 35 427
LayerCount: 2
Fore
SplineSet
428 -192 m 1
 39 704 l 1
 44 715 l 1
 75 722 l 1
 463 -171 l 1
 460 -184 l 1
 428 -192 l 1
EndSplineSet
AlternateSubs2: "'ssty' Script Style lookup 0-1" uni005C.ssty1 uni005C.ssty2
EndChar

StartChar: uni005D
Encoding: 93 93 101
Width: 277
Flags: MW
IsExtendedShape: 1
GlyphVariantsVertical: uni005D bracketright.alt01 bracketright.alt02 bracketright.alt03 bracketright.alt04
GlyphCompositionVertical: 3  uni23A6%0,600,600,1799 uni23A5%1,201,201,602 uni23A4%0,600,600,1799
HStem: -120 24<-1 26> 712 24<-1 26>
VStem: 118 40<-83 699 699 699>
LayerCount: 2
Fore
SplineSet
118 699 m 1
 -1 712 l 1
 -1 736 l 1
 53 736 119 736 158 741 c 1
 158 -125 l 1
 106 -120 53 -120 -1 -120 c 1
 -1 -96 l 1
 118 -83 l 1
 118 699 l 1
EndSplineSet
AlternateSubs2: "'ssty' Script Style lookup 0-1" uni005D.ssty1 uni005D.ssty2
EndChar
StartChar: underscore
Encoding: 95 95 1870
Width: 450
VWidth: 664
Flags: W
HStem: -100 40<0 451>
LayerCount: 2
Back
Fore
SplineSet
451 -100 m 1
 -7 -100 l 1
 0 -60 l 1
 457 -60 l 1
 451 -100 l 1
EndSplineSet
Colour: ff0000
EndChar

StartChar: uni0061
Encoding: 97 97 383
Width: 609
Flags: MW
TopAccentHorizontal: 332
HStem: -10 63 430 35
VStem: 88 90<194 215 194 232.5> 411 76<108 117 108 329>
LayerCount: 2
Fore
SplineSet
433 431 m 1
 486 462 l 1
 491 457 l 1
 485 344 484 230 487 117 c 0
 487 99 488 81 498 65 c 0
 503 56 514 52 524 52 c 0
 538 52 568 62 589 70 c 1
 596 46 l 1
 556 22 502 -12 470 -12 c 0
 456 -12 440 -9 430 3 c 0
 419 16 416 30 413 47 c 1
 398 51 l 1
 370 33 344 18 314 6 c 0
 289 -4 263 -12 235 -12 c 0
 198 -12 160 1 135 30 c 0
 97 75 87 135 88 193 c 1
 88 272 109 352 166 408 c 0
 209 449 267 466 326 466 c 0
 358 466 401 454 433 431 c 1
411 99 m 1
 411 329 l 2
 411 355 411 381 395 398 c 0
 377 417 352 431 327 431 c 0
 291 431 258 418 232 393 c 1
 208 372 181 316 178 215 c 1
 178 173 183 130 206 95 c 0
 227 62 268 54 305 54 c 0
 322 54 345 61 360 68 c 0
 381 78 391 84 411 99 c 1
EndSplineSet
AlternateSubs2: "'ssty' Script Style lookup 0-1" uni0061.ssty1 uni0061.ssty2
EndChar

StartChar: uni0062
Encoding: 98 98 384
Width: 588
Flags: MW
HStem: -10 48<279 280.5> 405 63 639 46
VStem: 122 73 441 84
LayerCount: 2
Fore
SplineSet
27 661 m 1
 33 666 l 1
 202 684 l 1
 208 677 l 1
 199 584 192 493 194 399 c 1
 203 394 l 1
 256 434 314 468 382 468 c 0
 418 468 454 455 480 430 c 0
 515 396 525 345 523 297 c 0
 522 256 517 216 504 177 c 0
 494 146 480 116 457 93 c 0
 399 33 323 -10 238 -10 c 0
 205 -10 178 -1 154 23 c 0
 136 41 121 69 121 123 c 2
 121 599 l 2
 121 615 115 629 97 631 c 0
 96 631 47 637 27 640 c 1
 27 661 l 1
198 347 m 1
 196 313 194 268 194 229 c 0
 194 167 198 90 225 64 c 0
 246 44 265 38 293 38 c 0
 326 38 358 50 384 71 c 0
 404 87 416 109 424 132 c 0
 435 162 440 195 440 227 c 0
 440 300 424 342 410 363 c 0
 397 383 373 406 335 406 c 0
 282 406 237 381 198 347 c 1
EndSplineSet
AlternateSubs2: "'ssty' Script Style lookup 0-1" uni0062.ssty1 uni0062.ssty2
EndChar

StartChar: uni0063
Encoding: 99 99 385
Width: 486
Flags: MW
TopAccentHorizontal: 271
HStem: -22 71 430 48
VStem: 51 83 344 74
LayerCount: 2
Fore
SplineSet
435 114 m 1
 446 96 l 1
 384 35 311 -19 222 -19 c 0
 178 -19 141 -11 112 13 c 0
 91 31 76 57 66 82 c 0
 49 125 49 171 49 217 c 0
 49 284 69 350 114 400 c 0
 161 452 234 475 302 475 c 0
 330 475 357 469 378 452 c 0
 402 433 415 406 418 377 c 1
 364 324 l 1
 347 330 l 1
 342 367 331 394 314 412 c 0
 301 426 280 436 262 436 c 0
 228 436 205 426 177 393 c 0
 142 353 132 300 132 248 c 0
 132 187 141 117 189 76 c 1
 212 55 243 47 273 47 c 0
 332 47 382 78 426 116 c 1
 435 114 l 1
EndSplineSet
AlternateSubs2: "'ssty' Script Style lookup 0-1" uni0063.ssty1 uni0063.ssty2
EndChar

StartChar: uni0064
Encoding: 100 100 386
Width: 603
Flags: MW
HStem: -19 68 428 34<302.5 330.5> 638 47
VStem: 86 88 413 76
LayerCount: 2
Fore
SplineSet
314 660 m 1
 319 664 l 1
 482 684 l 1
 490 675 l 1
 490 110 l 1
 491 93 494 76 501 63 c 0
 506 53 516 48 528 48 c 0
 538 48 569 59 589 67 c 1
 597 44 l 1
 572 27 546 10 519 -3 c 0
 503 -11 486 -19 468 -19 c 0
 453 -19 437 -14 428 -1 c 0
 417 15 410 34 409 54 c 1
 378 33 346 14 311 0 c 0
 287 -10 261 -18 235 -18 c 0
 200 -18 164 -7 139 19 c 0
 98 62 86 122 86 180 c 0
 86 260 106 340 162 398 c 0
 204 442 263 462 323 462 c 0
 352 462 379 456 406 447 c 1
 413 451 l 1
 413 504 413 576 406 602 c 0
 402 615 392 627 378 631 c 0
 358 636 336 638 315 638 c 1
 314 660 l 1
409 95 m 1
 413 310 l 2
 413 345 409 383 383 409 c 0
 367 425 342 428 319 428 c 0
 286 428 255 414 232 390 c 0
 185 342 173 270 173 203 c 0
 173 158 182 110 215 77 c 0
 235 57 264 48 291 48 c 0
 326 48 382 68 409 95 c 1
EndSplineSet
AlternateSubs2: "'ssty' Script Style lookup 0-1" uni0064.ssty1 uni0064.ssty2
EndChar
StartChar: uni0065
Encoding: 101 101 387
Width: 499
Flags: MW
TopAccentHorizontal: 277
HStem: -13 69 436 45
VStem: 64 87 374 89
LayerCount: 2
Back
Fore
SplineSet
198 396 m 1
 159 354 152 309 152 260 c 0
 152 254 153 248 154 242 c 1
 158 238 l 1
 360 318 l 2
 366 320 373 328 373 344 c 0
 373 347 373 351 372 354 c 0
 366 379 350 412 326 428 c 0
 314 435 301 438 282 438 c 0
 249 438 219 422 198 396 c 1
438 319 m 2
 156 197 l 1
 159 164 173 113 203 85 c 0
 225 64 255 56 285 56 c 0
 314 56 341 65 367 78 c 0
 392 91 416 106 439 124 c 1
 450 122 l 1
 463 104 l 1
 430 73 394 45 354 23 c 1
 318 2 277 -12 235 -12 c 0
 200 -12 165 -4 137 18 c 0
 117 34 104 57 95 80 c 0
 76 126 69 177 69 226 c 0
 69 284 81 343 120 388 c 0
 169 445 241 478 317 478 c 0
 350 478 383 471 409 450 c 0
 442 423 459 382 459 340 c 0
 459 336 459 333 458 332 c 0
 455 327 445 322 438 319 c 2
EndSplineSet
AlternateSubs2: "'ssty' Script Style lookup 0-1" uni0065.ssty1 uni0065.ssty2
EndChar
StartChar: uni0066
Encoding: 102 102 388
Width: 419
Flags: MW
TopAccentHorizontal: 321
HStem: 399 35<47 152 47 153 41 152 238 353> 629 40<287.5 356>
VStem: 158 76<440 457.5>
LayerCount: 2
Back
Fore
SplineSet
47 434 m 1
 152 434 l 1
 158 440 l 1
 158 475 161 526 176 562 c 0
 191 596 203 612 230 635 c 0
 261 660 294 669 329 669 c 0
 383 669 409 642 422 615 c 1
 364 561 l 1
 352 565 l 1
 350 575 347 591 342 599 c 0
 336 610 320 629 294 629 c 0
 281 629 270 620 260 604 c 0
 241 575 234 504 234 440 c 1
 238 434 l 1
 362 434 l 1
 367 427 l 1
 360 405 l 1
 353 399 l 1
 238 399 l 1
 232 393 l 1
 232 282 l 2
 232 188 235 93 242 12 c 1
 163 -12 l 1
 146 -1 l 1
 154 98 158 192 159 283 c 1
 159 391 l 1
 153 399 l 1
 41 399 l 1
 36 406 l 1
 40 428 l 1
 47 434 l 1
EndSplineSet
AlternateSubs2: "'ssty' Script Style lookup 0-1" uni0066.ssty1 uni0066.ssty2
EndChar

StartChar: uni0067
Encoding: 103 103 389
Width: 568
Flags: MW
TopAccentHorizontal: 312
HStem: -203 44 -17 68 429 38
VStem: 85 85 407 77
LayerCount: 2
Fore
SplineSet
399 52 m 1
 366 33 339 19 304 4 c 0
 282 -6 252 -11 228 -11 c 0
 198 -11 164 2 140 25 c 0
 104 59 83 116 83 184 c 0
 83 242 92 276 104 312 c 1
 116 344 133 377 157 401 c 0
 198 442 254 465 312 465 c 0
 353 465 396 456 429 431 c 1
 480 460 l 1
 494 454 l 1
 489 363 485 291 485 82 c 0
 485 44 484 -28 463 -86 c 0
 448 -130 410 -164 390 -179 c 0
 339 -218 289 -233 228 -233 c 0
 184 -233 139 -223 90 -177 c 1
 139 -115 l 1
 153 -115 l 1
 171 -151 217 -192 253 -192 c 0
 291 -192 329 -175 354 -145 c 1
 372 -125 383 -99 390 -73 c 0
 399 -42 407 8 408 45 c 1
 399 52 l 1
408 99 m 1
 408 363 l 1
 407 377 399 394 390 405 c 1
 372 424 346 431 319 431 c 0
 285 431 253 414 228 390 c 0
 206 369 191 341 183 313 c 0
 171 275 169 242 169 203 c 0
 169 176 185 124 198 105 c 0
 221 72 255 52 283 52 c 0
 329 52 385 81 408 99 c 1
EndSplineSet
AlternateSubs2: "'ssty' Script Style lookup 0-1" uni0067.ssty1 uni0067.ssty2
EndChar
StartChar: uni0068
Encoding: 104 104 390
Width: 621
Flags: MW
HStem: 84 63 447 55 650 40
VStem: 120 70 419 71
LayerCount: 2
Back
Fore
SplineSet
624 107 m 1
 637 97 l 1
 637 86 l 1
 609 56 586 33 553 14 c 0
 530 0 508 -10 480 -10 c 0
 461 -10 442 0 432 16 c 0
 420 36 414 62 414 89 c 0
 414 143 418 230 418 266 c 0
 418 290 417 313 413 338 c 0
 410 355 402 374 388 386 c 1
 371 398 354 404 332 404 c 0
 310 404 282 396 262 388 c 1
 234 374 215 362 190 344 c 1
 190 234 188 124 188 16 c 1
 116 -6 l 1
 110 4 l 1
 117 136 123 268 124 400 c 0
 124 452 124 525 121 556 c 0
 119 576 117 598 104 616 c 0
 96 628 54 636 27 642 c 1
 27 660 l 1
 32 664 l 1
 190 681 l 1
 196 674 l 1
 192 589 192 490 192 398 c 1
 200 390 l 1
 236 412 273 432 313 448 c 1
 341 458 368 466 401 466 c 0
 416 466 448 456 466 438 c 0
 479 426 485 408 487 390 c 0
 490 362 490 302 490 260 c 0
 490 216 489 152 491 128 c 0
 492 112 494 94 504 78 c 0
 511 68 522 62 534 62 c 0
 550 62 566 67 580 74 c 0
 599 85 612 96 624 107 c 1
EndSplineSet
AlternateSubs2: "'ssty' Script Style lookup 0-1" uni0068.ssty1 uni0068.ssty2
EndChar

StartChar: uni0069
Encoding: 105 105 391
Width: 360
Flags: MW
HStem: -9 71 413 59 568 115
VStem: 136 77
LayerCount: 2
Fore
SplineSet
216 392 m 2
 208 182 l 1
 208 141 212 105 220 87 c 0
 226 74 238 65 252 65 c 0
 266 65 282 68 294 74 c 0
 312 84 328 96 344 110 c 1
 357 100 l 1
 357 89 l 1
 337 62 315 39 288 19 c 1
 266 5 242 -8 216 -8 c 0
 192 -8 169 -1 152 20 c 0
 138 38 136 60 136 104 c 1
 142 325 l 2
 142 355 138 381 131 395 c 0
 126 405 117 410 107 410 c 0
 85 410 51 393 27 378 c 1
 14 396 l 1
 38 415 71 438 95 450 c 0
 113 459 135 471 154 471 c 0
 168 471 188 469 200 453 c 1
 214 437 216 413 216 392 c 2
230 625 m 1
 228 592 202 569 170 569 c 0
 138 569 112 595 112 627 c 1
 114 661 146 683 176 683 c 0
 210 683 230 655 230 625 c 1
EndSplineSet
Substitution2: "'dtls' Dotless Forms lookup-1" uni0131
AlternateSubs2: "'ssty' Script Style lookup 0-1" uni0069.ssty1 uni0069.ssty2
EndChar
StartChar: uni006A
Encoding: 106 106 392
Width: 331
Flags: MW
HStem: -191 21 406 61 565 118<152 182.5>
VStem: 153 69
LayerCount: 2
Back
Fore
SplineSet
27 375 m 1
 14 393 l 1
 41 414 68 433 98 449 c 0
 116 458 135 468 155 468 c 0
 170 468 186 465 196 455 c 0
 211 441 214 421 216 401 c 1
 223 358 223 191 223 154 c 0
 223 134 223 -6 211 -41 c 0
 198 -79 175 -112 148 -141 c 0
 115 -176 61 -209 15 -231 c 1
 -1 -215 l 1
 73 -171 113 -126 127 -76 c 0
 144 -14 147 110 147 154 c 0
 147 252 147 318 144 355 c 0
 142 375 135 390 131 394 c 0
 120 408 114 408 103 408 c 0
 87 408 52 388 27 375 c 1
168 683 m 0
 198 683 226 661 226 629 c 0
 226 595 200 565 165 565 c 0
 132 565 109 593 109 625 c 0
 109 657 136 683 168 683 c 0
EndSplineSet
Substitution2: "'dtls' Dotless Forms lookup-1" uni0237
AlternateSubs2: "'ssty' Script Style lookup 0-1" uni006A.ssty1 uni006A.ssty2
EndChar

StartChar: uni006B
Encoding: 107 107 393
Width: 555
Flags: MW
HStem: -7 75 465 20<449 449> 635 52
VStem: 119 73
LayerCount: 2
Fore
SplineSet
202 266 m 1
 336 389 l 2
 363 413 413 459 416 462 c 0
 427 471 437 479 449 485 c 1
 495 456 l 1
 495 445 l 1
 420 401 349 350 282 294 c 0
 275 288 264 279 264 274 c 0
 264 268 269 263 272 258 c 0
 319 198 372 146 418 99 c 0
 432 85 456 73 468 73 c 0
 501 73 524 89 546 112 c 1
 565 92 l 1
 538 56 514 30 468 0 c 0
 462 -4 448 -7 438 -7 c 0
 429 -7 411 -4 404 1 c 1
 393 7 376 23 359 42 c 1
 359 42 270 162 199 241 c 1
 189 234 l 1
 187 13 l 1
 116 -7 l 1
 110 0 l 1
 113 120 117 240 120 359 c 0
 122 438 125 548 113 594 c 0
 109 609 98 622 83 628 c 0
 73 631 46 636 27 638 c 1
 27 659 l 1
 32 663 l 1
 192 686 l 1
 198 679 l 1
 189 266 l 1
 202 266 l 1
EndSplineSet
AlternateSubs2: "'ssty' Script Style lookup 0-1" uni006B.ssty1 uni006B.ssty2
EndChar

StartChar: uni006C
Encoding: 108 108 394
Width: 365
Flags: MW
HStem: -11 74 635 52
VStem: 133 73
LayerCount: 2
Fore
SplineSet
338 112 m 1
 349 112 l 1
 360 100 l 1
 341 69 318 41 289 19 c 0
 265 2 237 -10 208 -11 c 0
 189 -11 169 -5 156 8 c 0
 133 33 126 52 126 130 c 1
 133 508 l 2
 133 541 133 584 128 608 c 0
 125 621 114 630 101 632 c 0
 82 636 61 637 41 638 c 1
 41 661 l 1
 47 666 l 1
 212 686 l 1
 218 679 l 1
 214 539 204 399 204 259 c 0
 204 217 204 157 206 132 c 0
 208 115 210 98 219 83 c 0
 227 71 238 66 252 65 c 0
 266 65 281 70 292 77 c 0
 308 87 323 99 338 112 c 1
EndSplineSet
AlternateSubs2: "'ssty' Script Style lookup 0-1" uni006C.ssty1 uni006C.ssty2
EndChar
StartChar: uni006D
Encoding: 109 109 395
Width: 915
Flags: MW
HStem: -18 70<754 824> 414 58
VStem: 149 80 432 69 696 77
LayerCount: 2
Back
Fore
SplineSet
422 -4 m 1
 422 28 432 155 432 269 c 0
 432 293 432 320 427 339 c 0
 423 355 416 370 404 382 c 0
 390 396 370 400 350 400 c 0
 303 400 242 362 233 356 c 1
 228 243 226 127 230 14 c 1
 163 -10 l 1
 149 -2 l 1
 150 90 156 182 156 273 c 0
 156 317 154 383 143 399 c 0
 136 409 127 412 116 412 c 0
 100 412 64 396 41 383 c 1
 29 402 l 1
 53 421 78 439 105 453 c 0
 124 462 145 470 166 471 c 0
 183 471 200 465 212 454 c 0
 228 439 228 417 228 397 c 1
 236 391 l 1
 269 409 302 428 338 443 c 0
 360 452 384 459 408 459 c 0
 445 459 479 439 498 407 c 1
 514 405 l 1
 539 418 564 432 599 444 c 0
 623 453 648 460 674 460 c 0
 703 460 733 454 753 433 c 0
 767 419 769 399 771 380 c 0
 773 360 773 292 773 248 c 2
 773 117 l 2
 773 104 775 79 787 66 c 0
 796 56 811 52 824 52 c 0
 846 53 876 74 901 92 c 1
 915 92 l 1
 922 71 l 1
 896 46 869 23 838 6 c 0
 814 -7 789 -17 762 -18 c 0
 746 -18 727 -13 716 -1 c 0
 701 15 694 38 694 59 c 0
 694 75 699 195 699 269 c 0
 699 293 699 316 693 339 c 0
 689 356 681 370 669 382 c 0
 654 396 634 400 614 400 c 0
 565 400 530 382 502 366 c 1
 499 251 499 133 506 18 c 1
 432 -10 l 1
 422 -4 l 1
EndSplineSet
AlternateSubs2: "'ssty' Script Style lookup 0-1" uni006D.ssty1 uni006D.ssty2
EndChar
StartChar: uni006E
Encoding: 110 110 396
Width: 664
Flags: MW
HStem: -13 74 411 59
VStem: 133 77 431 75
LayerCount: 2
Back
Fore
SplineSet
210 18 m 1
 140 -6 l 1
 125 1 l 1
 127 44 133 171 134 257 c 0
 135 303 136 369 124 393 c 0
 119 404 110 413 97 413 c 0
 76 413 51 397 22 378 c 1
 5 400 l 1
 47 430 104 472 141 471 c 0
 159 471 178 467 191 454 c 0
 207 439 209 422 212 403 c 1
 220 397 l 1
 254 418 287 436 325 450 c 0
 352 461 380 469 409 469 c 0
 438 469 468 462 486 440 c 0
 506 417 506 320 506 256 c 0
 506 202 506 130 507 111 c 0
 509 77 531 60 554 60 c 0
 577 60 609 81 634 100 c 1
 647 100 l 1
 656 79 l 1
 627 51 600 30 567 11 c 0
 547 0 512 -10 499 -10 c 0
 473 -10 453 -2 441 17 c 1
 429 34 427 57 427 78 c 2
 432 249 l 2
 432 278 430 308 425 336 c 0
 422 354 416 371 405 384 c 0
 388 402 367 410 342 410 c 0
 322 410 302 403 284 395 c 0
 258 383 235 367 213 349 c 1
 211 302 208 250 208 198 c 0
 208 138 206 99 210 18 c 1
EndSplineSet
AlternateSubs2: "'ssty' Script Style lookup 0-1" uni006E.ssty1 uni006E.ssty2
EndChar
StartChar: uni006F
Encoding: 111 111 397
Width: 563
Flags: MW
TopAccentHorizontal: 309
HStem: -13 40 426 41
VStem: 53 90 409 91
LayerCount: 2
Back
Fore
SplineSet
150 316 m 0
 144 291 142 265 142 239 c 0
 142 173 154 98 205 53 c 0
 224 36 250 27 277 27 c 0
 311 27 342 39 365 64 c 0
 384 85 394 112 400 139 c 0
 406 166 408 193 408 220 c 0
 408 284 400 356 350 400 c 1
 330 419 303 426 276 426 c 0
 246 426 208 412 182 384 c 0
 164 365 156 341 150 316 c 0
250 -14 m 0
 206 -14 158 -4 125 26 c 0
 77 69 60 133 56 196 c 1
 56 265 63 339 111 391 c 0
 158 443 229 465 299 465 c 0
 346 465 393 456 429 424 c 0
 480 377 497 306 497 239 c 0
 497 174 483 108 439 59 c 0
 392 6 320 -14 250 -14 c 0
EndSplineSet
AlternateSubs2: "'ssty' Script Style lookup 0-1" uni006F.ssty1 uni006F.ssty2
EndChar
StartChar: uni0070
Encoding: 112 112 398
Width: 589
Flags: MW
HStem: -199 21 -11 40<262.5 273> 413 56
VStem: 114 76 438 71
LayerCount: 2
Back
Fore
SplineSet
199 -206 m 1
 118 -237 l 1
 108 -226 l 1
 113 -168 114 37 114 94 c 2
 114 315 l 2
 114 337 109 381 100 395 c 0
 94 405 87 412 75 412 c 0
 54 412 26 397 2 383 c 1
 -12 402 l 1
 12 421 38 439 65 452 c 0
 84 462 103 470 124 470 c 0
 140 470 156 467 168 455 c 0
 183 441 187 419 189 395 c 1
 197 391 l 1
 230 417 252 430 288 446 c 0
 318 459 349 465 381 465 c 0
 412 465 452 450 474 428 c 1
 510 388 518 350 518 298 c 0
 518 254 509 202 493 163 c 0
 480 132 456 92 436 74 c 0
 408 49 377 27 343 11 c 0
 316 -2 288 -11 258 -11 c 0
 238 -11 218 -8 199 -3 c 1
 189 -11 l 1
 190 -57 193 -154 199 -206 c 1
191 66 m 0
 215 44 246 29 279 29 c 0
 315 29 350 39 377 65 c 0
 398 85 411 112 420 140 c 0
 432 175 434 202 434 239 c 0
 434 265 428 300 420 325 c 0
 415 343 407 358 394 373 c 0
 376 394 352 403 331 403 c 0
 280 403 239 382 192 345 c 1
 192 339 189 263 189 252 c 0
 189 170 191 67 191 66 c 0
EndSplineSet
AlternateSubs2: "'ssty' Script Style lookup 0-1" uni0070.ssty1 uni0070.ssty2
EndChar
StartChar: uni0071
Encoding: 113 113 399
Width: 605
Flags: MW
HStem: -194 21 -8 63 434 33 490 14
VStem: 88 95 411 76
LayerCount: 2
Back
Fore
SplineSet
419 -243 m 1
 403 -227 l 1
 406 -186 408 -42 411 54 c 1
 404 59 l 1
 353 21 295 -7 232 -7 c 0
 200 -7 169 5 146 26 c 1
 102 69 88 132 89 192 c 0
 91 279 114 364 181 422 c 0
 223 459 281 471 329 471 c 0
 360 471 400 457 428 443 c 1
 437 445 l 1
 481 504 l 1
 502 500 l 1
 484 277 483 -28 500 -214 c 1
 419 -243 l 1
411 105 m 1
 411 331 l 2
 411 356 411 386 395 402 c 0
 377 420 354 434 328 434 c 0
 295 434 264 422 239 401 c 0
 193 364 181 283 181 213 c 0
 181 187 185 161 192 136 c 1
 196 118 205 104 216 90 c 0
 235 67 265 55 295 55 c 0
 334 55 378 76 411 105 c 1
EndSplineSet
AlternateSubs2: "'ssty' Script Style lookup 0-1" uni0071.ssty1 uni0071.ssty2
EndChar

StartChar: uni0072
Encoding: 114 114 400
Width: 432
Flags: MW
HStem: -5 21 415 58
VStem: 141 74
LayerCount: 2
Fore
SplineSet
361 339 m 1
 349 344 l 1
 346 360 341 376 330 388 c 0
 321 397 309 402 296 402 c 0
 255 402 231 367 219 340 c 0
 214 328 214 308 213 294 c 0
 212 201 211 110 215 18 c 1
 145 -3 l 1
 130 6 l 1
 137 76 141 163 142 243 c 0
 142 296 142 372 126 397 c 0
 120 407 110 412 99 412 c 0
 76 412 46 395 21 381 c 1
 9 398 l 1
 34 418 61 438 89 454 c 1
 107 463 125 473 144 473 c 0
 162 473 180 469 193 456 c 0
 207 442 213 421 216 401 c 1
 226 397 l 1
 245 415 266 433 289 448 c 0
 303 457 318 467 336 467 c 0
 355 467 378 463 392 449 c 0
 406 435 413 410 415 388 c 1
 361 339 l 1
EndSplineSet
AlternateSubs2: "'ssty' Script Style lookup 0-1" uni0072.ssty1 uni0072.ssty2
EndChar

StartChar: uni0073
Encoding: 115 115 401
Width: 455
Flags: MW
TopAccentHorizontal: 255
HStem: -17 42 431 35<238.5 254>
VStem: 90 72<339 340.5> 314 75
LayerCount: 2
Fore
SplineSet
376 383 m 1
 321 346 l 1
 309 353 l 1
 308 371 306 390 296 406 c 0
 285 424 264 431 244 431 c 0
 222 431 200 423 185 408 c 0
 169 393 162 372 162 350 c 0
 162 328 173 316 188 300 c 0
 200 288 243 266 272 254 c 0
 304 240 341 218 355 204 c 0
 373 186 387 163 387 138 c 0
 387 103 375 69 351 44 c 0
 312 2 256 -17 199 -17 c 0
 161 -17 121 -10 92 16 c 0
 76 30 62 47 52 66 c 1
 101 137 l 1
 115 136 l 1
 117 106 127 76 150 55 c 0
 172 34 199 21 229 21 c 0
 251 21 278 33 293 49 c 0
 305 62 314 79 314 97 c 0
 314 118 303 138 288 153 c 0
 269 172 241 184 215 195 c 0
 184 208 154 222 131 242 c 0
 108 263 90 291 90 323 c 0
 90 358 104 393 131 417 c 0
 167 450 214 466 263 466 c 0
 293 466 325 462 348 441 c 0
 364 426 375 405 376 383 c 1
EndSplineSet
AlternateSubs2: "'ssty' Script Style lookup 0-1" uni0073.ssty1 uni0073.ssty2
EndChar
StartChar: uni0074
Encoding: 116 116 402
Width: 416
Flags: MW
HStem: -9 64<223.5 301.5> 394 35 591 20<222 222>
VStem: 141 77
LayerCount: 2
Back
Fore
SplineSet
138 582 m 1
 222 611 l 1
 229 606 l 1
 224 549 219 498 218 440 c 1
 224 435 l 1
 352 435 l 1
 357 431 l 1
 349 405 l 1
 343 400 l 1
 224 400 l 1
 218 394 l 1
 218 205 l 2
 218 163 222 99 244 75 c 0
 257 60 272 55 289 55 c 0
 314 55 350 77 380 96 c 1
 392 94 l 1
 399 79 l 1
 372 54 343 31 311 14 c 0
 287 1 262 -9 235 -9 c 0
 212 -9 181 -2 163 22 c 0
 142 49 140 68 140 203 c 2
 140 393 l 1
 134 400 l 1
 22 400 l 1
 17 405 l 1
 24 429 l 1
 30 435 l 1
 134 435 l 1
 140 441 l 1
 140 492 140 556 138 582 c 1
EndSplineSet
AlternateSubs2: "'ssty' Script Style lookup 0-1" uni0074.ssty1 uni0074.ssty2
EndChar

StartChar: uni0075
Encoding: 117 117 403
Width: 642
Flags: MW
HStem: -15 66 407 61
VStem: 129 72 422 77<104 470 435 470>
LayerCount: 2
Fore
SplineSet
644 105 m 1
 655 86 l 1
 625 60 594 36 561 16 c 0
 540 4 518 -8 494 -8 c 0
 476 -8 457 -3 444 10 c 0
 430 24 427 45 425 64 c 1
 417 65 l 1
 380 43 342 24 302 7 c 0
 279 -3 254 -10 229 -10 c 0
 201 -10 168 -3 149 19 c 0
 129 42 124 91 124 112 c 0
 124 145 128 246 128 275 c 0
 128 366 124 382 111 396 c 0
 105 403 95 405 83 405 c 0
 69 405 35 388 12 375 c 1
 -1 395 l 1
 25 415 52 434 81 450 c 0
 98 459 116 468 135 468 c 0
 151 468 169 465 181 453 c 0
 195 439 197 419 199 399 c 0
 201 379 201 296 201 244 c 0
 201 185 201 101 228 74 c 0
 244 58 268 51 291 51 c 0
 312 51 332 58 350 66 c 0
 376 78 397 89 422 104 c 1
 423 212 425 381 422 435 c 1
 499 470 l 1
 512 459 l 1
 504 366 500 273 500 181 c 0
 500 145 500 95 516 79 c 0
 525 70 537 65 549 65 c 0
 562 65 575 71 586 77 c 1
 604 85 619 95 636 107 c 1
 644 105 l 1
EndSplineSet
AlternateSubs2: "'ssty' Script Style lookup 0-1" uni0075.ssty1 uni0075.ssty2
EndChar
StartChar: uni0076
Encoding: 118 118 404
Width: 495
Flags: MW
HStem: -11 21<198 222 198 198> 410 59
VStem: 396 70<295.5 389>
LayerCount: 2
Back
Fore
SplineSet
412 460 m 2
 415 462 418 462 420 462 c 0
 423 462 427 462 429 459 c 1
 447 445 466 416 466 362 c 0
 466 307 439 258 411 212 c 0
 366 140 311 77 252 17 c 0
 241 6 227 -8 222 -11 c 1
 198 -11 l 1
 129 247 l 2
 116 298 91 369 78 391 c 0
 72 401 63 408 51 408 c 0
 29 408 11 400 -12 387 c 1
 -21 411 l 1
 2 427 26 442 52 454 c 0
 69 462 86 469 104 469 c 0
 119 469 133 462 143 452 c 0
 160 435 181 353 197 293 c 1
 211 235 236 139 252 92 c 0
 255 83 262 82 265 82 c 0
 270 82 281 96 289 104 c 0
 319 139 347 177 368 218 c 0
 384 248 396 279 396 312 c 0
 396 344 376 380 359 412 c 0
 358 413 358 415 358 417 c 0
 358 420 360 423 362 425 c 2
 412 460 l 2
EndSplineSet
AlternateSubs2: "'ssty' Script Style lookup 0-1" uni0076.ssty1 uni0076.ssty2
EndChar
StartChar: uni0077
Encoding: 119 119 405
Width: 812
Flags: MW
HStem: -8 21<175 175 527.5 540> 412 55
VStem: 713 69<295.5 386.5>
LayerCount: 2
Back
Fore
SplineSet
675 416 m 0
 674 418 674 420 674 422 c 0
 674 425 674 428 676 429 c 2
 733 464 l 2
 734 465 736 465 739 465 c 0
 742 465 745 465 747 462 c 0
 768 435 782 404 782 369 c 0
 782 314 755 263 726 216 c 0
 682 142 626 76 568 13 c 0
 558 3 547 -8 533 -8 c 0
 522 -8 510 4 507 13 c 0
 490 61 445 236 416 350 c 0
 414 354 412 360 407 360 c 0
 403 360 397 358 396 355 c 0
 340 252 272 124 217 5 c 1
 175 -8 l 1
 168 -2 l 1
 144 222 l 2
 130 348 109 393 96 405 c 0
 90 410 87 412 79 412 c 0
 56 412 23 395 -4 381 c 1
 -13 401 l 1
 13 420 39 437 68 452 c 0
 85 461 102 469 121 469 c 0
 139 469 155 463 167 450 c 0
 187 428 194 401 199 373 c 0
 214 293 218 211 228 130 c 1
 239 128 l 1
 296 231 353 335 405 441 c 1
 457 467 l 1
 469 464 l 1
 495 338 522 214 566 96 c 0
 569 89 576 81 584 81 c 0
 588 81 596 87 599 91 c 0
 631 131 663 172 687 218 c 0
 702 247 713 279 713 312 c 0
 713 327 708 342 703 356 c 0
 696 377 686 397 675 416 c 0
EndSplineSet
AlternateSubs2: "'ssty' Script Style lookup 0-1" uni0077.ssty1 uni0077.ssty2
EndChar

StartChar: uni0078
Encoding: 120 120 406
Width: 526
Flags: MW
HStem: -15 78 406 59
VStem: 2 510<82 400>
LayerCount: 2
Fore
SplineSet
422 462 m 2
 453 433 l 2
 454 432 456 430 456 429 c 0
 456 426 455 425 453 424 c 0
 397 385 333 320 281 259 c 1
 307 202 357 108 388 81 c 0
 398 72 410 63 425 63 c 0
 437 63 448 69 458 74 c 0
 472 82 483 90 496 101 c 1
 504 101 l 1
 512 82 l 1
 489 57 465 32 437 12 c 0
 421 0 404 -12 384 -12 c 0
 367 -12 353 -3 341 9 c 1
 325 23 314 42 303 61 c 0
 288 86 255 148 233 191 c 1
 226 191 l 1
 187 131 147 69 117 -8 c 1
 101 -12 l 1
 73 13 l 1
 73 21 l 1
 116 90 166 159 215 223 c 1
 186 282 149 357 115 392 c 0
 106 401 93 407 80 407 c 0
 59 407 34 394 16 382 c 1
 2 400 l 1
 25 418 49 434 74 448 c 0
 89 456 104 464 120 464 c 0
 137 464 161 460 174 445 c 0
 195 422 236 350 265 294 c 1
 271 293 l 1
 307 341 366 411 410 462 c 0
 411 464 413 464 416 464 c 0
 418 464 420 464 422 462 c 2
EndSplineSet
AlternateSubs2: "'ssty' Script Style lookup 0-1" uni0078.ssty1 uni0078.ssty2
EndChar

StartChar: uni0079
Encoding: 121 121 407
Width: 593
Flags: MW
HStem: -192 45 -9 64 409 58
VStem: 110 72 405 81
LayerCount: 2
Fore
SplineSet
97 -182 m 1
 95 -171 l 1
 139 -115 l 1
 152 -115 l 1
 173 -153 211 -192 256 -192 c 0
 293 -192 332 -178 354 -150 c 0
 382 -115 392 -63 397 -34 c 0
 403 -1 404 32 405 64 c 1
 399 69 l 1
 365 48 330 28 293 12 c 1
 267 2 240 -8 211 -8 c 0
 186 -8 162 -2 144 16 c 1
 109 45 107 117 107 157 c 0
 107 177 108 198 109 218 c 0
 111 280 115 370 96 396 c 0
 89 406 77 410 65 410 c 0
 48 410 17 394 -6 382 c 1
 -17 401 l 1
 -9 407 32 435 68 452 c 0
 85 460 103 468 122 468 c 0
 137 468 154 464 164 454 c 0
 178 440 185 419 185 398 c 0
 185 342 181 284 181 226 c 1
 184 133 193 103 209 82 c 0
 224 63 248 56 272 56 c 0
 293 56 314 60 334 70 c 1
 360 80 386 96 406 108 c 1
 410 214 408 324 400 428 c 1
 479 466 l 1
 491 462 l 1
 485 376 485 288 485 202 c 0
 485 78 487 25 470 -49 c 1
 458 -92 435 -132 411 -158 c 0
 363 -209 292 -233 224 -233 c 0
 177 -233 124 -210 97 -182 c 1
EndSplineSet
AlternateSubs2: "'ssty' Script Style lookup 0-1" uni0079.ssty1 uni0079.ssty2
EndChar
StartChar: uni007A
Encoding: 122 122 408
Width: 470
Flags: MW
TopAccentHorizontal: 263
HStem: -11 80 372 90
VStem: 24 455
LayerCount: 2
Back
Fore
SplineSet
408 462 m 1
 414 462 l 1
 428 449 l 1
 345 361 237 228 138 94 c 1
 143 86 l 1
 241 76 339 73 348 73 c 0
 372 73 399 83 412 96 c 0
 429 113 444 131 457 151 c 1
 479 139 l 1
 438 59 l 2
 428 38 416 18 396 6 c 0
 380 -4 360 -8 341 -8 c 0
 330 -8 255 0 212 5 c 2
 95 16 l 1
 71 16 49 -4 33 -27 c 1
 27 -27 l 1
 12 -8 l 1
 307 373 l 1
 297 371 288 371 277 371 c 0
 261 371 233 377 211 382 c 0
 193 386 173 390 157 390 c 0
 141 390 125 383 113 373 c 0
 101 363 82 338 68 319 c 1
 48 332 l 1
 98 421 l 2
 105 432 113 446 122 452 c 0
 133 460 147 462 160 462 c 0
 184 462 218 453 247 446 c 0
 276 439 308 431 335 431 c 0
 364 431 387 445 408 462 c 1
EndSplineSet
AlternateSubs2: "'ssty' Script Style lookup 0-1" uni007A.ssty1 uni007A.ssty2
EndChar

StartChar: uni007B
Encoding: 123 123 442
Width: 320
Flags: MW
IsExtendedShape: 1
GlyphVariantsVertical: uni007B uni007B.alt01 uni007B.alt02 uni007B.alt03 uni007B.alt04
GlyphCompositionVertical: 5  uni23A9%0,303,303,909 uni23AA%1,107,107,320 uni23A8%0,607,607,1820 uni23AA%1,107,107,320 uni23A7%0,303,303,909
HStem: -178 17 259 26<-3 6> 710 20<271.5 292>
VStem: 108 51<497.5 531.5>
LayerCount: 2
Fore
SplineSet
292 -154 m 1
 292 -178 l 1
 253 -178 200 -178 176 -172 c 0
 161 -168 148 -160 138 -149 c 0
 119 -128 115 -99 112 -72 c 0
 109 -48 109 -2 109 34 c 0
 109 103 109 208 84 236 c 0
 76 245 64 251 51 254 c 0
 34 259 15 259 -3 259 c 1
 -3 285 l 1
 36 285 60 286 82 305 c 0
 98 319 101 342 104 363 c 0
 108 398 108 463 108 514 c 0
 108 549 108 610 109 620 c 0
 112 648 117 676 134 698 c 0
 143 709 155 718 169 723 c 0
 190 730 251 730 292 730 c 1
 292 706 l 1
 263 706 232 706 205 698 c 0
 193 695 186 689 180 678 c 1
 172 666 168 651 165 636 c 0
 159 597 159 558 159 518 c 0
 159 477 158 436 152 395 c 0
 149 372 145 345 133 325 c 0
 116 299 91 280 74 274 c 1
 74 273 l 1
 94 266 112 255 126 235 c 0
 143 212 150 186 153 159 c 0
 158 116 159 73 159 30 c 0
 159 -10 161 -50 167 -89 c 0
 170 -103 174 -116 182 -128 c 0
 189 -139 200 -145 212 -148 c 0
 236 -154 265 -154 292 -154 c 1
EndSplineSet
AlternateSubs2: "'ssty' Script Style lookup 0-1" uni007B.ssty1 uni007B.ssty2
EndChar

StartChar: uni007C
Encoding: 124 124 444
Width: 213
Flags: MW
IsExtendedShape: 1
GlyphVariantsVertical: uni007C uni007C.alt01 uni007C.alt02 uni007C.alt03 uni007C.alt04
GlyphCompositionVertical: 2  uni007C.alt04%0,1102,1102,3306 uni007C.ex%1,102,102,305
VStem: 86 40<-159 -159 -159 730 730 730>
LayerCount: 2
Fore
SplineSet
126 -159 m 5
 86 -167 l 5
 86 730 l 5
 126 738 l 5
 126 -159 l 5
EndSplineSet
AlternateSubs2: "'ssty' Script Style lookup 0-1" uni007C.ssty1 uni007C.ssty2
EndChar

StartChar: uni007D
Encoding: 125 125 443
Width: 320
Flags: MW
IsExtendedShape: 1
GlyphVariantsVertical: uni007D uni007D.alt01 uni007D.alt02 uni007D.alt03 uni007D.alt04
GlyphCompositionVertical: 5  uni23AD%0,303,303,909 uni23AA%1,107,107,320 uni23AC%0,607,607,1820 uni23AA%1,107,107,320 uni23AB%0,303,303,909
HStem: -177 21 263 24 717 17
VStem: 78 52
LayerCount: 2
Fore
SplineSet
23 -175 m 1
 23 -151 l 1
 50 -151 80 -150 103 -145 c 0
 115 -142 126 -136 133 -125 c 0
 141 -113 145 -100 148 -86 c 0
 154 -47 156 -7 156 33 c 0
 156 76 157 119 162 162 c 0
 165 189 172 215 189 238 c 0
 203 258 221 269 241 276 c 1
 241 277 l 1
 224 283 199 302 182 328 c 0
 170 348 166 375 163 398 c 0
 157 439 156 480 156 521 c 0
 156 561 156 600 150 639 c 0
 147 654 143 669 135 681 c 1
 129 692 122 698 110 701 c 0
 82 708 52 709 23 709 c 1
 23 733 l 1
 64 733 125 733 146 726 c 0
 160 721 172 712 181 701 c 0
 198 679 203 651 206 623 c 0
 207 613 207 552 207 517 c 0
 207 466 207 401 211 366 c 0
 214 345 217 322 233 308 c 0
 255 289 279 288 318 288 c 1
 318 262 l 1
 300 262 281 262 264 257 c 0
 251 254 239 248 231 239 c 0
 206 211 206 106 206 37 c 0
 206 1 206 -45 203 -69 c 0
 200 -96 196 -125 177 -146 c 0
 167 -157 154 -165 139 -169 c 0
 115 -175 62 -175 23 -175 c 1
EndSplineSet
AlternateSubs2: "'ssty' Script Style lookup 0-1" uni007D.ssty1 uni007D.ssty2
EndChar

StartChar: asciitilde
Encoding: 126 126 1712
Width: 551
Flags: W
HStem: 178 41<415.5 430> 305 42<140 148.5>
VStem: 22 508<240 275>
LayerCount: 2
Fore
SplineSet
281 291 m 2
 355 245 l 2
 377 231 402 219 429 219 c 0
 448 219 461 226 473 236 c 1
 487 246 499 268 509 286 c 1
 530 275 l 1
 519 249 502 223 483 205 c 0
 468 191 442 178 418 178 c 0
 380 178 345 194 313 214 c 2
 214 277 l 2
 190 292 163 305 134 305 c 0
 115 305 99 300 84 287 c 0
 72 276 56 250 44 228 c 1
 22 240 l 1
 34 264 49 289 64 306 c 0
 77 321 92 334 111 340 c 0
 122 344 134 347 146 347 c 0
 165 347 184 341 202 333 c 0
 230 322 256 307 281 291 c 2
EndSplineSet
AlternateSubs2: "'ssty' Script Style lookup 0-1" uni223C.ssty1 uni223C.ssty2
EndChar
StartChar: uni00A7
Encoding: 167 167 446
Width: 515
Flags: MW
HStem: -107 34 669 32
VStem: 109 57<514.5 575> 357 60<51 60.5>
LayerCount: 2
Back
Fore
SplineSet
385 166 m 1
 388 170 l 2
 401 188 406 210 406 232 c 0
 406 261 390 285 370 305 c 0
 349 327 308 345 274 361 c 0
 227 383 153 416 134 442 c 1
 120 424 110 397 110 373 c 0
 110 350 120 328 136 312 c 0
 164 284 206 264 244 246 c 0
 294 223 359 193 385 166 c 1
56 23 m 1
 126 50 l 1
 134 45 l 1
 135 12 144 -21 167 -45 c 0
 188 -66 223 -81 252 -81 c 0
 285 -81 307 -64 330 -41 c 0
 351 -20 357 19 357 48 c 0
 357 73 345 95 327 113 c 0
 307 133 254 157 215 176 c 1
 177 193 133 214 108 239 c 0
 82 265 71 302 71 338 c 0
 71 384 93 426 119 464 c 1
 113 484 109 504 109 525 c 0
 109 572 124 620 158 654 c 0
 190 685 234 701 279 701 c 0
 297 701 316 699 334 695 c 1
 347 691 360 686 370 676 c 0
 385 662 397 643 397 622 c 0
 397 615 393 597 391 585 c 1
 332 564 l 1
 317 575 l 1
 317 590 316 606 312 621 c 0
 309 631 305 642 298 650 c 0
 285 663 267 671 249 671 c 0
 226 671 210 663 191 643 c 0
 172 622 166 589 166 561 c 0
 166 536 174 512 192 494 c 0
 197 488 204 484 211 480 c 0
 240 463 271 448 301 431 c 0
 339 409 383 397 414 366 c 0
 436 344 451 316 451 285 c 0
 451 234 432 186 399 149 c 1
 412 128 417 101 417 75 c 0
 417 27 399 -19 365 -53 c 0
 331 -87 285 -107 237 -107 c 0
 185 -107 131 -97 94 -60 c 0
 72 -38 59 -8 56 23 c 1
EndSplineSet
AlternateSubs2: "'ssty' Script Style lookup 0-1" uni00A7.ssty1 uni00A7.ssty2
EndChar

StartChar: uni00AC
Encoding: 172 172 412
Width: 773
Flags: MW
HStem: 351 50<30 659 30 709>
VStem: 659 50<205 351 351 351>
LayerCount: 2
Fore
SplineSet
709 401 m 1
 709 205 l 1
 659 205 l 1
 659 351 l 1
 30 351 l 1
 30 401 l 1
 709 401 l 1
EndSplineSet
AlternateSubs2: "'ssty' Script Style lookup 0-1" uni00AC.ssty1 uni00AC.ssty2
EndChar
StartChar: plusminus
Encoding: 177 177 1481
Width: 755
Flags: MW
HStem: -74 40<53 356 396 704> 236 40<53 356 396 704>
VStem: 356 40<-34 236 276 580>
LayerCount: 2
Back
Fore
SplineSet
396 276 m 1
 709 276 l 1
 704 236 l 1
 396 236 l 1
 396 -34 l 1
 710 -34 l 1
 704 -74 l 1
 46 -74 l 5
 53 -34 l 1
 356 -34 l 1
 356 236 l 1
 46 236 l 1
 53 276 l 1
 356 276 l 1
 356 580 l 1
 396 586 l 1
 396 276 l 1
EndSplineSet
AlternateSubs2: "'ssty' Script Style lookup 0-1" plusminus.ssty1 plusminus.ssty2
Colour: ff00
EndChar
StartChar: uni00D7
Encoding: 215 215 1719
Width: 755
Flags: W
HStem: 226.655 56.5684<348.155 404.724>
VStem: 348.155 56.5684<226.655 283.224>
DStem2: 157.236 502.427 133.194 469.899 0.707108 -0.707106<6.00001 310 350 653> 133.901 40.6855 157.236 7.45215 0.707107 0.707107<0 303.001 343.001 651.001>
LayerCount: 2
Back
Fore
SplineSet
376.439 283.224 m 1
 597.764 504.548 l 1
 622.513 472.729 l 1
 404.724 254.939 l 1
 618.977 40.6855 l 1
 595.643 7.45215 l 1
 376.439 226.655 l 1
 157.236 7.45215 l 1
 133.901 40.6855 l 1
 348.155 254.939 l 1
 133.194 469.899 l 1
 157.236 502.427 l 1
 376.439 283.224 l 1
EndSplineSet
AlternateSubs2: "'ssty' Script Style lookup 0-1" uni00D7.ssty1 uni00D7.ssty2
Colour: ff00
EndChar

StartChar: uni0131
Encoding: 305 305 409
Width: 333
Flags: MW
HStem: -11 71 409 59
VStem: 121 74
LayerCount: 2
Fore
SplineSet
200 392 m 2
 192 182 l 1
 192 141 196 105 204 87 c 0
 210 74 222 65 236 65 c 0
 250 65 266 68 278 74 c 0
 296 84 312 96 328 110 c 1
 341 100 l 1
 341 89 l 1
 321 62 299 39 272 19 c 1
 250 5 226 -8 200 -8 c 0
 176 -8 153 -1 136 20 c 0
 122 38 120 60 120 104 c 1
 126 325 l 2
 126 355 122 381 115 395 c 0
 110 405 101 410 91 410 c 0
 69 410 35 393 11 378 c 1
 -2 396 l 1
 22 415 55 438 79 450 c 0
 97 459 119 471 138 471 c 0
 152 471 172 469 184 453 c 1
 198 437 200 413 200 392 c 2
EndSplineSet
AlternateSubs2: "'ssty' Script Style lookup 0-1" uni0131.ssty1 uni0131.ssty2
EndChar
StartChar: uni0237
Encoding: 567 567 1393
Width: 331
Flags: W
HStem: -191 21 408 60<95 162.5>
VStem: 149 72
LayerCount: 2
Back
Fore
SplineSet
27 375 m 1
 14 393 l 1
 41 414 68 433 98 449 c 0
 116 458 135 468 155 468 c 0
 170 468 186 465 196 455 c 0
 211 441 214 421 216 401 c 1
 223 358 223 191 223 154 c 0
 223 134 223 -6 211 -41 c 0
 198 -79 175 -112 148 -141 c 0
 115 -176 61 -209 15 -231 c 1
 -1 -215 l 1
 73 -171 113 -126 127 -76 c 0
 144 -14 147 110 147 154 c 0
 147 252 147 318 144 355 c 0
 142 375 135 390 131 394 c 0
 120 408 114 408 103 408 c 0
 87 408 52 388 27 375 c 1
EndSplineSet
AlternateSubs2: "'ssty' Script Style lookup 0-1" uni0237.ssty1 uni0237.ssty2
EndChar

StartChar: gravecomb
Encoding: 768 768 1760
Width: 0
Flags: W
TopAccentHorizontal: -273
HStem: 506 171
VStem: -385 201
LayerCount: 2
Fore
SplineSet
-184 532 m 1
 -201 506 l 1
 -345 596 l 2
 -378 617 -385 625 -385 643 c 0
 -385 662 -371 677 -354 677 c 0
 -339 677 -321.289 665.708 -299 644 c 2
 -184 532 l 1
EndSplineSet
Colour: ff0000
EndChar
StartChar: acutecomb
Encoding: 769 769 1761
Width: 0
Flags: W
TopAccentHorizontal: -226
LayerCount: 2
Back
Fore
SplineSet
-315 532 m 1
 -298 506 l 1
 -154 596 l 2
 -121 617 -114 625 -114 643 c 0
 -114 662 -128 677 -145 677 c 0
 -160 677 -177.711 665.708 -200 644 c 2
 -315 532 l 1
EndSplineSet
Colour: ff0000
EndChar
StartChar: tildecomb
Encoding: 771 771 1686
Width: 0
Flags: W
TopAccentHorizontal: -248
HStem: 540 55<-190.435 -164.5>
VStem: -409 321.5<553.5 627>
LayerCount: 2
Back
Fore
SplineSet
-308 640 m 0
 -255.373 637.23 -208.869 595 -172 595 c 0
 -144 595 -132 609 -111.5 640.5 c 1
 -87.5 627 l 1
 -108 584 -136 540 -193 540 c 0
 -248.466 540 -294.5 585 -332 585 c 0
 -356 585 -370.5 565 -385 540 c 1
 -409 553.5 l 1
 -377 620 -346 642 -308 640 c 0
EndSplineSet
Colour: ff0000
EndChar

StartChar: uni0304
Encoding: 772 772 1687
Width: 0
Flags: W
TopAccentHorizontal: -249
HStem: 566 53<-405 -93 -405 -93>
VStem: -405 312<566 619 566 619>
LayerCount: 2
Fore
SplineSet
-93 566 m 1
 -405 566 l 1
 -405 619 l 1
 -93 619 l 1
 -93 566 l 1
EndSplineSet
Colour: ff0000
EndChar
StartChar: uni0305
Encoding: 773 773 1688
Width: 0
Flags: W
TopAccentHorizontal: -249
HStem: 570 45<-445 -53>
LayerCount: 2
Back
Fore
SplineSet
-53 570 m 5
 -445 570 l 5
 -445 615 l 1
 -53 615 l 1
 -53 570 l 5
EndSplineSet
Colour: ff0000
EndChar
StartChar: uni0306
Encoding: 774 774 1689
Width: 0
Flags: W
TopAccentHorizontal: -249
HStem: 513 60<-275.56 -224.04>
VStem: -390 30<671 671> -138 30<671 671>
LayerCount: 2
Back
Fore
SplineSet
-108 671 m 1
 -114.101 536.773 -199.08 513 -249 513 c 0
 -302.119 513 -383.503 537.815 -390 671 c 1
 -360 671 l 1
 -357 614 -311 573 -249 573 c 0
 -187 573 -141 614 -138 671 c 1
 -108 671 l 1
EndSplineSet
Colour: ff0000
EndChar
StartChar: uni0307
Encoding: 775 775 1690
Width: 0
Flags: W
TopAccentHorizontal: -250
HStem: 542 100<-264.5 -235>
VStem: -300 100<577 606.5 577 607>
LayerCount: 2
Back
Fore
SplineSet
-200 592 m 0
 -200 562 -220 542 -250 542 c 0
 -280 542 -300 562 -300 592 c 0
 -300 622 -280 642 -249 642 c 0
 -220 642 -200 621 -200 592 c 0
EndSplineSet
Colour: ff0000
EndChar

StartChar: uni030A
Encoding: 778 778 1692
Width: 0
Flags: W
TopAccentHorizontal: -249
HStem: 492 36<-268 -230.5 -268 -221.5> 656 36<-267 -230>
VStem: -349 38<573 612 573 620.5> -187 38<573 611>
LayerCount: 2
Fore
SplineSet
-149 592 m 0
 -149 536 -194 492 -249 492 c 0
 -305 492 -349 536 -349 593 c 0
 -349 648 -304 692 -247 692 c 0
 -194 692 -149 647 -149 592 c 0
-187 592 m 0
 -187 630 -212 656 -248 656 c 0
 -286 656 -311 631 -311 593 c 0
 -311 553 -287 528 -249 528 c 0
 -212 528 -187 554 -187 592 c 0
EndSplineSet
Colour: ff0000
EndChar
StartChar: uni030B
Encoding: 779 779 1762
Width: 0
Flags: W
TopAccentHorizontal: -185
HStem: 502 181
LayerCount: 2
Back
Fore
SplineSet
-327 502 m 1
 -345.587 526.76 l 1
 -239 650 l 2
 -222 670 -200 683 -184 683 c 0
 -167 683 -153 668 -153 650 c 0
 -153 634 -163 621 -192 600 c 2
 -327 502 l 1
-177 502 m 1
 -195.577 526.77 l 1
 -89 650 l 2
 -72 670 -50 683 -34 683 c 0
 -17 683 -3 668 -3 650 c 0
 -3 634 -13 621 -42 600 c 2
 -177 502 l 1
EndSplineSet
Colour: ff0000
EndChar
StartChar: uni030F
Encoding: 783 783 1763
Width: 0
Flags: W
TopAccentHorizontal: -315
LayerCount: 2
Back
Fore
SplineSet
-173 502 m 1
 -154.413 526.76 l 1
 -261 650 l 2
 -278 670 -300 683 -316 683 c 0
 -333 683 -347 668 -347 650 c 0
 -347 634 -337 621 -308 600 c 2
 -173 502 l 1
-323 502 m 1
 -304.423 526.77 l 1
 -411 650 l 2
 -428 670 -450 683 -466 683 c 0
 -483 683 -497 668 -497 650 c 0
 -497 634 -487 621 -458 600 c 2
 -323 502 l 1
EndSplineSet
Colour: ff0000
EndChar
StartChar: uni0311
Encoding: 785 785 1693
Width: 0
Flags: W
TopAccentHorizontal: -249
HStem: 611 60<-274.5 -222 -274.5 -218>
VStem: -390 30<513 513> -138 30<513 513>
LayerCount: 2
Back
Fore
SplineSet
-108 513 m 1
 -138 513 l 1
 -141 570 -187 611 -249 611 c 0
 -311 611 -357 570 -360 513 c 1
 -390 513 l 1
 -388 557 -382 579 -366 606 c 0
 -342 648 -300 671 -249 671 c 0
 -195 671 -152 646 -128 600 c 0
 -115 574 -110 554 -108 513 c 1
EndSplineSet
Colour: ff0000
EndChar
StartChar: uni032E
Encoding: 814 814 1697
Width: 0
Flags: W
TopAccentHorizontal: -236
HStem: -207 49<-269.5 -202 -269.5 -192>
VStem: -388 32<-78 -78> -116 33<-78 -78>
LayerCount: 2
Back
Fore
SplineSet
-83 -78 m 1
 -89 -162 -148 -207 -236 -207 c 0
 -324 -207 -383 -162 -388 -78 c 1
 -356 -78 l 1
 -352 -125 -303 -158 -236 -158 c 0
 -168 -158 -119 -125 -116 -78 c 1
 -83 -78 l 1
EndSplineSet
Colour: ff0000
EndChar

StartChar: uni032F
Encoding: 815 815 1698
Width: 0
Flags: W
TopAccentHorizontal: -236
HStem: -207 21G<-388 -355 -388 -388 -115 -83 -115 -115> -127 49<-269 -201.5>
VStem: -388 33<-207 -207> -115 32<-207 -207>
LayerCount: 2
Fore
SplineSet
-83 -207 m 1
 -115 -207 l 1
 -119 -160 -168 -127 -235 -127 c 0
 -303 -127 -352 -160 -355 -207 c 1
 -388 -207 l 1
 -382 -123 -323 -78 -235 -78 c 0
 -147 -78 -88 -123 -83 -207 c 1
EndSplineSet
Colour: ff0000
EndChar

StartChar: uni0332
Encoding: 818 818 1701
Width: 0
Flags: W
TopAccentHorizontal: -249
HStem: -165 45<-445 -53>
LayerCount: 2
Fore
SplineSet
-53 -165 m 1
 -445 -165 l 1
 -445 -120 l 1
 -53 -120 l 1
 -53 -165 l 1
EndSplineSet
Colour: ff0000
EndChar

StartChar: uni0393
Encoding: 915 915 308
Width: 428
Flags: MW
ItalicCorrection: 111
HStem: -7 21<119 119> 650 43
VStem: 116 80 480 28
LayerCount: 2
Back
SplineSet
496 697 m 1
 509 521 l 1
 484 522 l 1
 459 604 l 2
 452 629 426 639 402 643 c 0
 345 653 287 653 229 650 c 0
 216 649 207 642 202 631 c 0
 194 615 193 566 193 549 c 0
 193 372 193 194 196 16 c 1
 119 -7 l 1
 109 4 l 1
 112 187 116 461 116 553 c 0
 116 573 116 594 114 615 c 0
 113 628 110 642 100 651 c 2
 74 673 l 1
 77 693 l 1
 314 693 l 2
 375 693 436 694 496 697 c 1
EndSplineSet
Fore
SplineSet
496 697 m 1
 507 552 l 1
 480 552 l 1
 461 604 l 2
 452.089 628.389 427 640 403 644 c 0
 346 654 287 653 229 650 c 0
 216 649 207 642 202 631 c 0
 194 615 193 566 193 549 c 0
 193 372 193 194 196 16 c 1
 119 -7 l 1
 109 4 l 1
 112 187 116 461 116 553 c 0
 116 573 116 594 114 615 c 0
 113 628 110 642 100 651 c 2
 74 673 l 1
 77 693 l 1
 314 693 l 2
 375 693 436 694 496 697 c 1
EndSplineSet
AlternateSubs2: "'ssty' Script Style lookup 0-1" uni0393.ssty1 uni0393.ssty2
EndChar

StartChar: Epsilon
Encoding: 917 917 1398
Width: 604
Flags: W
HStem: 0 59 336 56 631 59
VStem: 134 75
LayerCount: 2
Back
SplineSet
456 336 m 5
 417 339 377 342 338 342 c 4
 300 342 237 340 219 339 c 4
 212 338 209 334 209 327 c 6
 209 188 l 6
 209 150 210 101 224 76 c 4
 230 64 242 56 254 50 c 4
 266 45 292 44 320 44 c 4
 367 44 390 44 554 58 c 5
 559 53 l 5
 546 0 l 5
 158 0 l 5
 149 5 143 15 138 25 c 4
 133 37 132 52 132 66 c 6
 132 558 l 6
 132 572 132 602 123 622 c 4
 121 628 113 633 106 638 c 4
 98 644 68 651 47 654 c 5
 46 674 l 5
 53 681 l 5
 201 682 l 6
 271 682 372 688 443 688 c 4
 461 688 476 688 489 687 c 5
 487 637 l 5
 483 630 l 5
 414 634 281 640 274 640 c 6
 234 640 l 5
 229 639 224 636 221 631 c 4
 213 619 210 587 210 564 c 6
 210 398 l 6
 210 391 213 387 220 386 c 4
 259 383 379 385 456 391 c 5
 462 384 l 5
 456 336 l 5
EndSplineSet
Fore
Refer: 361 69 N 1 0 0 1 0 0 2
AlternateSubs2: "'ssty' Script Style lookup 0-1" uni0045.ssty1 uni0045.ssty2
EndChar
StartChar: Zeta
Encoding: 918 918 1399
Width: 666
Flags: W
HStem: -13 78 631 64
VStem: 46 594<21 59>
LayerCount: 2
Back
SplineSet
595 664 m 1
 460 471 286 200 196 61 c 1
 202 54 l 1
 631 68 l 1
 640 59 l 1
 622 -12 l 1
 493 0 239 0 47 0 c 1
 46 21 l 1
 470 627 l 1
 463 637 l 1
 276 637 174 631 147 628 c 1
 141 633 l 1
 141 687 l 1
 150 695 l 1
 298 686 446 683 595 683 c 1
 595 664 l 1
EndSplineSet
Fore
SplineSet
595 664 m 1
 460 471 286 200 196 61 c 1
 202 54 l 1
 631 68 l 1
 640 59 l 1
 622 -12 l 1
 493 0 239 0 47 0 c 1
 46 21 l 1
 470 627 l 1
 463 637 l 1
 276 637 154 631.6 127 628 c 1
 121 634 l 1
 121 686 l 1
 130 694 l 1
 278 686.6 446 683 595 683 c 1
 595 664 l 1
EndSplineSet
AlternateSubs2: "'ssty' Script Style lookup 0-1" uni005A.ssty1 uni005A.ssty2
EndChar

StartChar: uni0398
Encoding: 920 920 310
Width: 757
Flags: MW
TopAccentHorizontal: 406
HStem: -12 43<349 389> 326 60 663 38<347 403>
VStem: 29 93<298 370.5 298 379> 207 28 518 31<291.5 306> 632 93
LayerCount: 2
Back
SplineSet
208 349 m 1
 205 457 l 1
 230 457 l 1
 230 438 234 419 234 400 c 0
 234 389 248 388 256 387 c 0
 300 384 353 384 401 384 c 0
 436 384 474 384 506 386 c 0
 517 387 523 397 523 406 c 2
 521 457 l 1
 551 457 l 1
 549 351 l 1
 549 243 l 1
 519 244 l 1
 521 263 518 282 518 301 c 0
 518 311 512 322 501 322 c 0
 466 323 432 326 397 326 c 0
 357 326 306 324 260 322 c 0
 250 322 235 320 235 306 c 2
 235 240 l 1
 206 241 l 1
 208 349 l 1
336 -12 m 0
 260 -12 181 5 126 59 c 1
 55 131 29 232 29 331 c 0
 29 427 31 469 74 543 c 0
 132 643 271 701 423 701 c 0
 503 701 585 681 643 624 c 1
 706 560 726 469 726 381 c 0
 726 323 719 265 701 211 c 0
 686 165 663 122 629 88 c 0
 553 12 442 -12 336 -12 c 0
379 31 m 0
 464 31 517 58 567 108 c 0
 594 135 607 172 615 209 c 1
 629 264 632 320 632 377 c 0
 632 457 612 539 555 596 c 0
 506 645 437 663 369 663 c 0
 290 663 232 632 192 590 c 0
 170 567 150 532 139 495 c 0
 125 447 122 396 122 345 c 0
 122 251 149 157 216 90 c 0
 259 47 319 31 379 31 c 0
EndSplineSet
Fore
SplineSet
208.221 350.223 m 1
 206.889 393.777 l 1
 219.556 390.444 241.556 387.556 249.109 387.112 c 0
 293.136 384.529 353 384 401 384 c 0
 436 384 474 384 506 386 c 0
 517 387 529.111 388.444 549.334 393.111 c 1
 549.111 352 l 1
 549.11 313.778 l 1
 533.778 318.667 512 322 501 322 c 0
 466 323 432 326 397 326 c 0
 357 326 306 324 260 322 c 0
 250 322 233.778 321.333 207.777 316 c 1
 208.221 350.223 l 1
336.287 -12 m 0
 262.643 -12 186.092 5 132.797 59 c 1
 63.9971 131 37.8037 232 37.8037 331 c 0
 37.8037 427 40.7422 469 82.4082 543 c 0
 138.611 643 273.302 701 420.589 701 c 0
 498.109 701 577.567 681 633.77 624 c 1
 694.816 560 714.196 469 714.196 381 c 0
 714.196 323 707.413 265 689.972 211 c 0
 675.437 165 653.149 122 620.203 88 c 0
 546.559 12 439.001 -12 336.287 -12 c 0
377.925 31 m 0
 458.675 31 509.025 58 556.525 108 c 0
 582.175 135 596.66 170.839 605.125 207 c 0
 618 262 619.275 320 619.275 377 c 0
 619.275 457 599.275 539 545.125 596 c 0
 498.575 645 433.025 663 368.425 663 c 0
 293.375 663 238.275 632 200.275 590 c 0
 179.375 567 160.375 532 149.925 495 c 0
 136.625 447 133.775 396 133.775 345 c 0
 133.775 251 158.425 157 222.075 90 c 0
 262.925 47 320.925 31 377.925 31 c 0
EndSplineSet
AlternateSubs2: "'ssty' Script Style lookup 0-1" uni0398.ssty1 uni0398.ssty2
EndChar

StartChar: uni039B
Encoding: 923 923 311
Width: 770
Flags: MW
TopAccentHorizontal: 413
HStem: -7 59 678 20<459 459>
VStem: 28 743<4 55>
LayerCount: 2
Fore
SplineSet
393 673 m 1
 459 698 l 1
 513 483 577 271 672 71 c 0
 678 59 691 52 704 52 c 2
 771 55 l 1
 770 33 l 1
 718 17 666 3 613 -7 c 1
 590 1 l 1
 522 187 463 377 400 565 c 1
 388 565 l 1
 293 377 147 83 119 17 c 1
 94 7 68 -2 41 -6 c 1
 28 4 l 1
 155 224 278 446 393 673 c 1
EndSplineSet
AlternateSubs2: "'ssty' Script Style lookup 0-1" uni039B.ssty1 uni039B.ssty2
EndChar

StartChar: Omicron
Encoding: 927 927 1405
Width: 803
Flags: W
TopAccentHorizontal: 429
HStem: -18 41<384.5 429.5> 660 40<387.5 428.5>
VStem: 72 93<301 373 301 382.5> 632 94<331.5 384>
LayerCount: 2
Fore
SplineSet
364.287 -12 m 0
 290.643 -12 214.092 5 160.797 59 c 1
 91.9971 131 65.8037 232 65.8037 331 c 0
 65.8037 427 68.7422 469 110.408 543 c 0
 166.611 643 301.302 701 448.589 701 c 0
 526.109 701 605.567 681 661.77 624 c 1
 722.816 560 742.196 469 742.196 381 c 0
 742.196 323 735.413 265 717.972 211 c 0
 703.437 165 681.149 122 648.203 88 c 0
 574.559 12 467.001 -12 364.287 -12 c 0
405.925 31 m 0
 486.675 31 537.025 58 584.525 108 c 0
 610.175 135 624.66 170.839 633.125 207 c 0
 646 262 647.275 320 647.275 377 c 0
 647.275 457 627.275 539 573.125 596 c 0
 526.575 645 461.025 663 396.425 663 c 0
 321.375 663 266.275 632 228.275 590 c 0
 207.375 567 188.375 532 177.925 495 c 0
 164.625 447 161.775 396 161.775 345 c 0
 161.775 251 186.425 157 250.075 90 c 0
 290.925 47 348.925 31 405.925 31 c 0
EndSplineSet
AlternateSubs2: "'ssty' Script Style lookup 0-1" uni004F.ssty1 uni004F.ssty2
EndChar

StartChar: uni03A0
Encoding: 928 928 313
Width: 722
Flags: MW
TopAccentHorizontal: 389
HStem: -14 21<529 529> 640 48
VStem: 111 84 518 82
LayerCount: 2
Fore
SplineSet
693 658 m 1
 617 641 l 2
 612 640 608 638 604 635 c 1
 601 631 600 621 600 614 c 0
 597 584 597 480 597 412 c 0
 597 277 599 143 609 8 c 1
 529 -14 l 1
 515 -3 l 1
 518 95 518 192 518 290 c 0
 518 398 517 519 516 627 c 0
 516 630 515 633 513 635 c 0
 510 639 504 640 503 640 c 2
 214 640 l 2
 213 640 207 640 204 636 c 0
 201 633 200 627 200 626 c 0
 193 525 193 424 193 322 c 0
 193 240 196 118 198 15 c 1
 113 -4 l 1
 106 2 l 1
 111 106 114 210 114 314 c 0
 114 387 115 461 114 534 c 0
 114 560 113 585 108 611 c 0
 107 618 105 628 101 632 c 0
 97 636 90 639 84 642 c 0
 82 642 46 654 26 660 c 1
 26 690 l 1
 101 685 176 681 251 681 c 2
 449 681 l 2
 493 681 612 684 693 686 c 1
 693 658 l 1
EndSplineSet
AlternateSubs2: "'ssty' Script Style lookup 0-1" uni03A0.ssty1 uni03A0.ssty2
EndChar
StartChar: uni03A3
Encoding: 931 931 314
Width: 646
Flags: MW
HStem: 4 90 633 62
VStem: 49 551<2 94>
LayerCount: 2
Back
Fore
SplineSet
340 362 m 2
 165 106 l 1
 170 96 l 1
 259 94 347 94 436 94 c 0
 501.197 94 543.84 99.2266 554 102.4 c 0
 560.4 104.399 564.812 108.251 566.398 113.197 c 0
 571.174 123.783 578 154 582 180 c 1
 600 180 l 1
 595 5 l 1
 506 8 408 9 319 9 c 0
 229 9 139 2 49 2 c 1
 49 3 54 30 58 49 c 1
 221 265 l 2
 240 291 265 325 275 350 c 1
 267 372 253 396 239 416 c 2
 87 641 l 1
 155 688 l 1
 293 685 431 688 569 695 c 1
 573 684 l 1
 551 631 l 1
 220 635 l 1
 209 622 l 1
 346 400 l 2
 349 395 351 390 351 384 c 0
 351 378 344 369 340 362 c 2
EndSplineSet
AlternateSubs2: "'ssty' Script Style lookup 0-1" uni03A3.ssty1 uni03A3.ssty2
EndChar
StartChar: uni03A5
Encoding: 933 933 315
Width: 716
Flags: MW
TopAccentHorizontal: 386
HStem: -11 21<318 318> 626 76
VStem: 20 23 302 83 662 23
LayerCount: 2
Back
SplineSet
685 546 m 1
 663 543 l 1
 659 569 652 585 634 604 c 1
 622 615 603 618 587 618 c 0
 559 618 534 607 514 587 c 0
 450 523 412 440 395 351 c 0
 385 299 385 134 385 25 c 1
 318 -11 l 1
 301 -4 l 1
 305 71 305 146 305 221 c 0
 305 297 298 373 278 446 c 0
 263 499 241 552 202 591 c 0
 181 612 155 625 125 625 c 0
 107 625 88 622 75 608 c 0
 58 591 46 571 39 548 c 1
 20 555 l 1
 28 599 39 637 71 669 c 0
 93 691 125 697 155 697 c 0
 193 697 228 682 254 656 c 0
 283 627 299 595 311 556 c 0
 330 497 340 436 346 375 c 1
 355 375 l 1
 365 432 379 489 401 543 c 0
 417 584 438 623 470 654 c 1
 498 683 538 697 579 697 c 0
 605 697 632 688 651 669 c 0
 664 656 671 639 676 621 c 0
 683 597 685 572 685 546 c 1
EndSplineSet
Fore
SplineSet
681.777 593.11 m 1
 666.445 587.11 l 1
 662.893 591.111 651.777 599.999 644.892 604.222 c 1
 629.333 613.11 603 618 587 618 c 0
 559 618 534 607 514 587 c 0
 450 523 412 440 395 351 c 0
 385 299 385 134 385 25 c 1
 318 -11 l 1
 301 -4 l 1
 305 71 305 146 305 221 c 0
 305 297 298 373 278 446 c 0
 263 499 241 552 202 591 c 0
 181 612 155 625 125 625 c 0
 107 625 91.5557 621.557 77.5557 612.891 c 0
 57.1143 600.236 50.6667 587.333 44.6699 573.999 c 1
 26.667 581.332 l 1
 36 620.222 45.5556 641.556 71 669 c 1
 93 691 125 697 155 697 c 0
 193 697 228 682 254 656 c 0
 283 627 299 595 311 556 c 0
 330 497 340 436 346 375 c 1
 355 375 l 1
 365 432 379 489 401 543 c 0
 417 584 438 623 470 654 c 1
 498 683 538 697 579 697 c 0
 605 697 632 688 651 669 c 0
 664 656 670.601 638.884 676 621 c 0
 677.778 615.111 679.333 607.552 681.777 593.11 c 1
EndSplineSet
AlternateSubs2: "'ssty' Script Style lookup 0-1" uni03A5.ssty1 uni03A5.ssty2
EndChar

StartChar: uni03A6
Encoding: 934 934 316
Width: 833
Flags: MW
HStem: 86 28<358 358> 573 28<357 358> 657 27<279 279>
VStem: 73 92<311.5 364.5> 365 86<80 80 80 122 122 565 608 620 620 621> 656 92<335.5 368.5>
LayerCount: 2
Back
SplineSet
451.001 80 m 5
 450.819 62.1816 453.183 9.4541 455 -11 c 5
 359.501 -33 l 5
 355.001 -25.0908 l 5
 355.995 -18.4629 364.001 67.8184 364.001 80 c 5
366 396 m 2
 366 496 366 616 360 698 c 1
 456 721 l 1
 460 713 l 1
 453 638 447 564 447 489 c 0
EndSplineSet
Fore
SplineSet
362.001 699 m 1
 453.5 721 l 1
 458 713.091 l 1
 457.006 706.463 449 620.182 449 608 c 1
 456 601 l 1
 503 601 551 595 597 582 c 0
 633 571 669 554 696 527 c 0
 736 487 748 429 748 373 c 0
 748 298 728 221 675 168 c 0
 649 142 616 124 581 113 c 0
 541 100 498 88 457 86 c 1
 449 80 l 1
 449 46 450 27.333 452.667 -11.001 c 1
 361.669 -32.666 l 1
 357.001 -24.335 l 1
 365 80 l 1
 358 86 l 1
 276 87 192 107 134 166 c 1
 90 209 73 271 73 332 c 0
 73 397 90 464 137 512 c 0
 195 570 277 599 359 601 c 1
 366 608 l 1
 366 626 363.6 678.8 362.001 699 c 1
449 565 m 1
 449 122 l 1
 455 114 l 1
 506 115 558 133 595 170 c 0
 643 218 656 286 656 352 c 0
 656 385 654 419 645 451 c 0
 639 474 630 497 613 514 c 0
 571 556 513 572 456 573 c 1
 449 565 l 1
367 121 m 1
 367 565 l 1
 360 573 l 1
 309 571 258 547 222 511 c 0
 179 468 165 407 165 347 c 0
 165 276 192 208 242 158 c 0
 272 128 318 115 360 114 c 1
 367 121 l 1
EndSplineSet
AlternateSubs2: "'ssty' Script Style lookup 0-1" uni03A6.ssty1 uni03A6.ssty2
EndChar
StartChar: uni03A8
Encoding: 936 936 317
Width: 703
Flags: MW
TopAccentHorizontal: 379
HStem: -1 31 248 27<308 326> 634 60
VStem: 83 75 335 75 579 75
LayerCount: 2
Back
Fore
SplineSet
409 244 m 1
 411 86 l 2
 412 65 421 42 444 38 c 2
 502 26 l 1
 501 -1 l 1
 235 -1 l 1
 235 26 l 1
 303 38 l 2
 325 42 332 78 332 87 c 2
 332 242 l 1
 326 248 l 1
 290 248 255 252 221 261 c 0
 194 269 168 279 149 299 c 1
 129 318 120 345 113 372 c 0
 101 413 95 456 92 499 c 0
 89 532 84 587 82 598 c 0
 80 611 78 624 69 633 c 0
 62 640 52 645 42 644 c 2
 -21 634 l 1
 -28 656 l 1
 80 692 l 2
 83 694 103 694 115 694 c 0
 127 694 137 685 146 676 c 0
 158 664 158 623 158 595 c 0
 158 537 162 479 175 422 c 1
 185 384 198 346 226 318 c 0
 252 292 288 277 326 275 c 1
 332 282 l 1
 332 365 l 6
 332 465 332 585 326 667 c 5
 412 690 l 5
 416 682 l 5
 409 607 403 533 403 458 c 4
 403 399 404 340 406 282 c 1
 413 276 l 1
 450 278 484 299 510 325 c 0
 528 343 536 369 544 394 c 0
 558 436 566 479 572 523 c 0
 579 567 579 612 591 655 c 1
 625 667 660 675 695 679 c 1
 698 661 l 1
 674 646 663 617 656 590 c 0
 651 572 643 522 637 488 c 0
 631 448 623 408 609 370 c 0
 601 346 592 322 574 304 c 0
 532 262 473 252 415 251 c 1
 409 244 l 1
EndSplineSet
AlternateSubs2: "'ssty' Script Style lookup 0-1" uni03A8.ssty1 uni03A8.ssty2
EndChar
StartChar: Omega
Encoding: 937 937 1394
Width: 875
Flags: W
HStem: -2 67 651 38
VStem: 98 88<316.5 355 288.5 385.5> 679 90<344 410>
LayerCount: 2
Back
Fore
SplineSet
835 60 m 1
 844 51 l 1
 819 -2 l 1
 704 7 588 7 473 -1 c 1
 482 57 l 1
 529 68 572 93 606 127 c 0
 633 153 649 188 660 224 c 0
 674 271 679 320 679 368 c 0
 679 452 657 537 597 597 c 0
 557 637 500 654 444 654 c 0
 382 654 318 637 274 592 c 1
 243 562 223 523 209 482 c 0
 193 433 186 381 186 329 c 0
 186 248 207 165 265 106 c 0
 294 77 334 61 375 53 c 1
 354 -2 l 1
 244 8 135 12 25 4 c 1
 42 65 l 1
 103 62 179 59 232 54 c 1
 238 69 l 1
 212 83 188 99 167 120 c 0
 143 145 127 176 116 210 c 0
 103 251 98 295 98 338 c 0
 98 433 126 528 194 595 c 1
 264 666 365 689 463 689 c 0
 507 689 552 684 594 670 c 0
 629 658 662 641 688 615 c 0
 748 555 769 469 769 385 c 0
 769 292 746 196 679 129 c 0
 650 101 621 78 584 63 c 1
 584 51 l 1
 669 55 765 60 835 60 c 1
EndSplineSet
AlternateSubs2: "'ssty' Script Style lookup 0-1" uni2126.ssty1 uni2126.ssty2
EndChar

StartChar: uni03B1
Encoding: 945 945 319
Width: 658
Flags: MW
HStem: -16 66 411 57<254 330>
VStem: 84 66<191.5 211.5>
LayerCount: 2
Fore
SplineSet
403 212 m 1
 386 268 359 354 334 379 c 0
 316 398 292 411 266 411 c 0
 242 411 219 400 202 383 c 0
 183 364 171 340 163 315 c 0
 153 283 150 249 150 216 c 0
 150 167 157 116 192 81 c 0
 204 69 220 62 236 62 c 0
 249 62 261 67 273 73 c 0
 289 82 307 96 320 108 c 1
 345 134 376 174 403 212 c 1
558 468 m 1
 609 445 l 1
 563 376 471 238 471 237 c 0
 481 199 493 161 508 125 c 1
 518 104 527 81 544 64 c 0
 551 57 559 50 569 50 c 0
 594 50 629 75 656 96 c 1
 666 95 l 1
 673 76 l 1
 639 49 590 13 570 -1 c 0
 556 -10 540 -20 522 -20 c 0
 509 -20 496 -15 486 -5 c 0
 478 3 471 12 468 24 c 1
 422 158 l 1
 411 160 l 1
 346 82 l 2
 341 76 334 68 328 62 c 0
 307 41 283 21 257 7 c 0
 236 -4 214 -12 190 -12 c 0
 169 -12 150 -3 136 12 c 0
 95 53 84 112 84 169 c 0
 84 254 107 340 168 401 c 0
 208 441 260 468 316 468 c 0
 344 468 370 458 389 439 c 0
 405 423 417 403 426 383 c 0
 440 355 448 331 454 308 c 1
 464 307 l 1
 558 468 l 1
EndSplineSet
AlternateSubs2: "'ssty' Script Style lookup 0-1" uni03B1.ssty1 uni03B1.ssty2
EndChar

StartChar: uni03B2
Encoding: 946 946 320
Width: 662
Flags: MW
HStem: -202 21<125 125> -15 36<354 358> 350 36<256 283> 649 49
VStem: 113 80 484 85<174 215.5>
LayerCount: 2
Fore
SplineSet
381 380 m 1
 430 378 485 366 515 335 c 0
 549 300 569 250 569 202 c 0
 569 146 548 91 508 51 c 0
 460 3 392 -15 324 -15 c 0
 294 -15 265 -6 244 15 c 0
 238 21 234 27 230 34 c 1
 279 103 l 1
 292 97 l 1
 290 77 297 58 311 44 c 0
 325 30 344 21 364 21 c 0
 393 21 418 37 437 56 c 0
 473 92 484 144 484 194 c 0
 484 237 471 281 441 312 c 0
 409 344 363 352 319 352 c 0
 298 352 277 352 256 350 c 1
 258 386 l 1
 308 386 357 401 392 436 c 0
 420 463 427 502 427 540 c 0
 427 596 386 651 326 651 c 0
 297 651 266 642 245 621 c 0
 224 600 215 572 208 545 c 0
 198 503 194 460 193 416 c 0
 192 385 192 278 192 208 c 0
 192 82 194 -44 201 -169 c 1
 125 -202 l 1
 113 -187 l 1
 118 3 114 194 122 384 c 0
 124 435 132 513 154 560 c 0
 171 596 184 614 213 642 c 0
 252 679 306 698 369 698 c 0
 444 698 505 638 505 563 c 0
 505 516 484 473 451 440 c 0
 431 419 408 402 382 392 c 1
 381 380 l 1
EndSplineSet
AlternateSubs2: "'ssty' Script Style lookup 0-1" uni03B2.ssty1 uni03B2.ssty2
EndChar
StartChar: uni03B3
Encoding: 947 947 321
Width: 608
Flags: MW
HStem: -198 21<278 278> 411 58
VStem: -25 607<358 443>
LayerCount: 2
Back
Fore
SplineSet
522 470 m 1
 582 443 l 1
 502 312 412 188 337 54 c 1
 320 11 l 1
 321 -49 318 -112 312 -172 c 1
 278 -198 l 1
 257 -191 239 -179 222 -165 c 1
 275 0 l 1
 275 39 244 300 171 372 c 0
 152 390 127 403 101 403 c 0
 73 403 36 396 14 373 c 1
 -9 346 l 1
 -25 358 l 1
 -10 381 5 405 23 423 c 0
 55 455 99 469 144 469 c 0
 175 469 206 457 229 434 c 0
 263 400 281 353 294 306 c 0
 311 241 318 160 317 92 c 1
 325 90 l 1
 390 210 472 370 509 465 c 1
 522 470 l 1
EndSplineSet
AlternateSubs2: "'ssty' Script Style lookup 0-1" uni03B3.ssty1 uni03B3.ssty2
EndChar

StartChar: uni03B4
Encoding: 948 948 322
Width: 501
Flags: MW
HStem: -9 53<187 269> 646 48<218.5 317.5>
VStem: 56 77<134 250> 374 64<216 226>
LayerCount: 2
Fore
SplineSet
384 687 m 1
 389 679 l 1
 374 637 l 1
 339 639 301 646 235 646 c 0
 202 646 170 637 170 605 c 0
 170 591 180 579 189 569 c 0
 193 564 246 514 275 486 c 2
 370 395 l 1
 408 356 438 306 438 251 c 0
 438 181 411 113 361 63 c 0
 319 20 264 -9 204 -9 c 0
 170 -9 135 -3 111 21 c 0
 74 58 56 108 56 160 c 0
 56 207 74 252 97 293 c 0
 128 348 169 397 214 442 c 1
 189 465 166 488 146 514 c 1
 135 530 122 546 122 565 c 0
 122 578 127 590 133 602 c 0
 141 618 152 633 164 646 c 0
 179 664 199 674 220 681 c 0
 247 690 275 694 304 694 c 0
 331 694 355 691 384 687 c 1
238 422 m 1
 168 350 133 288 133 212 c 0
 133 159 150 107 187 69 c 1
 205 52 229 44 254 44 c 0
 284 44 312 62 333 83 c 0
 362 112 374 164 374 209 c 0
 374 243 357 273 339 301 c 0
 313 344 274 386 238 422 c 1
EndSplineSet
AlternateSubs2: "'ssty' Script Style lookup 0-1" uni03B4.ssty1 uni03B4.ssty2
EndChar

StartChar: uni03B5
Encoding: 949 949 342
Width: 486
Flags: MW
HStem: -15 53<263 265.5> 232 44<244.5 249> 430 41<264.5 268.5>
VStem: 82 66
LayerCount: 2
Fore
SplineSet
392 430 m 1
 362 365 l 1
 351 366 l 1
 346 380 338 392 328 402 c 0
 308 421 282 430 255 430 c 0
 229 430 205 419 186 400 c 0
 174 388 169 371 169 353 c 0
 169 332 172 312 187 296 c 1
 206 278 232 276 257 276 c 0
 258 276 291 275 308 274 c 1
 287 227 l 1
 272 231 257 232 241 232 c 0
 213 232 186 222 166 202 c 0
 152 189 148 169 148 151 c 0
 148 118 164 91 187 69 c 0
 214 44 246 38 280 38 c 0
 302 38 323 45 344 54 c 0
 368 65 392 81 413 98 c 1
 422 96 l 1
 430 82 l 1
 377 25 305 -15 226 -15 c 0
 186 -15 142 -3 113 26 c 0
 90 49 78 78 78 109 c 0
 78 142 89 176 112 199 c 0
 127 213 144 226 163 235 c 1
 163 242 l 1
 140 256 120 290 120 320 c 0
 120 363 136 397 163 424 c 0
 195 456 242 471 287 471 c 0
 326 471 361 452 392 430 c 1
EndSplineSet
AlternateSubs2: "'ssty' Script Style lookup 0-1" uni03B5.ssty1 uni03B5.ssty2
EndChar

StartChar: uni03B6
Encoding: 950 950 324
Width: 512
Flags: MW
TopAccentHorizontal: 312
HStem: -136 21<419 419> 1 46 620 27 675 20<221 223>
VStem: 84 77<186 207> 432 59<-52 11.5>
LayerCount: 2
Fore
SplineSet
419 -136 m 1
 398 -124 l 1
 413 -97 432 -65 432 -39 c 0
 432 -28 424 -19 416 -12 c 0
 406 -3 394 -1 381 -1 c 0
 363 -1 345 -1 327 -3 c 0
 300 -7 256 -10 246 -10 c 0
 206 -10 164 -4 135 25 c 0
 96 64 84 120 84 174 c 0
 84 240 108 303 139 362 c 0
 180 438 235 505 296 566 c 0
 313 582 330 598 348 613 c 1
 347 620 l 1
 256 628 l 1
 232 632 209 638 189 651 c 0
 188 652 187 655 187 655 c 2
 187 656 187 657 189 659 c 2
 217 694 l 2
 219 695 220 695 222 695 c 0
 224 695 223 695 230 691 c 0
 301 644 361 639 464 655 c 1
 464 636 l 1
 410 619 361 587 321 546 c 1
 230 456 161 340 161 210 c 0
 161 162 177 114 211 79 c 0
 237 53 274 47 310 47 c 0
 328 47 348 47 363 49 c 1
 379 50 402 53 411 53 c 0
 425 53 439 52 452 49 c 0
 462 46 471 43 478 36 c 0
 486 28 491 17 491 6 c 0
 491 -16 482 -37 472 -56 c 0
 458 -85 439 -111 419 -136 c 1
EndSplineSet
AlternateSubs2: "'ssty' Script Style lookup 0-1" uni03B6.ssty1 uni03B6.ssty2
EndChar
StartChar: uni03B7
Encoding: 951 951 325
Width: 560
Flags: MW
HStem: -199 21<397 397> -11 21<101 101> 402 61
VStem: 92 75<-1 393 334 393> 389 74
LayerCount: 2
Back
Fore
SplineSet
397 -199 m 1
 388 -188 l 1
 389 -161 389 20 389 125 c 0
 389 188 389 283 386 315 c 0
 384 340 381 366 363 384 c 0
 347 399 325 402 304 402 c 0
 282 402 262 396 242 387 c 0
 216 376 192 361 168 344 c 1
 166 320 166 237 166 184 c 0
 166 138 170 71 173 14 c 1
 101 -11 l 1
 92 -1 l 1
 92 334 l 2
 92 356 92 384 78 398 c 0
 71 405 62 408 53 408 c 0
 34 408 6 389 -16 375 c 1
 -32 393 l 1
 -9 412 15 430 42 445 c 0
 59 454 78 463 98 463 c 0
 117 463 137 458 151 444 c 0
 164 431 166 412 167 393 c 1
 178 391 l 1
 211 413 246 432 283 447 c 0
 311 458 340 466 369 466 c 0
 394 466 419 460 436 442 c 1
 453 426 456 401 459 378 c 0
 462 345 462 262 462 204 c 0
 462 81 464 -42 479 -164 c 1
 397 -199 l 1
EndSplineSet
AlternateSubs2: "'ssty' Script Style lookup 0-1" uni03B7.ssty1 uni03B7.ssty2
EndChar
StartChar: uni03B8
Encoding: 952 952 326
Width: 554
Flags: MW
TopAccentHorizontal: 305
HStem: -11 58<213 301.5> 328 42 648 47<257.5 335.5>
VStem: 59 77<301.5 326 301.5 355> 406 80<299.5 398>
LayerCount: 2
Back
Fore
SplineSet
231 -11 m 0
 195 -11 160 2 135 27 c 0
 104 58 89 99 79 141 c 1
 63 201 59 263 59 325 c 0
 59 385 61 447 79 505 c 0
 94 551 116 592 151 627 c 0
 194 670 256 695 317 695 c 0
 354 695 390 681 416 655 c 0
 445 626 458 586 468 547 c 0
 482 488 486 428 486 368 c 0
 486 308 480 248 463 191 c 0
 449 147 429 104 396 71 c 0
 351 26 295 -11 231 -11 c 0
142 370 m 1
 396 370 l 1
 401 377 l 1
 398 432 393 485 381 538 c 0
 375 568 363 600 341 622 c 0
 322 641 298 648 272 648 c 0
 243 648 217 635 197 615 c 0
 170 588 155 545 147 509 c 0
 137 463 136 423 136 377 c 1
 142 370 l 1
398 333 m 1
 143 333 l 1
 136 326 l 1
 136 277 141 225 154 179 c 0
 163 144 177 109 203 84 c 0
 226 61 256 47 288 47 c 0
 315 47 337 64 355 83 c 0
 378 106 386 139 393 171 c 0
 403 219 406 274 406 325 c 1
 398 333 l 1
EndSplineSet
AlternateSubs2: "'ssty' Script Style lookup 0-1" uni03B8.ssty1 uni03B8.ssty2
EndChar

StartChar: uni03B9
Encoding: 953 953 327
Width: 334
Flags: MW
HStem: -9 73<170.5 242> 454 20<182 182>
VStem: 101 75<182 240 182 449>
LayerCount: 2
Fore
SplineSet
319 109 m 1
 332 95 l 1
 309 66 283 39 253 18 c 0
 232 4 208 -9 182 -9 c 0
 159 -9 138 5 125 24 c 1
 108 46 101 74 101 102 c 2
 101 449 l 1
 182 474 l 1
 193 464 l 1
 178 375 176 285 176 195 c 0
 176 169 178 143 183 117 c 0
 187 101 191 85 203 73 c 0
 211 65 224 64 235 64 c 0
 249 64 261 70 273 77 c 0
 287 86 298 96 310 108 c 1
 319 109 l 1
EndSplineSet
AlternateSubs2: "'ssty' Script Style lookup 0-1" uni03B9.ssty1 uni03B9.ssty2
EndChar
StartChar: uni03BA
Encoding: 954 954 328
Width: 555
Flags: MW
HStem: -4 21<131 131> 452 20<453 453>
VStem: 116 75
LayerCount: 2
Back
Fore
SplineSet
504 441 m 1
 503 426 l 1
 414 388 301 323 258 272 c 0
 257 270 257 268 257 266 c 2
 261 255 l 1
 341 180 427 112 516 48 c 1
 515 34 l 1
 448 -2 l 1
 363 70 273 146 197 216 c 1
 188 212 l 1
 188 151 191 85 194 22 c 1
 131 -4 l 1
 115 1 l 1
 117 147 118 293 112 439 c 1
 191 465 l 1
 196 459 l 1
 194 401 190 295 189 264 c 1
 195 262 l 1
 271 344 359 412 453 472 c 1
 504 441 l 1
EndSplineSet
AlternateSubs2: "'ssty' Script Style lookup 0-1" uni03BA.ssty1 uni03BA.ssty2
EndChar
StartChar: uni03BB
Encoding: 955 955 329
Width: 541
Flags: MW
TopAccentHorizontal: 215
HStem: -11 21<436 436> 644 45
VStem: 21 489
LayerCount: 2
Back
Fore
SplineSet
422 -4 m 1
 276 380 l 2
 275 383 272 386 268 386 c 0
 264 385 262 382 261 379 c 0
 219 290 135 111 135 110 c 0
 123 85 109 44 98 11 c 1
 39 -6 l 1
 21 7 l 1
 239 416 l 1
 252 442 l 1
 250 460 231 521 210 565 c 0
 200 586 188 606 171 623 c 0
 159 636 140 646 122 646 c 0
 107 646 75 639 52 634 c 1
 44 659 l 1
 88 675 138 690 190 690 c 0
 223 690 248 674 280 612 c 0
 302 568 332 461 356 396 c 1
 374 344 409 247 510 27 c 0
 512 23 509 15 509 15 c 1
 436 -11 l 1
 422 -4 l 1
EndSplineSet
AlternateSubs2: "'ssty' Script Style lookup 0-1" uni03BB.ssty1 uni03BB.ssty2
EndChar
StartChar: mu
Encoding: 956 956 1410
Width: 617
Flags: W
HStem: -199 21<121 121> -6 63 446 17
VStem: 113 75<165.5 186 186 272 272 299.5> 412 76
LayerCount: 2
Back
Fore
SplineSet
485 466 m 1
 493 455 l 1
 490 414 487 363 487 332 c 2
 487 165 l 2
 487 147 489 129 493 111 c 1
 497 99 501 86 511 77 c 0
 518 70 529 66 539 66 c 0
 562 66 592 84 616 99 c 1
 627 97 l 1
 635 83 l 1
 610 60 583 37 552 21 c 1
 531 9 508 -1 483 -1 c 0
 466 -1 447 0 435 12 c 0
 422 25 417 49 414 68 c 1
 406 73 l 1
 348 40 272 -3 223 -3 c 0
 191 -3 178 7 161 27 c 1
 155 25 l 1
 155 -41 161 -116 174 -179 c 1
 121 -199 l 1
 109 -193 l 1
 111 -101 113 -9 113 83 c 2
 113 272 l 2
 113 327 100 412 96 436 c 1
 179 462 l 1
 188 455 l 1
 188 186 l 2
 188 145 193 102 223 72 c 0
 238 57 261 57 281 57 c 0
 302 57 340 68 368 86 c 0
 384 97 394 104 409 120 c 1
 410 168 412 241 412 262 c 0
 412 320 410 377 408 434 c 1
 485 466 l 1
EndSplineSet
AlternateSubs2: "'ssty' Script Style lookup 0-1" uni00B5.ssty1 uni00B5.ssty2
EndChar

StartChar: uni03BE
Encoding: 958 958 332
Width: 553
Flags: MW
HStem: -137 21<471 471> 8 48 335 24 620 29<286 345.5> 674 20<182 190 190 190>
VStem: 74 86 484 61<-55 12>
LayerCount: 2
Fore
SplineSet
471 -137 m 1
 450 -122 l 1
 465 -97 484 -67 484 -43 c 0
 484 -30 477 -18 468 -9 c 0
 452 7 427 8 405 8 c 0
 383 8 350 5 323 2 c 0
 288 -2 225 -8 219 -8 c 0
 182 -8 143 -1 116 26 c 0
 89 53 74 89 74 126 c 0
 74 180 98 230 135 267 c 0
 170 302 214 326 259 340 c 1
 259 346 l 1
 228 353 196 365 172 388 c 0
 156 404 151 428 151 451 c 0
 151 486 163 522 189 547 c 1
 217 576 251 598 287 612 c 1
 286 620 l 1
 242 621 195 626 154 648 c 1
 182 694 l 1
 190 694 l 1
 229 662 280 649 330 649 c 0
 361 649 396 654 428 660 c 1
 428 632 l 1
 368 625 305 610 262 566 c 0
 239 543 229 510 229 478 c 0
 229 452 235 425 254 406 c 0
 269 392 288 382 308 375 c 0
 334 366 361 361 389 358 c 1
 389 335 l 1
 322 335 252 320 204 272 c 0
 173 241 159 198 159 155 c 0
 159 125 170 97 191 76 c 0
 218 49 258 46 295 48 c 0
 350 52 422 58 458 58 c 0
 485 58 514 54 534 34 c 0
 542 27 545 17 545 7 c 0
 545 -14 536 -34 526 -53 c 0
 511 -83 491 -110 471 -137 c 1
EndSplineSet
AlternateSubs2: "'ssty' Script Style lookup 0-1" uni03BE.ssty1 uni03BE.ssty2
EndChar

StartChar: uni03C0
Encoding: 960 960 333
Width: 609
Flags: MW
TopAccentHorizontal: 360
HStem: -5 71 394 66<145.5 509 186 232 269 412 269 269 484 484> 480 8
VStem: 402 71
LayerCount: 2
Fore
SplineSet
186 460 m 2
 509 460 l 2
 548 460 586 470 620 488 c 1
 628 481 l 1
 593 422 l 1
 559 406 522 395 484 394 c 1
 477 387 l 1
 475 352 471 316 471 282 c 0
 471 209 471 106 505 73 c 0
 512 66 524 63 534 63 c 0
 552 63 568 69 583 79 c 1
 589 77 l 1
 599 60 l 1
 580 43 560 27 537 15 c 0
 521 7 504 0 486 0 c 0
 467 0 445 0 433 12 c 0
 419 25 414 44 410 62 c 0
 403 90 402 119 402 147 c 0
 402 228 408 308 418 388 c 1
 412 394 l 1
 269 394 l 1
 242 264 197 133 153 5 c 1
 142 -5 l 1
 87 10 l 1
 86 23 l 1
 153 139 207 282 232 394 c 1
 158 394 l 2
 133 394 107 394 89 376 c 0
 75 362 67 343 60 325 c 2
 42 279 l 1
 21 288 l 1
 49 401 l 2
 53 414 60 427 70 436 c 0
 81 447 96 451 111 454 c 0
 136 459 161 460 186 460 c 2
EndSplineSet
AlternateSubs2: "'ssty' Script Style lookup 0-1" uni03C0.ssty1 uni03C0.ssty2
EndChar
StartChar: uni03C1
Encoding: 961 961 334
Width: 548
Flags: MW
TopAccentHorizontal: 302
HStem: -189 21<121 121> 0 44 435 39
VStem: 94 67 411 88<215.5 252>
LayerCount: 2
Back
Fore
SplineSet
121 -189 m 1
 101 -181 l 1
 95 -77 90 28 90 133 c 0
 90 194 93 285 106 330 c 0
 114 357 130 396 163 425 c 0
 204 461 261 477 315 477 c 0
 365 477 414 459 450 423 c 0
 469 405 479 380 486 355 c 0
 496 321 499 286 499 251 c 0
 499 180 475 110 424 60 c 1
 391 26 343 -3 295 -3 c 0
 252 -3 218 14 187 45 c 0
 178 54 171 63 163 75 c 1
 156 74 l 1
 159 -6 163 -78 183 -156 c 0
 183 -157 179 -165 177 -169 c 1
 121 -189 l 1
161 231 m 0
 161 199 163 167 172 136 c 0
 178 114 188 94 202 78 c 0
 219 60 241 47 266 47 c 0
 301 47 334 59 359 84 c 0
 398 123 411 179 411 234 c 0
 411 270 409 307 400 342 c 1
 395 366 383 394 368 408 c 0
 350 424 326 441 300 441 c 0
 268 441 238 430 215 407 c 0
 195 388 182 359 174 333 c 0
 164 300 161 265 161 231 c 0
EndSplineSet
AlternateSubs2: "'ssty' Script Style lookup 0-1" uni03C1.ssty1 uni03C1.ssty2
EndChar

StartChar: uni03C3
Encoding: 963 963 335
Width: 605
Flags: MW
HStem: -10 51 424 39
VStem: 82 83<235.5 252> 410 79<202 234>
LayerCount: 2
Fore
SplineSet
261 462 m 2
 603 476 l 1
 608 466 l 1
 594 409 l 1
 587 403 l 1
 523 416 454 424 388 432 c 1
 387 426 l 1
 390 424 408 413 433 388 c 0
 475 346 489 287 489 228 c 0
 489 169 475 108 432 65 c 0
 385 18 334 -5 257 -5 c 0
 204 -5 167 16 135 48 c 0
 116 68 104 92 96 118 c 0
 86 151 82 186 82 221 c 0
 82 283 92 353 134 399 c 0
 169 438 208 460 261 462 c 2
280 429 m 0
 252 429 229 416 209 397 c 1
 173 360 165 304 165 253 c 0
 165 218 168 184 179 150 c 0
 187 124 196 98 220 74 c 0
 243 51 264 36 294 36 c 0
 325 36 348 51 367 69 c 0
 382 84 395 114 400 132 c 0
 407 160 410 188 410 216 c 0
 410 252 407 289 397 324 c 0
 390 349 376 378 357 397 c 0
 337 417 308 429 280 429 c 0
EndSplineSet
AlternateSubs2: "'ssty' Script Style lookup 0-1" uni03C3.ssty1 uni03C3.ssty2
EndChar

StartChar: uni03C5
Encoding: 965 965 337
Width: 587
Flags: MW
HStem: -12 63<207.5 301.5> 414 58<62 133.5>
VStem: 113 76 444 75<255.5 280>
LayerCount: 2
Fore
SplineSet
387 398 m 1
 383 416 l 1
 425 467 l 1
 445 471 l 1
 490 423 519 362 519 296 c 0
 519 215 483 139 426 82 c 0
 371 27 300 -12 221 -12 c 0
 194 -12 166 -5 147 15 c 0
 120 42 113 81 113 119 c 2
 113 330 l 2
 113 353 110 384 101 398 c 0
 95 406 85 414 75 414 c 0
 49 414 25 396 4 379 c 1
 -12 401 l 1
 11 422 35 440 62 454 c 0
 81 464 102 472 125 472 c 0
 142 472 159 466 171 454 c 0
 179 446 183 435 186 424 c 0
 190 408 191 392 191 376 c 0
 191 339 188 302 187 266 c 0
 186 240 186 209 186 181 c 0
 186 160 188 139 193 119 c 0
 197 104 203 90 214 79 c 0
 231 62 255 51 280 51 c 0
 323 51 345 61 370 79 c 0
 427 120 444 199 444 253 c 0
 444 307 426 360 387 398 c 1
EndSplineSet
AlternateSubs2: "'ssty' Script Style lookup 0-1" uni03C5.ssty1 uni03C5.ssty2
EndChar
StartChar: uni03C6
Encoding: 966 966 338
Width: 763
Flags: MW
HStem: -197 21 -9 35 425 38
VStem: 91 80<233.5 277.5> 324 67 602 83<258.5 283>
LayerCount: 2
Back
Fore
SplineSet
320 -183 m 1
 322 -15 l 1
 315 -8 l 1
 256 -2 206 8 154 68 c 0
 109 120 91 180 91 249 c 0
 91 306 116 359 156 399 c 0
 189 432 230 454 274 467 c 1
 286 445 l 1
 260 433 239 423 219 403 c 0
 185 370 171 315 171 267 c 0
 171 200 184 122 232 74 c 0
 270 37 296 28 315 28 c 1
 322 35 l 1
 322 240 l 2
 322 301 330 366 388 416 c 0
 431 453 482 464 524 464 c 0
 565 464 606 451 635 422 c 0
 672 384 685 330 685 277 c 0
 685 208 666 139 617 90 c 0
 559 32 482 4 401 -7 c 1
 394 -15 l 1
 394 -69 397 -122 402 -176 c 1
 333 -197 l 1
 320 -183 l 1
401 26 m 1
 455 28 504 52 542 91 c 0
 563 112 577 139 586 168 c 0
 598 203 602 240 602 277 c 0
 602 289 596 365 564 397 c 0
 547 414 528 425 505 425 c 0
 479 425 462 422 438 406 c 1
 408 384 394 313 394 265 c 2
 394 33 l 1
 401 26 l 1
EndSplineSet
AlternateSubs2: "'ssty' Script Style lookup 0-1" uni03C6.ssty1 uni03C6.ssty2
EndChar

StartChar: uni03C7
Encoding: 967 967 339
Width: 576
Flags: MW
HStem: -197 65<417 499> 411 53
VStem: -10 574
LayerCount: 2
Fore
SplineSet
288 206 m 1
 475 456 l 1
 495 460 l 1
 528 428 l 1
 529 421 l 1
 350 215 l 2
 334 196 317 177 302 156 c 1
 345 61 403 -71 451 -118 c 0
 460 -128 474 -132 487 -132 c 0
 511 -132 535 -128 556 -117 c 1
 564 -140 l 1
 537 -156 510 -171 481 -182 c 1
 463 -190 445 -197 426 -197 c 0
 408 -197 394 -185 381 -173 c 1
 360 -151 347 -124 334 -97 c 0
 314 -56 282 21 256 83 c 1
 246 83 l 1
 212 32 181 -18 151 -69 c 0
 129 -107 108 -145 92 -185 c 1
 75 -191 l 1
 25 -161 l 1
 93 -61 162 38 236 134 c 0
 236 135 163 277 127 349 c 0
 119 366 106 385 93 398 c 0
 85 406 73 411 62 411 c 0
 44 411 16 389 -3 374 c 1
 -18 395 l 1
 45 443 l 2
 64 458 89 466 114 466 c 0
 129 466 144 460 154 449 c 0
 169 434 179 417 188 398 c 2
 278 206 l 1
 288 206 l 1
EndSplineSet
AlternateSubs2: "'ssty' Script Style lookup 0-1" uni03C7.ssty1 uni03C7.ssty2
EndChar
StartChar: uni03C8
Encoding: 968 968 340
Width: 754
Flags: MW
TopAccentHorizontal: 405
HStem: 2 34<330 350>
VStem: 118 74<189 229 229 325 325 333> 357 73<-6 -6 44 357 357 396> 613 71<250 294>
LayerCount: 2
Back
Fore
SplineSet
353 -182 m 1
 357 -6 l 1
 350 2 l 1
 310 2 271 5 233 13 c 0
 207 18 181 25 162 43 c 1
 129 77 118 125 118 172 c 2
 118 325 l 2
 118 341 116 358 112 374 c 0
 109 385 105 397 97 405 c 0
 91 411 83 415 74 415 c 0
 55 415 30 398 10 385 c 1
 -7 406 l 1
 17 425 39 441 66 454 c 0
 86 464 106 472 128 472 c 0
 144 472 163 468 176 452 c 0
 186 439 192 410 192 358 c 2
 192 229 l 2
 192 149 204 108 233 80 c 0
 255 59 306 36 350 36 c 1
 357 42 l 1
 357 357 l 2
 357 453 351 561 345 662 c 1
 425 695 l 1
 432 688 l 1
 430 658 430 494 430 396 c 2
 430 44 l 1
 436 37 l 1
 499 42 552 96 566 114 c 0
 602 158 613 211 613 267 c 0
 613 321 586 370 550 409 c 1
 553 422 l 1
 597 470 l 1
 618 467 l 1
 659 416 684 352 684 286 c 0
 684 214 653 143 602 92 c 0
 556 46 504 18 437 4 c 1
 430 -4 l 1
 430 -54 432 -105 439 -154 c 1
 363 -189 l 1
 353 -182 l 1
EndSplineSet
AlternateSubs2: "'ssty' Script Style lookup 0-1" uni03C8.ssty1 uni03C8.ssty2
EndChar
StartChar: uni03C9
Encoding: 969 969 341
Width: 851
Flags: MW
TopAccentHorizontal: 453
HStem: -3 66 452 17
VStem: 67 82<217.5 220> 395 72<249 296.5 245.5 438> 714 67<261 274.5>
LayerCount: 2
Back
Fore
SplineSet
649 421 m 1
 691 469 l 1
 705 472 l 1
 756 432 781 370 781 306 c 0
 781 216 745 129 681 65 c 0
 640 25 588 -4 530 -4 c 0
 499 -4 468 2 446 24 c 0
 433 37 420 64 409 87 c 1
 397 87 l 1
 371 60 346 35 313 15 c 0
 288 0 254 -13 225 -13 c 0
 188 -13 152 -1 126 25 c 0
 86 64 67 120 67 176 c 0
 67 264 90 354 154 418 c 0
 177 441 209 455 241 466 c 1
 257 452 l 1
 244 442 229 431 218 420 c 0
 169 371 149 301 149 232 c 0
 149 203 152 173 160 145 c 0
 167 123 176 101 193 85 c 0
 213 65 240 50 269 50 c 0
 303 50 334 68 358 92 c 0
 374 108 380 129 385 151 c 0
 393 183 395 216 395 249 c 2
 395 438 l 1
 470 466 l 1
 476 459 l 1
 467 400 467 329 467 264 c 0
 467 227 470 183 480 148 c 0
 487 122 496 102 515 84 c 0
 531 68 553 61 575 61 c 0
 611 61 640 76 665 101 c 0
 701 136 714 194 714 244 c 0
 714 305 694 368 646 409 c 1
 649 421 l 1
EndSplineSet
AlternateSubs2: "'ssty' Script Style lookup 0-1" uni03C9.ssty1 uni03C9.ssty2
EndChar

StartChar: uni03D1
Encoding: 977 977 343
Width: 552
Flags: W
HStem: -14 48<198 265.5> 334 27<470 522> 659 39<259 261>
VStem: 108 74<162.5 189 189 228 228 240.5> 130 42<549.5 570.5> 395 71<303.5 326>
LayerCount: 2
Fore
SplineSet
391 370 m 1xec
 391 422 385 472 369 521 c 0
 356 562 338 601 307 631 c 1
 291 648 273 659 249 659 c 0
 231 659 213 653 199 640 c 0
 182 623 172 601 172 577 c 0
 172 522 198 471 236 432 c 0
 277 391 329 370 386 365 c 1
 391 370 l 1xec
108 118 m 2xf4
 108 228 l 2
 108 253 108 283 92 299 c 0
 85 306 75 312 64 312 c 0
 42 312 17 297 -5 284 c 1
 -16 304 l 1
 6 323 31 341 58 354 c 0
 79 364 101 372 124 372 c 0
 139 372 156 363 166 352 c 0
 178 340 182 314 182 297 c 2
 182 189 l 2xf4
 182 136 183 109 188 89 c 0
 191 76 196 63 205 53 c 1
 218 41 233 34 251 34 c 0
 280 34 303 45 324 65 c 1
 352 94 367 130 378 168 c 0
 392 220 395 273 395 326 c 1
 391 331 l 1
 351 335 316 342 279 356 c 0
 248 368 218 384 194 408 c 0
 156 446 130 497 130 551 c 0xec
 130 590 143 628 171 656 c 0
 200 684 239 698 279 698 c 0
 313 698 345 682 369 658 c 0
 402 625 428 578 441 534 c 1
 459 478 465 424 465 367 c 1
 469 362 l 1
 522 361 l 1
 522 334 l 1
 470 334 l 1
 466 330 l 1
 466 277 459 230 442 180 c 0
 427 137 401 93 369 61 c 0
 326 18 272 -14 212 -14 c 0
 184 -14 154 -1 134 19 c 0
 124 29 119 43 115 57 c 0
 109 77 108 97 108 118 c 2xf4
EndSplineSet
AlternateSubs2: "'ssty' Script Style lookup 0-1" uni03D1.ssty1 uni03D1.ssty2
EndChar

StartChar: uni03D5
Encoding: 981 981 345
Width: 727
Flags: MW
TopAccentHorizontal: 391
HStem: -4 33<293.5 313> 443 30<403 403>
VStem: 66 83<211 248> 321 73<-32.5 -13 -32.5 42 42 433 433 433> 577 82<231 286.5>
LayerCount: 2
Fore
SplineSet
405 -156 m 1
 333 -192 l 1
 316 -182 l 1
 317 -125 321 -70 321 -13 c 1
 313 -4 l 1
 274 -3 238 1 200 13 c 0
 169 22 139 37 115 60 c 1
 76 100 66 158 66 212 c 0
 66 284 90 354 140 405 c 0
 161 426 187 442 214 452 c 0
 246 464 295 473 312 473 c 1
 321 482 l 1
 321 539 319 596 315 652 c 1
 397 694 l 1
 404 686 l 1
 399 619 396 551 396 483 c 1
 404 473 l 1
 443 473 481 469 521 458 c 0
 548 451 579 438 599 418 c 0
 641 376 659 318 659 259 c 0
 659 192 638 124 590 75 c 0
 540 25 473 4 403 2 c 1
 394 -8 l 1
 394 -57 398 -107 405 -156 c 1
402 33 m 1
 449 36 488 62 520 95 c 0
 564 139 577 201 577 261 c 0
 577 312 566 364 530 401 c 0
 496 435 450 442 403 443 c 1
 394 434 l 1
 394 42 l 1
 402 33 l 1
312 441 m 1
 281 441 232 428 202 398 c 0
 161 357 149 298 149 242 c 0
 149 180 165 118 209 75 c 0
 236 48 274 29 313 29 c 1
 321 38 l 1
 321 433 l 1
 312 441 l 1
EndSplineSet
AlternateSubs2: "'ssty' Script Style lookup 0-1" uni03D5.ssty1 uni03D5.ssty2
EndChar

StartChar: uni03D6
Encoding: 982 982 344
Width: 875
Flags: MW
HStem: -9 56 477 58
VStem: 81 79<197.5 223> 400 86 720 70
LayerCount: 2
Fore
SplineSet
478 330 m 1
 486 318 l 1
 486 164 l 2
 486 134 499 102 518 83 c 0
 537 64 561 56 588 56 c 0
 620 56 649 71 672 93 c 1
 689 111 701 133 708 156 c 0
 717 186 723 218 723 249 c 0
 722 308 711 353 659 407 c 0
 632 435 601 448 565 458 c 0
 512 472 457 477 403 477 c 0
 313 477 246 466 209 452 c 0
 163 435 124 404 89 369 c 1
 74 385 l 1
 107 424 137 461 182 489 c 0
 224 515 287 541 442 541 c 0
 503 541 562 533 620 517 c 0
 662 506 705 486 736 455 c 0
 775 416 790 360 790 306 c 0
 790 213 752 125 686 60 c 0
 647 21 600 -12 544 -12 c 0
 511 -12 479 -1 455 23 c 0
 438 40 425 60 417 83 c 1
 409 84 l 1
 360 31 297 -8 224 -8 c 0
 190 -8 159 7 135 31 c 0
 92 73 81 135 81 194 c 0
 81 252 109 305 150 346 c 0
 164 360 186 374 205 387 c 1
 215 366 l 1
 177 329 160 277 160 224 c 0
 160 171 169 115 207 77 c 0
 224 61 254 47 272 47 c 0
 299 47 331 55 354 78 c 0
 371 96 382 119 389 142 c 0
 398 173 402 205 402 236 c 0
 402 258 399 280 397 302 c 1
 478 330 l 1
EndSplineSet
AlternateSubs2: "'ssty' Script Style lookup 0-1" uni03D6.ssty1 uni03D6.ssty2
EndChar
StartChar: uni03F5
Encoding: 1013 1013 323
Width: 550
Flags: MW
HStem: -11 58<265 354.5> 217 39<242.5 279> 428 43<305.5 320>
VStem: 88 82
LayerCount: 2
Back
Fore
SplineSet
279 256 m 2
 398 258 l 1
 384 216 l 1
 354 217 290 217 243 217 c 0
 242 217 200 215 174 214 c 1
 169 208 l 1
 171 159 189 111 224 76 c 0
 235 65 250 59 265 55 c 0
 286 49 307 47 329 47 c 0
 380 47 431 63 470 96 c 1
 478 95 l 1
 490 75 l 1
 458 50 423 27 385 11 c 0
 355 -1 324 -11 291 -11 c 0
 239 -11 185 1 147 38 c 1
 104 82 88 143 88 203 c 0
 88 278 116 350 169 402 c 0
 214 447 274 471 337 471 c 0
 389 471 438 449 475 412 c 1
 438 359 l 1
 425 357 l 1
 415 371 401 391 393 398 c 0
 370 421 336 428 304 428 c 0
 270 428 238 415 214 391 c 0
 180 357 172 309 171 263 c 1
 177 257 l 1
 214 257 278 256 279 256 c 2
EndSplineSet
AlternateSubs2: "'ssty' Script Style lookup 0-1" uni03F5.ssty1 uni03F5.ssty2
EndChar

StartChar: uni2018
Encoding: 8216 8216 47
Width: 214
Flags: MW
HStem: 410 299
VStem: 45 114
LayerCount: 2
Fore
SplineSet
119 532 m 2
 151 483 l 2
 156 475 167 456 167 448 c 0
 167 438 156 428 148 420 c 0
 140 413 126 406 119 406 c 0
 111 406 98 418 92 426 c 0
 66 460 45 498 45 541 c 0
 45 566 57 588 70 609 c 0
 91 644 115 677 140 709 c 1
 154 695 l 1
 139 669 126 643 114 616 c 0
 108 604 105 591 105 577 c 0
 105 561 110 546 119 532 c 2
EndSplineSet
AlternateSubs2: "'ssty' Script Style lookup 0-1" uni2018.ssty1 uni2018.ssty2
EndChar

StartChar: uni2019
Encoding: 8217 8217 48
Width: 214
Flags: MW
HStem: 395 297
VStem: 54 109
LayerCount: 2
Fore
SplineSet
74 395 m 1
 58 406 l 1
 72 430 87 455 96 478 c 0
 102 493 106 509 106 525 c 0
 106 539 101 552 93 564 c 2
 58 621 l 2
 52 631 44 647 44 654 c 0
 44 662 52 670 58 676 c 0
 68 685 82 695 92 695 c 0
 100 695 115 681 122 670 c 0
 137 649 148 625 156 601 c 0
 161 589 163 576 163 564 c 0
 163 535 150 509 136 484 c 0
 118 453 94 425 74 395 c 1
EndSplineSet
AlternateSubs2: "'ssty' Script Style lookup 0-1" uni2019.ssty1 uni2019.ssty2
EndChar
StartChar: minute
Encoding: 8242 8242 1561
Width: 257
VWidth: 1090
Flags: W
HStem: 422.1 14.7<68.9998 73.8998> 767.9 14<161.4 182.05>
VStem: 47.9998 163.1
LayerCount: 2
Back
Fore
SplineSet
204.8 723.1 m 2
 80.8994 433.3 l 2
 76.7002 424.2 76 422.1 71.7998 422.1 c 0
 66.2002 422.1 48 427 48 434.7 c 0
 48 435.4 50.7998 443.1 50.7998 444.5 c 2
 134.1 750.4 l 2
 139 768.6 151.6 781.9 171.2 781.9 c 0
 192.899 781.9 211.1 765.1 211.1 744.8 c 0
 211.1 737.8 208.3 731.5 204.8 723.1 c 2
EndSplineSet
AlternateSubs2: "'ssty' Script Style lookup 0-1" minute.ssty1 minute.ssty2
Colour: ff
EndChar
StartChar: uni2035
Encoding: 8245 8245 1566
Width: 241
VWidth: 1090
Flags: W
HStem: 422.1 14.7<167.2 172.1> 767.9 14<59.0498 79.6998>
VStem: 29.9998 163.1
LayerCount: 2
Back
Fore
SplineSet
36.2998 723.1 m 2
 32.7998 731.5 30 737.8 30 744.8 c 0
 30 765.1 48.2002 781.9 69.8994 781.9 c 0
 89.5 781.9 102.1 768.6 107 750.4 c 2
 190.3 444.5 l 2
 190.3 443.1 193.1 435.4 193.1 434.7 c 0
 193.1 427 174.899 422.1 169.3 422.1 c 0
 165.1 422.1 164.399 424.2 160.2 433.3 c 2
 36.2998 723.1 l 2
EndSplineSet
AlternateSubs2: "'ssty' Script Style lookup 0-1" uni2035.ssty1 uni2035.ssty2
Colour: ff
EndChar
StartChar: uni20D6
Encoding: 8406 8406 1683
Width: 287
Flags: W
TopAccentHorizontal: 78
GlyphVariantsHorizontal: uni20D6
GlyphCompositionHorizontal: 2  uni20D6%0,137,137,412 uni20D6.ex%1,50,50,150
HStem: 595 40<-59 287>
LayerCount: 2
Back
Fore
SplineSet
287 595 m 1
 -59 595 l 1
 20 500 l 1
 -1 479 l 1
 -131 614 l 1
 -1 750 l 1
 20 729 l 1
 -59 635 l 1
 287 635 l 1
 287 595 l 1
EndSplineSet
Colour: ff0000
EndChar
StartChar: uni20D7
Encoding: 8407 8407 1682
Width: 287
Flags: W
TopAccentHorizontal: 209
GlyphVariantsHorizontal: uni20D7
GlyphCompositionHorizontal: 2  uni20D6.ex%1,50,50,150 uni20D7%0,137,137,412
HStem: 595 40<0 346>
LayerCount: 2
Back
Fore
SplineSet
346 595 m 1
 0 595 l 1
 0 635 l 1
 346 635 l 1
 267 729 l 1
 288 750 l 1
 418 614 l 1
 288 479 l 1
 267 500 l 1
 346 595 l 1
EndSplineSet
Colour: ff0000
EndChar
StartChar: uni20DD
Encoding: 8413 8413 1730
Width: 1000
Flags: W
HStem: -216 40<388 610.5 388 621.5> 676 40<388.5 611>
VStem: 56 40 903 40
LayerCount: 2
Back
Fore
SplineSet
944 250 m 0
 944 -9 744 -216 499 -216 c 0
 257 -216 55 -11 55 250 c 0
 55 509 255 716 500 716 c 0
 742 716 944 511 944 250 c 0
500 -176 m 0
 721 -176 904 12 904 250 c 0
 904 486 723 676 499 676 c 0
 278 676 95 488 95 250 c 0
 95 14 276 -176 500 -176 c 0
EndSplineSet
AlternateSubs2: "'ssty' Script Style lookup 0-1" uni20DD.ssty1 uni20DD.ssty2
Colour: ffff
EndChar
StartChar: uni20E1
Encoding: 8417 8417 1767
Width: 449
Flags: W
TopAccentHorizontal: 224
GlyphVariantsHorizontal: uni20E1
GlyphCompositionHorizontal: 3  uni20D6%0,137,137,412 uni20D6.ex%1,50,50,150 uni20D7%0,137,137,412
HStem: 595 40<72 377>
LayerCount: 2
Back
Fore
SplineSet
377 635 m 1
 298 729 l 1
 319 750 l 1
 449 614 l 1
 319 479 l 1
 298 500 l 1
 377 595 l 1
 72 595 l 1
 151 500 l 1
 130 479 l 1
 0 614 l 1
 130 750 l 1
 151 729 l 1
 72 635 l 1
 377 635 l 1
EndSplineSet
Colour: ff0000
EndChar

StartChar: uni210B
Encoding: 8459 8459 454
Width: 884
Flags: MW
ItalicCorrection: 13
HStem: -11 44 350 38<384 607 384 612> 649 40
VStem: 53 74 320 66<647 647 647 652 647 652> 606 62
LayerCount: 2
Fore
SplineSet
436 686 m 1
 435 669 l 1
 386 647 l 1
 384 388 l 1
 612 388 l 1
 618 443 632 496 653 547 c 0
 669 584 693 621 723 648 c 0
 752 674 775 690 814 690 c 0
 862 690 872 654 872 642 c 0
 872 616 852 605 836 605 c 0
 827 605 815 611 809 618 c 0
 800 628 793 635 778 635 c 0
 764 635 750 630 740 620 c 0
 726 606 714 594 704 571 c 0
 693 544 686 521 681 494 c 0
 667 415 667 332 667 250 c 0
 667 205 668 160 677 116 c 1
 684 89 691 62 709 42 c 0
 718 33 727 30 739 30 c 0
 751 30 772 42 782 53 c 0
 797 69 810 85 823 103 c 1
 843 86 l 1
 826 61 812 45 798 30 c 0
 774 6 750 -8 714 -8 c 0
 692 -8 671 -3 655 12 c 1
 634 34 619 63 612 93 c 0
 602 137 601 182 601 227 c 0
 601 257 604 309 607 350 c 1
 384 350 l 1
 381 294 373 237 360 184 c 0
 349 140 325 100 293 68 c 0
 249 24 197 -6 134 -6 c 0
 106 -6 78 -2 57 18 c 0
 43 32 33 50 33 70 c 0
 33 80 36 89 43 96 c 0
 50 103 61 106 71 106 c 0
 82 106 95 106 102 99 c 0
 108 93 112 85 115 76 c 1
 119 68 124 57 129 51 c 0
 142 38 160 36 177 36 c 0
 198 36 230 49 251 70 c 0
 280 99 295 140 303 179 c 0
 317 242 320 307 320 371 c 2
 320 652 l 1
 285 652 253 650 219 642 c 0
 196 636 173 629 156 612 c 0
 139 594 121 572 121 546 c 0
 121 533 123 520 125 508 c 0
 128 494 134 469 134 468 c 0
 134 458 134 448 126 441 c 1
 117 431 107 422 94 422 c 0
 84 422 76 429 70 435 c 0
 62 442 59 452 57 462 c 0
 54 478 53 493 53 509 c 0
 53 554 81 593 113 624 c 0
 137 648 169 666 202 674 c 0
 243 684 278 689 320 689 c 0
 359 689 402 688 436 686 c 1
EndSplineSet
AlternateSubs2: "'ssty' Script Style lookup 0-1" uni210B.ssty1 uni210B.ssty2
EndChar

StartChar: uni210C
Encoding: 8460 8460 156
Width: 720
Flags: MW
HStem: -133 53<424 480> 32 69 404 64<437 437.5> 538 69<394.5 453> 647 18
VStem: 123 83 559 86<195.5 210>
LayerCount: 2
Fore
SplineSet
368 -107 m 1
 416 -43 l 1
 427 -65 449 -80 474 -80 c 0
 486 -80 498 -77 506 -71 c 0
 515 -65 525 -48 532 -34 c 0
 544 -8 549 28 553 56 c 0
 558 101 559 146 559 191 c 0
 559 229 557 266 547 302 c 0
 540 328 531 354 512 372 c 0
 488 396 454 404 421 404 c 0
 392 404 362 393 338 375 c 0
 309 352 293 339 266 307 c 1
 287 255 294 209 294 185 c 0
 294 167 292 147 284 134 c 1
 252 93 178 0 159 -16 c 1
 144 -2 128 10 112 20 c 1
 100 29 85 36 70 36 c 0
 41 36 18 11 4 -4 c 1
 -8 10 l 1
 21 62 70 116 111 116 c 0
 143 116 180 86 200 62 c 1
 220 87 222 106 224 131 c 1
 224 156 213 194 200 218 c 0
 177 260 159 303 141 348 c 0
 130 375 123 402 123 431 c 0
 123 473 149 508 175 540 c 0
 216 590 267 630 320 667 c 1
 354 633 398 607 448 607 c 0
 458 607 469 612 477 618 c 1
 484 622 512 644 534 661 c 1
 547 646 l 1
 504 604 437 538 405 538 c 0
 384 538 364 543 345 550 c 1
 316 559 279 577 253 590 c 1
 237 574 225 559 214 537 c 0
 206 521 204 497 204 479 c 0
 204 440 234 376 256 330 c 1
 309 385 371 430 437 468 c 1
 501 468 566 454 618 415 c 1
 634 358 645 299 645 239 c 0
 645 152 638 64 602 -16 c 1
 551 -63 475 -133 437 -133 c 0
 411 -133 386 -125 368 -107 c 1
EndSplineSet
AlternateSubs2: "'ssty' Script Style lookup 0-1" uni210C.ssty1 uni210C.ssty2
EndChar
StartChar: uni210F
Encoding: 8463 8463 1874
Width: 621
UnlinkRmOvrlpSave: 1
Flags: W
HStem: 84 63 447 55 516 40<27 298> 650 40
VStem: 120 70 419 71
LayerCount: 2
Back
Fore
SplineSet
298 516 m 1
 20 516 l 1
 27 556 l 1
 304 556 l 1
 298 516 l 1
EndSplineSet
Refer: 390 104 N 1 0 0 1 0 0 2
AlternateSubs2: "'ssty' Script Style lookup 0-1" uni210F.ssty1 uni210F.ssty2
Colour: ff00
EndChar

StartChar: uni2110
Encoding: 8464 8464 455
Width: 430
Flags: MW
TopAccentHorizontal: 271
HStem: -14 42<143.5 153> 655 36
VStem: 27 79 278 63
LayerCount: 2
Fore
SplineSet
412 679 m 1
 398 659 l 1
 351 649 l 1
 351 532 344 421 344 305 c 0
 344 211 321 113 253 45 c 0
 220 12 177 -14 129 -14 c 0
 101 -14 72 -7 52 13 c 0
 37 28 27 48 27 69 c 0
 27 80 27 95 34 102 c 0
 41 109 52 114 62 114 c 0
 73 114 81 106 88 98 c 0
 91 96 95 80 97 70 c 0
 100 58 105 46 114 37 c 0
 123 28 137 28 150 28 c 0
 178 28 201 44 221 63 c 0
 245 87 258 120 266 152 c 0
 277 199 281 249 281 298 c 0
 281 417 288 530 288 649 c 1
 255 649 222 646 191 637 c 0
 167 630 144 621 127 603 c 1
 113 590 103 572 103 552 c 0
 103 545 104 537 106 530 c 0
 109 518 115 501 115 495 c 0
 115 483 110 472 101 463 c 0
 95 458 88 455 80 455 c 0
 71 455 64 459 58 465 c 0
 44 479 40 499 40 518 c 0
 40 555 54 590 80 616 c 0
 107 642 142 657 178 667 c 0
 227 680 277 685 328 685 c 0
 356 685 384 680 412 679 c 1
EndSplineSet
AlternateSubs2: "'ssty' Script Style lookup 0-1" uni2110.ssty1 uni2110.ssty2
EndChar

StartChar: uni2111
Encoding: 8465 8465 157
Width: 554
Flags: MW
HStem: -27 48 601 85<194.5 202>
VStem: 375 89
LayerCount: 2
Fore
SplineSet
522 671 m 1
 533 655 l 1
 486 611 435 573 378 543 c 1
 335 559 278 580 249 590 c 0
 230 596 212 601 192 601 c 0
 162 601 133 591 112 569 c 0
 83 540 59 494 45 456 c 1
 28 467 l 1
 41 502 60 545 76 579 c 0
 87 602 102 628 119 646 c 1
 145 676 175 686 214 686 c 0
 256 686 318 657 368 633 c 0
 385 625 402 617 421 617 c 0
 436 617 456 623 468 630 c 0
 490 641 507 657 522 671 c 1
43 -16 m 1
 38 0 l 1
 70 44 147 124 152 128 c 1
 179 70 184 60 197 47 c 0
 214 30 242 18 266 18 c 0
 296 18 314 30 334 50 c 0
 350 66 361 96 367 118 c 0
 376 147 378 177 378 207 c 0
 378 255 373 296 368 334 c 0
 364 367 360 401 360 429 c 0
 360 441 361 452 362 463 c 1
 402 507 451 553 502 585 c 1
 514 578 l 1
 494 560 475 537 461 514 c 0
 452 498 449 482 449 464 c 0
 449 442 450 410 452 399 c 0
 459 348 464 293 464 245 c 0
 464 183 450 119 405 74 c 0
 348 17 274 -27 192 -27 c 0
 155 -27 123 -3 96 21 c 1
 43 -16 l 1
EndSplineSet
AlternateSubs2: "'ssty' Script Style lookup 0-1" uni2111.ssty1 uni2111.ssty2
EndChar
StartChar: uni2112
Encoding: 8466 8466 458
Width: 715
Flags: MW
HStem: -7 79<478 493.5> 118 58 662 36
VStem: 169 71 400 80 601 31
LayerCount: 2
Back
Fore
SplineSet
305 134 m 1
 330 117 393 91 424 83 c 0
 445 77 467 72 489 72 c 0
 522 72 543 84 562 111 c 0
 582 139 588 162 588 200 c 0
 588 217 586 241 584 255 c 1
 608 260 l 1
 612 243 613 213 613 202 c 0
 613 146 608 89 569 48 c 0
 540 18 515 -7 472 -7 c 0
 448 -7 402 -3 380 6 c 0
 340 21 322 30 296 51 c 1
 230 94 178 115 152 115 c 0
 129 115 96 99 85 80 c 0
 68 52 55 21 46 -6 c 1
 26 11 l 1
 29 44 41 77 64 116 c 0
 74 133 98 150 110 159 c 0
 125 169 144 185 158 199 c 0
 190 230 213 333 222 403 c 0
 228 451 234 496 254 540 c 0
 269 574 293 608 320 634 c 0
 358 670 412 685 464 685 c 0
 495 685 523 679 543 659 c 0
 557 646 565 627 565 607 c 0
 565 547 519 546 519 546 c 1
 507 546 496 550 488 558 c 0
 483 563 483 579 483 590 c 0
 483 604 473 624 463 635 c 0
 451 647 439 651 420 651 c 0
 399 651 379 642 363 625 c 1
 345 608 336 597 329 574 c 0
 319 539 307 473 300 428 c 0
 294 386 286 350 269 303 c 1
 261 274 244 245 227 225 c 0
 208 203 189 185 172 176 c 1
 175 170 l 1
 255 170 305 134 305 134 c 1
EndSplineSet
AlternateSubs2: "'ssty' Script Style lookup 0-1" uni2112.ssty1 uni2112.ssty2
EndChar
StartChar: uni2113
Encoding: 8467 8467 278
Width: 388
Flags: MW
HStem: -9 58 670 34
VStem: 98 61 287 51
LayerCount: 2
Back
Fore
SplineSet
338 122 m 1
 355 109 l 1
 327 69 l 1
 310 41 269 -9 214 -9 c 0
 189 -9 164 -2 146 16 c 0
 131 31 118 51 112 72 c 0
 104 105 102 144 100 177 c 1
 91 180 l 1
 45 136 l 1
 30 154 l 1
 96 228 l 1
 91 321 93 417 112 508 c 0
 125 570 144 626 187 672 c 0
 207 692 239 704 267 704 c 0
 282 704 301 701 313 690 c 0
 332 672 338 646 338 608 c 0
 338 552 316 496 292 446 c 0
 256 374 215 313 165 250 c 1
 170 189 179 101 208 70 c 0
 220 57 233 51 251 51 c 0
 271 51 297 75 306 84 c 1
 338 122 l 1
170 302 m 1
 248 407 289 502 289 606 c 0
 289 638 284 651 277 661 c 0
 271 669 263 672 251 672 c 0
 242 672 233 666 226 657 c 0
 202 628 193 592 186 555 c 0
 176 500 162 393 162 304 c 1
 170 302 l 1
EndSplineSet
AlternateSubs2: "'ssty' Script Style lookup 0-1" uni2113.ssty1 uni2113.ssty2
EndChar
StartChar: uni2118
Encoding: 8472 8472 410
Width: 604
Flags: MW
TopAccentHorizontal: 358
HStem: -196 44 -6 54 407 64
VStem: 60 49 259 41<-39.5 -37.5> 506 60<259.5 275.5>
LayerCount: 2
Back
Fore
SplineSet
285 59 m 1
 332 102 l 1
 339 101 l 1
 343 86 350 71 359 63 c 0
 369 53 382 49 395 49 c 0
 420 49 441 58 454 72 c 0
 473 91 484 116 492 142 c 0
 501 172 506 216 506 251 c 0
 506 300 498 350 463 385 c 0
 447 401 426 410 404 410 c 0
 385 410 375 408 347 397 c 0
 308 381 245 289 205 227 c 1
 231 182 257 132 276 84 c 0
 279 76 282 68 285 59 c 1
198 464 m 1
 212 454 l 1
 186 421 161 385 161 342 c 0
 161 324 166 307 172 290 c 0
 176 281 179 273 183 265 c 1
 192 265 l 1
 210 291 l 1
 238 335 289 413 359 450 c 0
 385 464 417 472 446 472 c 0
 474 472 503 464 523 444 c 0
 559 408 566 355 566 306 c 0
 566 213 541 118 475 51 c 0
 458 35 440 20 420 9 c 0
 405 0 388 -6 371 -6 c 0
 341 -6 314 9 294 30 c 1
 298 15 300 1 300 -14 c 0
 300 -65 289 -119 252 -156 c 0
 229 -179 199 -196 166 -196 c 0
 141 -196 117 -188 99 -171 c 0
 71 -143 60 -104 60 -65 c 0
 60 -30 71 4 81 36 c 0
 96 82 136 165 146 184 c 1
 137 201 129 215 122 233 c 0
 113 257 105 281 105 306 c 0
 105 372 147 427 198 464 c 1
161 144 m 1
 131 92 110 20 110 -30 c 0
 110 -67 117 -107 144 -132 c 0
 154 -142 167 -148 182 -148 c 0
 200 -148 219 -143 232 -130 c 0
 252 -109 259 -79 259 -51 c 0
 259 -24 248 2 237 26 c 0
 218 66 194 106 170 144 c 1
 161 144 l 1
EndSplineSet
AlternateSubs2: "'ssty' Script Style lookup 0-1" uni2118.ssty1 uni2118.ssty2
EndChar
StartChar: uni211B
Encoding: 8475 8475 464
Width: 722
Flags: MW
HStem: -8 47 308 28 655 34 708 13
VStem: 47 89 312 67<308 308 308 339 308 348> 576 71
LayerCount: 2
Back
Fore
SplineSet
382 655 m 1
 379 339 l 1
 393 336 407 336 421 336 c 0
 461 336 503 351 531 380 c 1
 567 415 578 466 578 515 c 0
 578 556 567 596 538 625 c 0
 524 639 503 644 484 648 c 0
 449 654 417 655 382 655 c 1
512 83 m 2
 418 304 l 1
 379 308 l 1
 371 257 364 207 346 159 c 0
 334 125 314 91 288 66 c 1
 246 23 195 -5 135 -5 c 0
 108 -5 80 -1 60 18 c 1
 46 33 33 49 33 70 c 0
 33 81 37 93 45 101 c 0
 52 108 62 112 72 112 c 0
 81 112 88 108 94 102 c 0
 102 94 109 85 114 76 c 0
 119 67 125 57 131 51 c 0
 142 40 159 39 175 39 c 0
 207 39 233 54 256 77 c 0
 278 99 289 128 297 158 c 0
 308 200 312 244 312 287 c 0
 312 409 314 527 314 650 c 1
 254 650 198 639 155 596 c 0
 139 581 123 560 123 538 c 0
 123 528 125 516 127 505 c 0
 129 493 134 482 134 470 c 0
 134 459 128 448 120 439 c 1
 112 432 103 425 92 425 c 0
 82 425 75 431 69 438 c 0
 56 453 52 470 52 490 c 0
 52 533 74 573 104 604 c 1
 162 661 248 678 313 684 c 1
 376 712 l 1
 385 708 l 1
 385 687 l 1
 434 687 476 686 524 678 c 0
 554 673 585 664 607 642 c 0
 637 612 649 568 649 526 c 0
 649 476 636 425 600 389 c 0
 567 356 522 328 480 318 c 1
 521 219 l 2
 543 164 570 112 612 70 c 0
 620 61 634 56 646 56 c 0
 657 56 666 63 673 70 c 0
 684 82 689 91 694 106 c 1
 711 94 l 1
 702 65 690 43 669 22 c 0
 654 7 636 -6 614 -6 c 0
 596 -6 578 -4 565 8 c 0
 543 30 524 55 512 83 c 2
EndSplineSet
AlternateSubs2: "'ssty' Script Style lookup 0-1" uni211B.ssty1 uni211B.ssty2
EndChar

StartChar: uni211C
Encoding: 8476 8476 166
Width: 828
Flags: MW
HStem: -27 21<693 693> 26 80<95.5 150> 341 47 628 58
VStem: 27 64 112 75 352 82 629 82
LayerCount: 2
Fore
SplineSet
432 348 m 1
 453 359 502 381 547 388 c 1
 676 463 l 1
 663 464 649 469 639 479 c 0
 632 486 625 523 623 548 c 0
 622 567 616 585 607 601 c 0
 599 617 583 628 565 628 c 0
 540 628 513 618 496 600 c 1
 471 576 452 550 430 512 c 1
 431 507 435 464 435 451 c 0
 435 418 435 382 432 348 c 1
418 548 m 1
 422 553 l 2
 438 573 456 594 474 612 c 0
 516 654 569 686 629 686 c 0
 651 686 673 677 687 660 c 0
 702 642 706 615 709 591 c 0
 711 575 710 558 714 541 c 0
 717 527 722 513 761 513 c 0
 774 513 787 515 799 517 c 1
 806 504 l 1
 777 493 746 477 719 463 c 0
 684 445 631 416 596 388 c 1
 647 388 672 373 698 351 c 1
 701 285 705 181 714 154 c 0
 721 132 729 111 741 91 c 0
 748 81 755 69 767 69 c 0
 772 69 806 82 826 90 c 1
 826 74 l 1
 693 -27 l 1
 629 90 l 1
 630 121 632 150 632 179 c 0
 632 277 615 296 603 308 c 0
 582 329 549 343 520 343 c 0
 497 343 455 332 428 324 c 1
 425 302 421 279 416 257 c 0
 404 206 389 163 360 119 c 1
 304 74 247 19 192 -27 c 1
 170 -5 132 26 111 26 c 0
 80 26 56 8 38 -16 c 1
 27 0 l 1
 43 25 61 55 88 78 c 0
 104 92 121 106 144 106 c 0
 156 106 178 99 192 89 c 0
 210 76 224 63 238 48 c 1
 273 72 301 100 320 138 c 0
 334 166 339 197 344 228 c 0
 350 274 354 320 354 367 c 0
 354 414 353 494 314 551 c 0
 288 590 243 623 196 623 c 0
 156 623 140 616 117 593 c 0
 101 578 99 558 99 536 c 0
 99 524 120 493 135 476 c 1
 146 462 165 439 175 422 c 0
 181 411 188 394 188 384 c 0
 188 355 174 332 156 312 c 0
 134 287 97 266 65 250 c 1
 50 261 l 1
 68 271 86 287 99 303 c 0
 109 315 114 327 114 342 c 0
 114 352 107 361 101 369 c 0
 92 382 80 399 70 412 c 0
 47 440 29 464 29 502 c 0
 29 542 52 572 80 600 c 0
 104 624 170 686 263 686 c 0
 309 686 352 652 382 615 c 0
 397 597 409 573 418 548 c 1
EndSplineSet
AlternateSubs2: "'ssty' Script Style lookup 0-1" uni211C.ssty1 uni211C.ssty2
EndChar
StartChar: uni2127
Encoding: 8487 8487 1525
Width: 875
Flags: W
HStem: 622 67 -2 38
VStem: 683 88<332 370.5 301.5 398.5> 100 90<277 343>
LayerCount: 2
Back
Fore
SplineSet
34 627 m 1xa0
 25 636 l 1
 50 689 l 1
 165 680 281 680 396 688 c 1
 387 630 l 1
 340 619 297 594 263 560 c 0
 236 534 220 499 209 463 c 0
 195 416 190 367 190 319 c 0
 190 235 212 150 272 90 c 0
 312 50 369 33 425 33 c 0
 487 33 551 50 595 95 c 1
 626 125 646 164 660 205 c 0
 676 254 683 306 683 358 c 0
 683 439 662 522 604 581 c 0
 575 610 535 626 494 634 c 1
 515 689 l 1
 625 679 734 675 844 683 c 1
 827 622 l 1
 766 625 690 628 637 633 c 1
 631 618 l 1
 657 604 681 588 702 567 c 0
 726 542 742 511 753 477 c 0
 766 436 771 392 771 349 c 0
 771 254 743 159 675 92 c 1
 605 21 504 -2 406 -2 c 0
 362 -2 317 3 275 17 c 0
 240 29 207 46 181 72 c 0
 121 132 100 218 100 302 c 0
 100 395 123 491 190 558 c 0
 219 586 248 609 285 624 c 1
 285 636 l 1
 200 632 104 627 34 627 c 1xa0
EndSplineSet
AlternateSubs2: "'ssty' Script Style lookup 0-1" uni2127.ssty1 uni2127.ssty2
Colour: ff00
EndChar
StartChar: uni2128
Encoding: 8488 8488 174
Width: 602
Flags: MW
HStem: -139 32 -16 53 319 56 597 74 709 20<160 176 176 176>
VStem: 112 85<-128 -32> 442 91<153 170.5>
LayerCount: 2
Back
Fore
SplineSet
181 309 m 1
 224 372 l 1
 268 375 305 400 336 431 c 0
 366 461 384 501 384 543 c 0
 384 557 378 570 368 580 c 0
 352 595 331 601 309 601 c 0
 286 601 263 598 240 596 c 0
 213 594 164 591 160 591 c 0
 139 591 117 592 102 607 c 0
 95 614 91 623 91 633 c 1
 160 729 l 1
 176 729 l 1
 172 722 168 713 168 705 c 0
 168 698 171 691 176 686 c 0
 192 671 225 671 251 671 c 0
 259 671 290 672 309 673 c 0
 325 673 341 676 357 676 c 0
 375 676 393 675 410 671 c 0
 422 668 434 663 442 655 c 0
 458 639 469 619 469 596 c 0
 469 546 446 499 410 463 c 0
 376 429 336 398 297 374 c 1
 302 372 l 1
 318 375 342 378 357 378 c 0
 418 378 482 361 517 309 c 1
 528 272 533 235 533 197 c 0
 533 109 502 25 453 -48 c 1
 384 -105 298 -139 208 -139 c 0
 176 -139 144 -136 112 -128 c 1
 112 -103 112 -67 111 -54 c 0
 110 -44 109 -34 102 -27 c 0
 95 -20 85 -16 75 -16 c 0
 64 -16 39 -30 23 -42 c 1
 11 -27 l 1
 34 -8 59 8 85 21 c 1
 106 30 127 37 149 37 c 0
 165 37 184 37 192 21 c 0
 197 11 197 -21 197 -43 c 0
 197 -60 197 -82 208 -93 c 0
 219 -104 243 -109 259 -109 c 0
 305 -109 338 -94 370 -62 c 0
 395 -37 414 2 424 35 c 0
 437 75 442 117 442 159 c 0
 442 182 440 205 434 227 c 0
 429 243 422 259 410 271 c 0
 377 305 330 319 283 319 c 0
 251 319 220 312 192 298 c 1
 181 309 l 1
EndSplineSet
AlternateSubs2: "'ssty' Script Style lookup 0-1" uni2128.ssty1 uni2128.ssty2
EndChar
StartChar: uni212C
Encoding: 8492 8492 448
Width: 761
Flags: MW
HStem: -4 53 352 28 651 35
VStem: 42 80<454 499.5> 289 70<394.5 401 401 652 652 652> 566 69<532 543>
LayerCount: 2
Back
Fore
SplineSet
517 393 m 1
 520 385 l 1
 563 377 615 365 640 340 c 0
 667 313 683 269 683 231 c 0
 683 180 652 131 617 95 c 1
 550 29 443 -1 350 -1 c 2
 80 -1 l 1
 107 52 l 1
 157 52 193 65 228 100 c 0
 251 124 268 158 275 191 c 0
 287 242 289 303 289 356 c 2
 289 652 l 1
 249 648 184 627 146 589 c 0
 127 571 111 548 111 521 c 0
 111 510 114 499 116 488 c 0
 118 478 122 470 122 460 c 0
 122 448 121 436 113 428 c 0
 104 419 91 413 78 413 c 0
 71 413 64 417 59 423 c 0
 44 437 42 458 42 478 c 0
 42 521 63 561 93 592 c 1
 145 643 217 669 289 680 c 1
 349 712 l 1
 359 705 l 1
 359 682 l 1
 412 682 465 682 515 674 c 0
 547 669 580 659 602 636 c 0
 624 614 635 584 635 554 c 0
 635 510 619 476 588 445 c 0
 567 424 543 407 517 393 c 1
384 386 m 0
 437 386 490 401 528 439 c 0
 554 464 566 491 566 527 c 0
 566 559 556 590 534 612 c 0
 516 630 492 639 469 645 c 0
 433 653 396 655 359 655 c 1
 359 401 l 2
 359 388 375 386 384 386 c 0
224 51 m 1
 389 51 l 2
 426 51 467 53 505 60 c 0
 527 64 547 74 565 94 c 0
 594 125 610 174 610 219 c 0
 610 253 595 294 571 318 c 0
 555 334 534 346 512 352 c 0
 483 361 453 361 423 361 c 0
 401 361 378 359 356 357 c 1
 349 304 342 242 321 192 c 0
 301 144 256 86 219 59 c 1
 224 51 l 1
EndSplineSet
AlternateSubs2: "'ssty' Script Style lookup 0-1" uni212C.ssty1 uni212C.ssty2
EndChar
StartChar: uni212D
Encoding: 8493 8493 151
Width: 612
Flags: MW
HStem: -20 66 666 20<506 506>
VStem: 59 80<320 350.5> 304 96<355 414.5>
LayerCount: 2
Back
Fore
SplineSet
267 601 m 1
 299 585 l 1
 362 630 434 659 506 686 c 1
 534 605 l 2
 538 596 539 593 544 587 c 0
 548 583 555 582 563 582 c 0
 579 582 601 587 613 591 c 1
 613 568 l 1
 578 551 535 532 496 527 c 1
 469 543 439 591 416 628 c 1
 403 624 392 617 384 607 c 0
 368 587 367 569 367 560 c 0
 367 542 373 512 380 492 c 0
 385 476 400 430 400 399 c 0
 400 364 393 328 368 303 c 0
 330 266 279 247 226 239 c 1
 214 255 l 1
 242 262 267 277 288 298 c 0
 304 314 304 343 304 367 c 0
 304 390 293 437 283 474 c 0
 278 493 274 514 274 534 c 0
 274 544 275 554 277 564 c 1
 242 563 209 549 187 522 c 0
 151 477 139 419 139 362 c 0
 139 278 159 193 219 133 c 0
 278 73 361 46 444 46 c 0
 478 46 502 52 516 59 c 2
 602 106 l 1
 602 86 l 1
 560 51 506 15 458 -16 c 1
 431 -22 404 -24 376 -24 c 0
 288 -24 200 4 138 65 c 0
 108 95 92 131 79 171 c 0
 63 219 59 269 59 319 c 0
 59 382 74 444 102 500 c 1
 153 539 208 575 267 601 c 1
EndSplineSet
AlternateSubs2: "'ssty' Script Style lookup 0-1" uni212D.ssty1 uni212D.ssty2
EndChar

StartChar: uni2130
Encoding: 8496 8496 451
Width: 608
Flags: MW
HStem: -12 36<302.5 347> 364 25<401 418> 675 32
VStem: 69 80<165.5 200> 420 71
LayerCount: 2
Fore
SplineSet
484 154 m 1
 528 106 l 1
 522 93 513 75 506 68 c 0
 453 16 384 -12 310 -12 c 0
 271 -12 232 -8 195 4 c 0
 165 14 136 29 113 51 c 0
 81 83 69 128 69 173 c 0
 69 227 93 279 131 318 c 1
 167 353 214 372 264 379 c 1
 265 389 l 1
 236 399 208 413 187 434 c 0
 159 462 150 501 150 540 c 0
 150 581 167 621 196 650 c 0
 240 694 295 702 356 702 c 0
 393 702 432 695 459 668 c 0
 473 654 485 629 485 605 c 0
 485 584 484 567 470 548 c 0
 458 532 436 525 424 525 c 0
 412 525 407 526 400 533 c 0
 396 537 393 545 393 553 c 0
 393 562 397 569 402 577 c 0
 408 587 414 598 414 614 c 0
 414 632 405 646 395 654 c 0
 381 666 364 671 340 671 c 0
 312 671 281 665 261 645 c 0
 231 614 216 571 216 528 c 0
 216 493 228 458 253 434 c 0
 271 416 294 407 317 401 c 0
 350 392 384 389 418 389 c 1
 418 364 l 1
 372 364 327 361 282 350 c 0
 252 343 218 331 196 309 c 0
 164 277 149 234 149 188 c 0
 149 143 162 98 194 66 c 0
 228 32 279 24 326 24 c 0
 370 24 409 47 440 78 c 0
 459 97 468 123 472 151 c 1
 484 154 l 1
EndSplineSet
AlternateSubs2: "'ssty' Script Style lookup 0-1" uni2130.ssty1 uni2130.ssty2
EndChar
StartChar: uni2131
Encoding: 8497 8497 452
Width: 649
Flags: MW
ItalicCorrection: 27
HStem: -15 40<144 238> 343 31 650 32
VStem: 62 76 378 70
LayerCount: 2
Back
Fore
SplineSet
694 692 m 1
 710 683 l 1
 672 610 l 2
 663 593 643 575 622 575 c 0
 609 575 593 579 579 584 c 1
 535 596 463 618 450 623 c 1
 448 375 l 1
 592 375 l 1
 571 347 l 1
 448 347 l 1
 448 298 l 2
 448 254 443 210 430 169 c 0
 419 135 406 108 378 77 c 0
 324 18 244 -15 163 -15 c 0
 125 -15 89 -1 62 26 c 0
 47 41 38 62 38 82 c 0
 38 94 42 102 51 111 c 0
 59 119 71 123 84 123 c 0
 99 123 104 121 121 85 c 1
 126 72 135 60 144 51 c 0
 164 31 190 25 217 25 c 0
 259 25 298 50 325 81 c 0
 344 103 356 127 364 154 c 0
 375 188 377 224 378 259 c 0
 379 288 380 319 380 347 c 1
 218 347 l 1
 232 375 l 1
 380 375 l 1
 385 640 l 1
 361 646 330 649 306 649 c 0
 256 649 211 638 174 601 c 0
 155 582 136 547 136 531 c 0
 136 517 137 506 140 492 c 0
 143 481 148 467 148 456 c 0
 148 444 145 435 137 426 c 1
 129 419 120 412 109 412 c 0
 96 412 87 418 78 426 c 0
 66 438 64 455 64 472 c 0
 64 523 92 570 128 606 c 0
 185 663 253 678 332 678 c 0
 348 678 379 676 394 674 c 1
 443 699 l 1
 450 696 l 1
 450 668 l 1
 499 656 547 646 598 638 c 0
 609 636 623 634 630 634 c 0
 646 634 663 644 671 656 c 2
 694 692 l 1
EndSplineSet
AlternateSubs2: "'ssty' Script Style lookup 0-1" uni2131.ssty1 uni2131.ssty2
EndChar
StartChar: uni2133
Encoding: 8499 8499 459
Width: 982
Flags: MW
HStem: -12 58 644 54
VStem: 45 23 242 38<308.5 341 341 567> 734 62<323 403>
LayerCount: 2
Back
Fore
SplineSet
796 595 m 2
 796 270 l 2
 796 217 799 164 808 112 c 0
 813 83 816 66 836 45 c 0
 843 39 851 35 861 35 c 0
 877 35 892 43 903 55 c 1
 918 69 931 86 942 104 c 1
 961 89 l 1
 947 68 930 49 912 31 c 0
 890 9 864 -13 832 -13 c 0
 808 -13 786 -3 770 13 c 0
 745 38 741 62 737 97 c 1
 734 135 734 278 734 368 c 0
 734 438 730 508 733 578 c 1
 671 515 630 435 599 353 c 1
 557 246 533 139 518 25 c 1
 474 -10 l 1
 465 -3 l 1
 450 120 430 236 392 354 c 0
 378 397 362 440 340 481 c 0
 324 512 305 542 280 567 c 1
 280 341 l 2
 280 276 274 211 257 148 c 0
 245 102 227 58 193 24 c 0
 171 2 142 -10 111 -10 c 0
 86 -10 63 0 45 17 c 1
 35 28 27 42 27 58 c 0
 27 70 32 79 40 88 c 0
 47 95 57 99 67 99 c 0
 84 99 97 89 104 74 c 0
 112 57 128 46 146 46 c 0
 163 46 178 58 190 70 c 0
 211 91 221 120 229 149 c 0
 239 190 242 232 242 274 c 2
 242 604 l 1
 222 628 193 644 162 644 c 0
 139 644 118 633 102 617 c 0
 79 595 70 564 65 533 c 1
 44 532 l 1
 48 558 53 583 62 607 c 0
 69 625 78 642 91 656 c 0
 117 682 152 699 189 699 c 0
 232 699 272 680 302 649 c 1
 305 649 l 1
 360 594 392 527 423 455 c 0
 460 367 486 281 505 188 c 1
 511 186 l 1
 534 276 563 354 605 436 c 0
 639 504 680 569 734 622 c 0
 774 662 826 698 884 698 c 0
 901 698 919 693 932 680 c 0
 939 673 945 664 945 654 c 0
 945 645 944 635 937 629 c 1
 928 619 916 613 903 613 c 0
 896 613 887 613 883 617 c 0
 878 622 873 627 870 633 c 0
 868 638 867 644 863 648 c 0
 857 654 849 659 840 659 c 0
 831 659 822 655 815 649 c 1
 803 636 796 612 796 595 c 2
EndSplineSet
AlternateSubs2: "'ssty' Script Style lookup 0-1" uni2133.ssty1 uni2133.ssty2
EndChar

StartChar: uni2135
Encoding: 8501 8501 413
Width: 774
Flags: MW
HStem: 1 90<120 120 240 311 95 120> 560 90<528 540> 669 20G<78 109 109 109 442 466 466 466>
VStem: 78 31<533 689 689 689> 120 54 460 46<342 370 370 379 342 403.5>
LayerCount: 2
Fore
SplineSet
325 91 m 1
 311 1 l 1
 95 1 l 1
 120 91 l 1
 122 143 123 196 132 238 c 0
 140 275 189 344 233 388 c 1
 185 426 98 496 78 533 c 1
 78 689 l 1
 109 689 l 1
 115 623 156 570 207 529 c 0
 287 464 459 326 460 326 c 1
 460 370 l 2
 460 437 492 507 540 560 c 1
 516 560 468 560 458 571 c 0
 447 582 442 585 442 600 c 2
 442 689 l 1
 466 689 l 1
 469 678 474 667 482 659 c 0
 491 650 510 650 525 650 c 2
 645 650 l 2
 668 650 689 634 689 611 c 2
 689 539 l 1
 674 534 l 1
 663 548 648 561 630 561 c 2
 582 561 l 1
 559 545 528 485 522 468 c 0
 508 427 506 402 506 356 c 0
 506 328 525 277 545 257 c 0
 584 219 646 174 689 143 c 1
 668 1 l 1
 651 1 l 1
 606 74 512 162 439 221 c 2
 256 369 l 1
 237 352 207 308 192 283 c 0
 179 262 174 241 174 210 c 0
 174 160 212 91 240 91 c 2
 325 91 l 1
EndSplineSet
AlternateSubs2: "'ssty' Script Style lookup 0-1" uni2135.ssty1 uni2135.ssty2
EndChar
StartChar: uni2190
Encoding: 8592 8592 12
Width: 1000
Flags: W
HStem: 0 21G<186.5 242> 230 40<127 945>
VStem: 202 40<0 60.2219 441.611 500>
LayerCount: 2
Back
Fore
SplineSet
945 230 m 1
 127 230 l 1
 165 183 217 104 242 0 c 1
 202 0 l 1
 171 130 89 220 57 250 c 1
 87 278 171 369 202 500 c 1
 242 500 l 1
 217 395 164 316 127 270 c 1
 945 270 l 1
 945 230 l 1
EndSplineSet
AlternateSubs2: "'ssty' Script Style lookup 0-1" uni2190.ssty1
Colour: ffff
EndChar

StartChar: uni2191
Encoding: 8593 8593 14
Width: 500
Flags: W
HStem: -194.179 21G<230.001 270.001> 508 40<28 82.785 418.165 472> 673 20G<219.5 277.5>
VStem: 230.001 40<-194.179 617>
LayerCount: 2
Fore
SplineSet
270 617 m 1
 270.001 -194.179 l 1
 230.001 -194.179 l 1
 230 617 l 1
 177 572 109 529 28 508 c 1
 28 548 l 1
 107 569 189 619 250 693 c 1
 305 627 384 571 472 548 c 1
 472 508 l 1
 393 529 324 571 270 617 c 1
EndSplineSet
AlternateSubs2: "'ssty' Script Style lookup 0-1" uni2191.ssty1
Colour: ffff
EndChar
StartChar: uni2192
Encoding: 8594 8594 13
Width: 1000
Flags: W
HStem: 0 21G<759 814.5> 230 40<56 874>
VStem: 759 40<0 58.3888 439.778 500>
LayerCount: 2
Back
Fore
SplineSet
874 230 m 1
 56 230 l 1
 56 270 l 1
 874 270 l 1
 836 317 784 396 759 500 c 1
 799 500 l 1
 830 370 912 280 944 250 c 1
 914 222 830 131 799 0 c 1
 759 0 l 1
 784 105 837 184 874 230 c 1
EndSplineSet
AlternateSubs2: "'ssty' Script Style lookup 0-1" uni2192.ssty1
Colour: ffff
EndChar

StartChar: uni2193
Encoding: 8595 8595 15
Width: 500
Flags: W
HStem: -193 21G<222.5 280.5> -48 40<28 81.8345 417.215 472>
VStem: 230 40<-117 674.002>
LayerCount: 2
Fore
SplineSet
270.001 674.002 m 1
 270 -117 l 1
 323 -72 391 -29 472 -8 c 1
 472 -48 l 1
 393 -69 311 -119 250 -193 c 1
 195 -127 116 -71 28 -48 c 1
 28 -8 l 1
 107 -29 176 -71 230 -117 c 1
 230.001 674.002 l 1
 270.001 674.002 l 1
EndSplineSet
AlternateSubs2: "'ssty' Script Style lookup 0-1" uni2193.ssty1
Colour: ffff
EndChar

StartChar: uni2194
Encoding: 8596 8596 16
Width: 1000
Flags: W
HStem: 0 21G<186.5 242 759 814.5> 230 40<127 874>
VStem: 202 40<0 60.2219 441.611 500> 759 40<0 58.3888 439.778 500>
LayerCount: 2
Fore
SplineSet
874 230 m 1
 127 230 l 1
 165 183 217 104 242 0 c 1
 202 0 l 1
 171 130 89 220 57 250 c 1
 87 278 171 369 202 500 c 1
 242 500 l 1
 217 395 164 316 127 270 c 1
 874 270 l 1
 836 317 784 396 759 500 c 1
 799 500 l 1
 830 370 912 280 944 250 c 1
 914 222 830 131 799 0 c 1
 759 0 l 1
 784 105 837 184 874 230 c 1
EndSplineSet
AlternateSubs2: "'ssty' Script Style lookup 0-1" uni2194.ssty1
Colour: ffff
EndChar
StartChar: uni2195
Encoding: 8597 8597 32
Width: 500
Flags: W
HStem: -126 40<28 81.8345 417.215 472> 586 40<28 82.785 418.165 472>
VStem: 230 40<-195 695>
LayerCount: 2
Back
Fore
SplineSet
270 695 m 1
 270 -195 l 1
 323 -150 391 -107 472 -86 c 1
 472 -126 l 1
 393 -147 311 -197 250 -271 c 1
 195 -205 116 -149 28 -126 c 1
 28 -86 l 1
 107 -107 176 -149 230 -195 c 1
 230 695 l 1
 177 650 109 607 28 586 c 1
 28 626 l 1
 107 647 189 697 250 771 c 1
 305 705 384 649 472 626 c 1
 472 586 l 1
 393 607 324 649 270 695 c 1
EndSplineSet
AlternateSubs2: "'ssty' Script Style lookup 0-1" uni2195.ssty1
Colour: ffff
EndChar
StartChar: uni2196
Encoding: 8598 8598 24
Width: 1000
Flags: W
HStem: -193 21G<894 934.714>
DStem2: 121 657 92 629 0.707107 -0.707107<0 1161.78>
LayerCount: 2
Back
Fore
SplineSet
121 657 m 1
 943 -165 l 1
 914 -193 l 1
 92 629 l 1
 81 509 30 416 11 386 c 1
 -17 414 l 1
 56 536 56 649 56 694 c 1
 101 694 214 694 336 767 c 1
 364 739 l 1
 335 720 247 672 121 657 c 1
EndSplineSet
AlternateSubs2: "'ssty' Script Style lookup 0-1" uni2196.ssty1
Colour: ffff
EndChar
StartChar: uni2197
Encoding: 8599 8599 17
Width: 1000
Flags: W
HStem: -193 21G<66.6897 106>
DStem2: 58 -164 86 -193 0.707107 0.707107<0 1161.78>
LayerCount: 2
Back
Fore
SplineSet
908 629 m 1
 86 -193 l 1
 58 -164 l 1
 880 658 l 1
 760 669 667 720 637 739 c 1
 665 767 l 1
 787 694 900 694 945 694 c 1
 945 649 945 536 1018 414 c 1
 990 386 l 1
 971 415 923 503 908 629 c 1
EndSplineSet
AlternateSubs2: "'ssty' Script Style lookup 0-1" uni2197.ssty1
Colour: ffff
EndChar
StartChar: uni2198
Encoding: 8600 8600 18
Width: 1000
Flags: W
HStem: 674 20G<65.2857 106>
DStem2: 86 694 57 666 0.707107 -0.707107<0 1163.19>
LayerCount: 2
Back
Fore
SplineSet
880 -157 m 1
 57 666 l 1
 86 694 l 1
 909 -129 l 1
 920 -9 971 84 990 114 c 1
 1018 86 l 1
 945 -36 945 -149 945 -194 c 1
 900 -194 787 -194 665 -267 c 1
 637 -239 l 1
 666 -220 754 -172 880 -157 c 1
EndSplineSet
AlternateSubs2: "'ssty' Script Style lookup 0-1" uni2198.ssty1
Colour: ffff
EndChar

StartChar: uni2199
Encoding: 8601 8601 25
Width: 1000
Flags: W
HStem: 674 20G<896 935.31>
DStem2: 93 -129 121 -158 0.707107 0.707107<0 1163.19>
LayerCount: 2
Fore
SplineSet
944 665 m 1
 121 -158 l 1
 241 -169 334 -220 364 -239 c 1
 336 -267 l 1
 214 -194 101 -194 56 -194 c 1
 56 -149 56 -36 -17 86 c 1
 11 114 l 1
 30 85 78 -3 93 -129 c 1
 916 694 l 1
 944 665 l 1
EndSplineSet
AlternateSubs2: "'ssty' Script Style lookup 0-1" uni2199.ssty1
Colour: ffff
EndChar
StartChar: uni21A6
Encoding: 8614 8614 1880
Width: 1000
Flags: W
HStem: 0 21G<759 814.5> 230 40<96 874>
VStem: 56 40<50 230 270 450> 759 40<0 58.3888 439.778 500>
LayerCount: 2
Back
Fore
SplineSet
56 50 m 1
 56 450 l 1
 96 450 l 1
 96 270 l 1
 874 270 l 1
 836 317 784 396 759 500 c 1
 799 500 l 1
 830 370 912 280 944 250 c 1
 914 222 830 131 799 0 c 1
 759 0 l 1
 784 105 837 184 874 230 c 1
 96 230 l 1
 96 50 l 1
 56 50 l 1
EndSplineSet
AlternateSubs2: "'ssty' Script Style lookup 0-1" uni21A6.ssty
Colour: ff00
EndChar

StartChar: uni21AA
Encoding: 8618 8618 1895
Width: 1000
Flags: W
HStem: 230 40<152.262 218> 514 40<152.262 218>
VStem: 56 40<325.805 458.195> 759 40<0 60.2219 441.611 500>
LayerCount: 2
Fore
SplineSet
218 270 m 0
 150.663 270 96 324.663 96 392 c 0
 96 459.337 150.663 514 218 514 c 0
 218 554 l 0
 128.569 554 56 481.431 56 392 c 0
 56 302.569 128.569 230 218 230 c 0
 874 230 l 1
 836 183 784 104 759 0 c 1
 799 0 l 1
 830 130 912 220 944 250 c 1
 914 278 830 369 799 500 c 1
 759 500 l 1
 784 395 837 316 874 270 c 1
 218 270 l 0
EndSplineSet
AlternateSubs2: "'ssty' Script Style lookup 0-1" uni21AA.ssty
Colour: ff00
EndChar
StartChar: uni21BC
Encoding: 8636 8636 8
Width: 1000
Flags: MW
HStem: 230 40<137 910 137 910>
VStem: 204 40
LayerCount: 2
Back
Fore
SplineSet
910 230 m 2
 56 230 l 1
 56 242 56 247 57 249 c 0
 58 250 59 251 73 264 c 1
 102 287 185 366 202 500 c 1
 242 500 l 1
 229 390 175 313 137 270 c 1
 910 270 l 2
 927 270 945 270 945 250 c 0
 945 230 928 230 910 230 c 2
EndSplineSet
AlternateSubs2: "'ssty' Script Style lookup 0-1" uni21BC.ssty1
EndChar
StartChar: uni21BD
Encoding: 8637 8637 9
Width: 1000
Flags: MW
HStem: 230 40<137 910 137 137>
VStem: 204 40
LayerCount: 2
Back
Fore
SplineSet
910 230 m 2
 137 230 l 1
 171 191 229 115 242 0 c 1
 202 0 l 1
 190 95 142 179 69 240 c 0
 57 251 56 252 56 270 c 1
 910 270 l 2
 927 270 945 270 945 250 c 0
 945 230 928 230 910 230 c 2
EndSplineSet
AlternateSubs2: "'ssty' Script Style lookup 0-1" uni21BD.ssty1
EndChar

StartChar: uni21BE
Encoding: 8638 8638 1527
Width: 298
Flags: W
HStem: -194 21G<38 58> 508 40<216.165 270> 673 20G<28 75.5>
VStem: 28 40<-193.987 617>
LayerCount: 2
Fore
SplineSet
28 692.999 m 25
 48 693 l 1
 103 627 182 571 270 548 c 1
 270 508 l 1
 191 529 122 571 68 617 c 1
 68 -159 l 2
 68 -176 68 -194 48 -194 c 0
 28 -194 28 -177 28 -159 c 2
 28 617 l 1
 28 692.999 l 25
EndSplineSet
AlternateSubs2: "'ssty' Script Style lookup 0-1" uni21BE.ssty1
Colour: ff00
EndChar

StartChar: uni21BF
Encoding: 8639 8639 1528
Width: 298
Flags: W
HStem: -194 21G<240 260> 508 40<28 81.8345> 673 20G<222.5 270>
VStem: 230 40<-193.987 617>
LayerCount: 2
Fore
SplineSet
270 692.999 m 25
 270 617 l 1
 270 -159 l 2
 270 -177 270 -194 250 -194 c 0
 230 -194 230 -176 230 -159 c 2
 230 617 l 1
 176 571 107 529 28 508 c 1
 28 548 l 1
 116 571 195 627 250 693 c 1
 270 692.999 l 25
EndSplineSet
AlternateSubs2: "'ssty' Script Style lookup 0-1" uni21BF.ssty1
Colour: ff00
EndChar
StartChar: uni21C0
Encoding: 8640 8640 10
Width: 1000
Flags: MW
HStem: 230 40<82.5 864 91 864 91 945>
VStem: 757 40
LayerCount: 2
Back
Fore
SplineSet
945 230 m 1
 91 230 l 2
 74 230 56 230 56 250 c 0
 56 270 73 270 91 270 c 2
 864 270 l 1
 830 309 772 385 759 500 c 1
 799 500 l 1
 811 405 859 321 932 260 c 0
 944 249 945 248 945 230 c 1
EndSplineSet
AlternateSubs2: "'ssty' Script Style lookup 0-1" uni21C0.ssty1
EndChar
StartChar: uni21C1
Encoding: 8641 8641 11
Width: 1000
Flags: MW
HStem: 230 40<82.5 945 91 864>
VStem: 757 40
LayerCount: 2
Back
Fore
SplineSet
864 230 m 1
 91 230 l 2
 74 230 56 230 56 250 c 0
 56 270 73 270 91 270 c 2
 945 270 l 1
 945 258 945 253 944 251 c 0
 943 250 942 249 928 236 c 1
 899 213 816 134 799 0 c 1
 759 0 l 1
 772 110 826 187 864 230 c 1
EndSplineSet
AlternateSubs2: "'ssty' Script Style lookup 0-1" uni21C1.ssty1
EndChar
StartChar: uni21C2
Encoding: 8642 8642 1529
Width: 298
Flags: W
HStem: -194 21G<28 75.5> -49 40<216.165 270> 673 20G<38 58>
VStem: 28 40<-118 692.987>
LayerCount: 2
Back
Fore
SplineSet
28 -193.999 m 25
 28 -118 l 1
 28 658 l 2
 28 676 28 693 48 693 c 0
 68 693 68 675 68 658 c 2
 68 -118 l 1
 122 -72 191 -30 270 -9 c 1
 270 -49 l 1
 182 -72 103 -128 48 -194 c 1
 28 -193.999 l 25
EndSplineSet
AlternateSubs2: "'ssty' Script Style lookup 0-1" uni21C2.ssty1
Colour: ff00
EndChar

StartChar: uni21C3
Encoding: 8643 8643 1530
Width: 298
Flags: W
HStem: -194 21G<222.5 270> -49 40<28 81.8345> 673 20G<240 260>
VStem: 230 40<-118 692.987>
LayerCount: 2
Fore
SplineSet
270 -193.999 m 25
 250 -194 l 1
 195 -128 116 -72 28 -49 c 1
 28 -9 l 1
 107 -30 176 -72 230 -118 c 1
 230 658 l 2
 230 675 230 693 250 693 c 0
 270 693 270 676 270 658 c 2
 270 -118 l 1
 270 -193.999 l 25
EndSplineSet
AlternateSubs2: "'ssty' Script Style lookup 0-1" uni21C3.ssty1
Colour: ff00
EndChar
StartChar: uni21CB
Encoding: 8651 8651 1531
Width: 999
Flags: W
HStem: 132 40<55.0131 863> 329 40<136 943.987>
VStem: 201 40<518.969 599> 758 40<-98 -17.9685>
LayerCount: 2
Back
Fore
SplineSet
863 132 m 1
 90 132 l 2
 73 132 55 132 55 152 c 0
 55 172 72 172 90 172 c 2
 944 172 l 1
 944 160 944 155 943 153 c 0
 942 152 941 151 927 138 c 1
 898 115 815 36 798 -98 c 1
 758 -98 l 1
 771 12 825 89 863 132 c 1
EndSplineSet
Refer: 8 8636 S 1 0 0 1 -1 99 2
AlternateSubs2: "'ssty' Script Style lookup 0-1" uni21CB.ssty1
Colour: ff00
EndChar

StartChar: uni21CC
Encoding: 8652 8652 1532
Width: 999
Flags: W
HStem: 132 40<909 943.987> 329 40<55.0131 90>
VStem: 201 40<-98 -17.9685> 758 40<518.969 599>
LayerCount: 2
Fore
SplineSet
136 132 m 1
 909 132 l 2
 926 132 944 132 944 152 c 0
 944 172 927 172 909 172 c 2
 55 172 l 1
 55 160 55 155 56 153 c 0
 57 152 58 151 72 138 c 1
 101 115 184 36 201 -98 c 1
 241 -98 l 1
 228 12 174 89 136 132 c 1
90 329 m 2
 944 329 l 1
 944 341 944 346 943 348 c 0
 942 349 941 350 927 363 c 1
 898 386 815 465 798 599 c 1
 758 599 l 1
 771 489 825 412 863 369 c 1
 90 369 l 2
 73 369 55 369 55 349 c 0
 55 329 72 329 90 329 c 2
EndSplineSet
AlternateSubs2: "'ssty' Script Style lookup 0-1" uni21CC.ssty1
Colour: ff00
EndChar
StartChar: uni21D0
Encoding: 8656 8656 19
Width: 1000
Flags: W
HStem: 131.611 40<269.913 922.473> 328.39 40<269.914 922.473>
VStem: 55.4434 76.3136<211.843 288.157>
LayerCount: 2
Back
Fore
SplineSet
55.4434 250 m 1
 200.608 321.554 312.576 446.347 368.031 598.391 c 1
 408.19 598.391 l 1
 377 512.877 329.829 434.958 269.914 368.39 c 1
 922.473 368.39 l 1
 922.473 328.39 l 1
 230.934 328.39 l 1
 200.418 299.463 167.248 273.204 131.757 250 c 1
 167.248 226.797 200.418 200.538 230.933 171.611 c 1
 922.473 171.611 l 1
 922.473 131.611 l 1
 269.913 131.611 l 1
 329.829 65.0433 377 -12.8768 408.19 -98.3906 c 1
 368.031 -98.3906 l 1
 312.576 53.6533 200.608 178.446 55.4434 250 c 1
EndSplineSet
AlternateSubs2: "'ssty' Script Style lookup 0-1" uni21D0.ssty1
Colour: ffff
EndChar
StartChar: uni21D1
Encoding: 8657 8657 21
Width: 667
Flags: W
HStem: 613.709 80.7367<291.962 372.699>
VStem: 213.941 40<-174.364 467.898> 410.72 40<-174.364 467.898>
LayerCount: 2
Back
Fore
SplineSet
332.331 694.446 m 1
 392.778 551.43 508.017 438.603 652.279 381.194 c 1
 652.279 341.035 l 1
 577.244 370.895 509.08 414.095 450.72 467.898 c 1
 450.72 -174.364 l 1
 410.72 -174.364 l 1
 410.72 508.118 l 1
 381.241 540.449 354.948 575.798 332.331 613.709 c 1
 309.713 575.798 283.42 540.449 253.941 508.119 c 1
 253.941 -174.364 l 1
 213.941 -174.364 l 1
 213.941 467.898 l 1
 155.581 414.095 87.417 370.895 12.3825 341.035 c 1
 12.3825 381.194 l 1
 156.645 438.603 271.883 551.43 332.331 694.446 c 1
EndSplineSet
AlternateSubs2: "'ssty' Script Style lookup 0-1" uni21D1.ssty1
Colour: ffff
EndChar
StartChar: uni21D2
Encoding: 8658 8658 20
Width: 1000
Flags: W
HStem: 131.611 40<75.5225 728.083> 328.39 40<75.5225 728.082>
VStem: 866.239 76.3137<211.843 288.157>
LayerCount: 2
Back
Fore
SplineSet
942.552 250 m 1
 797.388 178.446 685.42 53.6533 629.964 -98.3906 c 1
 589.806 -98.3906 l 1
 620.995 -12.8768 668.166 65.0433 728.083 131.611 c 1
 75.5225 131.611 l 1
 75.5225 171.611 l 1
 767.063 171.611 l 1
 797.578 200.538 830.748 226.797 866.239 250 c 1
 830.747 273.204 797.577 299.463 767.062 328.39 c 1
 75.5225 328.39 l 1
 75.5225 368.39 l 1
 728.082 368.39 l 1
 668.166 434.958 620.995 512.877 589.806 598.391 c 1
 629.964 598.391 l 1
 685.42 446.347 797.388 321.554 942.552 250 c 1
EndSplineSet
AlternateSubs2: "'ssty' Script Style lookup 0-1" uni21D2.ssty1
Colour: ffff
EndChar
StartChar: uni21D3
Encoding: 8659 8659 22
Width: 667
Flags: W
HStem: -194.444 80.7364<291.962 372.699>
VStem: 213.941 40<32.1023 674.366> 410.72 40<32.1023 674.366>
LayerCount: 2
Back
Fore
SplineSet
332.331 -194.444 m 1
 271.883 -51.4288 156.644 61.3975 12.3825 118.806 c 1
 12.3825 158.965 l 1
 87.4169 129.105 155.581 85.9056 213.941 32.1023 c 1
 213.941 674.366 l 1
 253.941 674.366 l 1
 253.941 -8.11779 l 1
 283.42 -40.4478 309.713 -75.7967 332.331 -113.707 c 1
 354.948 -75.7967 381.241 -40.4478 410.72 -8.11773 c 1
 410.72 674.366 l 1
 450.72 674.366 l 1
 450.72 32.1023 l 1
 509.08 85.9056 577.244 129.105 652.279 158.965 c 1
 652.279 118.806 l 1
 508.017 61.3975 392.778 -51.4288 332.331 -194.444 c 1
EndSplineSet
AlternateSubs2: "'ssty' Script Style lookup 0-1" uni21D3.ssty1
Colour: ffff
EndChar
StartChar: uni21D4
Encoding: 8660 8660 23
Width: 1000
Flags: W
HStem: 131.611 40<212.644 785.352> 328.39 40<212.644 785.351>
VStem: 33.2215 65.7275<217.136 282.864> 290.365 40.1587<-98.3906 -46.0099 546.01 598.391> 667.472 40.1587<-98.3906 -46.0099 546.01 598.391> 899.047 65.7275<217.136 282.864>
LayerCount: 2
Back
Fore
SplineSet
964.774 250 m 1
 841.637 166.802 750.848 43.7963 707.631 -98.3906 c 1
 667.472 -98.3906 l 1
 692.895 -14.7477 732.993 63.0428 785.352 131.611 c 1
 212.644 131.611 l 1
 265.002 63.0428 305.101 -14.7476 330.524 -98.3906 c 1
 290.365 -98.3906 l 1
 247.148 43.7963 156.359 166.802 33.2215 250 c 1
 156.359 333.199 247.148 456.204 290.365 598.391 c 1
 330.524 598.391 l 1
 305.101 514.748 265.002 436.958 212.644 368.39 c 1
 785.351 368.39 l 1
 732.993 436.958 692.895 514.748 667.472 598.391 c 1
 707.631 598.391 l 1
 750.848 456.204 841.637 333.199 964.774 250 c 1
818.212 171.611 m 1
 843.007 199.694 870.018 225.916 899.047 250 c 1
 870.017 274.085 843.007 300.306 818.212 328.39 c 1
 179.783 328.39 l 1
 154.988 300.306 127.978 274.085 98.949 250 c 1
 127.978 225.915 154.989 199.694 179.783 171.611 c 1
 818.212 171.611 l 1
EndSplineSet
AlternateSubs2: "'ssty' Script Style lookup 0-1" uni21D4.ssty1
Colour: ffff
EndChar

StartChar: uni21D5
Encoding: 8661 8661 33
Width: 667
Flags: W
HStem: -272.223 69.5477<297.557 367.104> 702.675 69.548<297.557 367.105>
VStem: 213.941 40<-82.6167 582.615> 410.72 40<-82.6167 582.615>
LayerCount: 2
Fore
SplineSet
332.331 -272.223 m 1
 260.238 -150.56 146.613 -59.0434 12.3825 -14.5298 c 1
 12.3825 25.6289 l 1
 85.8409 1.2685 153.93 -35.5132 213.941 -82.6167 c 1
 213.941 582.615 l 1
 153.93 535.511 85.8408 498.73 12.3825 474.369 c 1
 12.3825 514.528 l 1
 146.613 559.042 260.239 650.559 332.331 772.223 c 1
 404.422 650.559 518.048 559.042 652.279 514.528 c 1
 652.279 474.369 l 1
 578.821 498.73 510.731 535.512 450.72 582.615 c 1
 450.72 -82.6167 l 1
 510.731 -35.5132 578.82 1.26851 652.279 25.6289 c 1
 652.279 -14.5298 l 1
 518.048 -59.0434 404.423 -150.56 332.331 -272.223 c 1
253.941 -116.645 m 1
 282.427 -142.882 308.674 -171.65 332.331 -202.675 c 1
 355.987 -171.65 382.235 -142.882 410.72 -116.645 c 1
 410.72 616.643 l 1
 382.234 642.88 355.987 671.649 332.331 702.675 c 1
 308.675 671.65 282.426 642.88 253.941 616.643 c 1
 253.941 -116.645 l 1
EndSplineSet
AlternateSubs2: "'ssty' Script Style lookup 0-1" uni21D5.ssty1
Colour: ffff
EndChar

StartChar: uni2200
Encoding: 8704 8704 1731
Width: 555
Flags: W
HStem: -9.23926 63.4717<226.339 327.209> 410.556 40<141.571 411.979>
DStem2: 38.7783 681.461 1.37988 667.27 0.354761 -0.934957<0.000840217 246.969 289.752 670.863> 276.774 54.2324 295.474 -9.23926 0.354762 0.934956<0 381.112 423.895 670.863>
LayerCount: 2
Fore
SplineSet
126.393 450.556 m 1
 427.156 450.556 l 1
 514.771 681.461 l 1
 552.17 667.27 l 1
 295.474 -9.23926 l 1
 258.075 -9.23926 l 1
 1.37988 667.27 l 1
 38.7783 681.461 l 1
 126.393 450.556 l 1
141.571 410.556 m 1
 276.774 54.2324 l 1
 411.979 410.556 l 1
 141.571 410.556 l 1
EndSplineSet
AlternateSubs2: "'ssty' Script Style lookup 0-1" uni2200.ssty1 uni2200.ssty2
Colour: ffff
EndChar

StartChar: uni2202
Encoding: 8706 8706 356
Width: 560
Flags: MW
HStem: -11 45 421 36 640 62
VStem: 81 84 407 77
LayerCount: 2
Fore
SplineSet
101 548 m 1
 83 555 l 1
 96 593 113 631 144 657 c 0
 175 684 215 699 257 699 c 0
 311 699 365 669 399 628 c 0
 437 582 458 532 472 473 c 0
 483 425 485 371 485 322 c 0
 485 221 470 108 388 39 c 0
 355 11 314 -7 272 -7 c 0
 214 -7 161 2 126 44 c 0
 92 86 79 156 79 203 c 0
 79 279 103 359 162 409 c 0
 203 443 254 457 306 457 c 0
 315 457 323 457 331 456 c 0
 342 455 368 449 386 444 c 1
 390 448 l 1
 377 500 362 546 331 582 c 0
 302 617 266 642 220 642 c 0
 183 642 162 630 143 610 c 0
 126 592 112 573 101 548 c 1
383 125 m 0
 401 176 408 232 408 286 c 0
 408 326 404 366 396 405 c 1
 371 416 344 425 317 425 c 0
 285 425 254 411 229 390 c 0
 176 345 163 270 163 205 c 0
 163 179 170 113 202 75 c 0
 222 52 253 33 285 33 c 0
 308 33 323 40 341 54 c 1
 362 72 375 100 383 125 c 0
EndSplineSet
AlternateSubs2: "'ssty' Script Style lookup 0-1" uni2202.ssty1 uni2202.ssty2
EndChar
StartChar: uni2203
Encoding: 8707 8707 1732
Width: 555
Flags: W
HStem: 0.0791016 40<75.4326 458.117> 327.223 40<89.2715 458.117> 654.365 40<75.4326 458.117>
VStem: 458.117 40<40.0791 327.223 367.223 654.365>
LayerCount: 2
Back
Fore
SplineSet
89.2715 327.223 m 1
 89.2715 367.223 l 1
 458.117 367.223 l 1
 458.117 654.365 l 1
 75.4326 654.365 l 1
 75.4326 694.365 l 1
 498.117 694.365 l 1
 498.117 0.0791016 l 1
 75.4326 0.0791016 l 1
 75.4326 40.0791 l 1
 458.117 40.0791 l 1
 458.117 327.223 l 1
 89.2715 327.223 l 1
EndSplineSet
AlternateSubs2: "'ssty' Script Style lookup 0-1" uni2203.ssty1 uni2203.ssty2
Colour: ffff
EndChar

StartChar: emptyset
Encoding: 8709 8709 1902
Width: 742
UnlinkRmOvrlpSave: 1
Flags: W
HStem: -182 21 -62 40<269.913 472.087> 530 40<269.913 472.087> 702 20
VStem: 55 40<152.913 355.087> 165 432 647 40<152.913 355.087>
LayerCount: 2
Fore
SplineSet
95 254 m 0
 95 102 219 -22 371 -22 c 0
 523 -22 647 102 647 254 c 0
 647 406 523 530 371 530 c 0
 219 530 95 406 95 254 c 0
55 254 m 0
 55 428 197 570 371 570 c 0
 545 570 687 428 687 254 c 0
 687 80 545 -62 371 -62 c 0
 197 -62 55 80 55 254 c 0
EndSplineSet
Refer: 1583 824 S 1 0 0 1 131 0 2
Colour: ff0000
EndChar
StartChar: uni2206
Encoding: 8710 8710 309
Width: 713
Flags: MW
HStem: -4 56 676 20<421 421>
VStem: 30 659<44 45>
LayerCount: 2
Back
Fore
SplineSet
363 671 m 1
 421 696 l 1
 465 564 512 439 564 311 c 0
 601 221 645 129 689 44 c 1
 688 28 l 1
 627 -4 l 1
 429 9 230 17 32 3 c 1
 30 45 l 1
 363 671 l 1
562 50 m 1
 568 59 l 1
 527 153 367 553 367 554 c 1
 356 554 l 1
 261 390 181 233 101 64 c 1
 104 52 l 1
 256 55 410 50 562 50 c 1
EndSplineSet
AlternateSubs2: "'ssty' Script Style lookup 0-1" uni2206.ssty1 uni2206.ssty2
EndChar

StartChar: gradient
Encoding: 8711 8711 1526
Width: 713
Flags: W
HStem: 640 56 -4 20<298 298>
VStem: 30 659<647 648>
LayerCount: 2
Fore
SplineSet
356 21 m 1xa0
 298 -4 l 1
 254 128 207 253 155 381 c 0
 118 471 74 563 30 648 c 1
 31 664 l 1
 92 696 l 1
 290 683 489 675 687 689 c 1
 689 647 l 1
 356 21 l 1xa0
157 642 m 1
 151 633 l 1
 192 539 352 139 352 138 c 1
 363 138 l 1
 458 302 538 459 618 628 c 1
 615 640 l 1
 463 637 309 642 157 642 c 1
EndSplineSet
AlternateSubs2: "'ssty' Script Style lookup 0-1" gradient.ssty1 gradient.ssty2
Colour: ff00
EndChar

StartChar: element
Encoding: 8712 8712 1596
Width: 666
Flags: W
HStem: -41.0713 40<284.321 561.498> 230 40<123.981 561.498> 501.072 40<284.321 561.498>
VStem: 83.1621 40.819<155.338 230 270 344.661>
LayerCount: 2
Fore
SplineSet
561.498 270 m 1
 561.498 230 l 1
 123.981 230 l 1
 134.738 99.3027 250.048 -1.07128 387.72 -1.07129 c 2
 561.498 -1.07129 l 1
 561.498 -41.0713 l 1
 387.72 -41.0713 l 2
 222.808 -41.0713 83.1621 85.8691 83.1621 250 c 0
 83.1621 414.129 222.809 541.072 387.72 541.072 c 2
 561.498 541.072 l 1
 561.498 501.072 l 1
 387.72 501.072 l 2
 250.048 501.072 134.738 400.699 123.981 270 c 1
 561.498 270 l 1
EndSplineSet
AlternateSubs2: "'ssty' Script Style lookup 0-1" element.ssty1 element.ssty2
Colour: ffff
EndChar

StartChar: suchthat
Encoding: 8715 8715 1585
Width: 666
Flags: W
HStem: -41.0713 40<103.162 380.34> 230 40<103.162 540.679> 501.072 40<103.162 380.34>
VStem: 540.679 40.8192<155.338 230 270 344.661>
LayerCount: 2
Fore
SplineSet
103.162 230 m 1
 103.162 270 l 1
 540.679 270 l 1
 529.922 400.699 414.614 501.072 276.941 501.072 c 2
 103.162 501.072 l 1
 103.162 541.072 l 1
 276.941 541.072 l 2
 441.853 541.072 581.498 414.129 581.498 250 c 0
 581.498 85.8691 441.854 -41.0713 276.941 -41.0713 c 2
 103.162 -41.0713 l 1
 103.162 -1.07129 l 1
 276.941 -1.07129 l 2
 414.613 -1.07129 529.922 99.3027 540.679 230 c 1
 103.162 230 l 1
EndSplineSet
AlternateSubs2: "'ssty' Script Style lookup 0-1" suchthat.ssty1 suchthat.ssty2
Colour: ffff
EndChar

StartChar: product
Encoding: 8719 8719 1381
Width: 1056
VWidth: 1950
Flags: W
IsExtendedShape: 1
GlyphVariantsVertical: product uni220F.alt
HStem: -50 40<70 121.5 321.5 373 70 121.5 682 733.5 933.5 985> 910 40<70 121.5 270 785 270 270 933.5 985>
VStem: 173 97<69 831 831 846> 785 97<69 831>
LayerCount: 2
Fore
SplineSet
882 831 m 2
 882 69 l 2
 882 39 882 -10 985 -10 c 1
 985 -50 l 1
 682 -50 l 1
 682 -10 l 1
 785 -10 785 39 785 69 c 2
 785 910 l 1
 270 910 l 1
 270 69 l 2
 270 39 270 -10 373 -10 c 1
 373 -50 l 1
 70 -50 l 1
 70 -10 l 1
 173 -10 173 39 173 69 c 2
 173 831 l 2
 173 861 173 910 70 910 c 1
 70 950 l 1
 985 950 l 1
 985 910 l 1
 882 910 882 861 882 831 c 2
EndSplineSet
AlternateSubs2: "'ssty' Script Style lookup 0-1" uni220F.ssty1
EndChar

StartChar: uni2210
Encoding: 8720 8720 1382
Width: 1056
VWidth: 1950
Flags: W
IsExtendedShape: 1
GlyphVariantsVertical: uni2210 uni2210.alt
HStem: -50 40<70 121.5 270 785 933.5 985 70 121.5> 910 40<70 121.5 321.5 373 682 733.5 933.5 985>
VStem: 173 97<69 831 -10 846> 785 97<54 69 69 831>
LayerCount: 2
Fore
SplineSet
882 831 m 2
 882 69 l 2
 882 39 882 -10 985 -10 c 1
 985 -50 l 1
 70 -50 l 1
 70 -10 l 1
 173 -10 173 39 173 69 c 2
 173 831 l 2
 173 861 173 910 70 910 c 1
 70 950 l 1
 373 950 l 1
 373 910 l 1
 270 910 270 861 270 831 c 2
 270 -10 l 1
 785 -10 l 1
 785 831 l 2
 785 861 785 910 682 910 c 1
 682 950 l 1
 985 950 l 1
 985 910 l 1
 882 910 882 861 882 831 c 2
EndSplineSet
AlternateSubs2: "'ssty' Script Style lookup 0-1" uni2210.ssty1
EndChar
StartChar: summation
Encoding: 8721 8721 1383
Width: 1056
VWidth: 1950
Flags: W
IsExtendedShape: 1
GlyphVariantsVertical: summation uni2211.alt
HStem: -50 97<79 971 180 957> 880 70<229 888 229 229>
VStem: 56 915<-42 47>
LayerCount: 2
Back
Fore
SplineSet
484 453 m 2
 180 47 l 1
 971 47 l 1
 957 -50 l 1
 88 -50 l 2
 70 -50 56 -50 56 -34 c 0
 56 -30 58 -26 65 -17 c 2
 411 446 l 1
 122 891 l 1
 122 937 l 1
 125 950 135 950 154 950 c 2
 902 950 l 1
 888 880 l 1
 229 880 l 1
 486 486 l 2
 489 482 493 476 493 470 c 0
 493 466 491 462 484 453 c 2
EndSplineSet
AlternateSubs2: "'ssty' Script Style lookup 0-1" uni2211.ssty1
EndChar

StartChar: uni2212
Encoding: 8722 8722 57
Width: 756
Flags: MW
HStem: 236 40<53 704 46 710>
LayerCount: 2
Fore
SplineSet
704 236 m 1
 46 236 l 1
 53 276 l 1
 710 276 l 1
 704 236 l 1
EndSplineSet
AlternateSubs2: "'ssty' Script Style lookup 0-1" uni2212.ssty1 uni2212.ssty2
EndChar

StartChar: uni2213
Encoding: 8723 8723 1482
Width: 755
Flags: W
HStem: 236 40<53 356 396 704> 546 40<53 356 396 704>
VStem: 356 40<-67 236 276 546>
LayerCount: 2
Fore
SplineSet
396 276 m 1
 709 276 l 1
 704 236 l 1
 396 236 l 1
 396 -67 l 1
 356 -74 l 1
 356 236 l 1
 46 236 l 1
 53 276 l 1
 356 276 l 1
 356 546 l 1
 46 546 l 1
 53 586 l 1
 710 586 l 1
 704 546 l 1
 396 546 l 1
 396 276 l 1
EndSplineSet
AlternateSubs2: "'ssty' Script Style lookup 0-1" uni2213.ssty1 uni2213.ssty2
Colour: ff00
EndChar

StartChar: asteriskmath
Encoding: 8727 8727 1665
Width: 482
VWidth: 1130
Flags: W
VStem: 226 40<43.5396 234>
LayerCount: 2
Fore
SplineSet
288 26 m 1
 208 26 l 1
 220 102 224 162 226 248 c 1
 172 206 120 160 72 104 c 1
 30 174 l 1
 98 208 152 244 204 280 c 1
 146 322 92 354 34 384 c 1
 88 440 l 1
 132 398 174 360 224 322 c 1
 224 386 224 448 208 514 c 1
 288 514 l 1
 274 448 270 390 266 324 c 1
 316 364 362 406 402 448 c 1
 452 386 l 1
 388 356 332 322 276 282 c 1
 338 236 396 196 452 170 c 1
 400 112 l 1
 366 150 318 194 266 234 c 1
 268 164 272 98 288 26 c 1
EndSplineSet
Colour: ff00
EndChar
StartChar: uni2218
Encoding: 8728 8728 1702
Width: 500
Flags: W
HStem: 56 40<206.5 291.5 206.5 302.5> 404 40<207 291.5>
VStem: 56 40 403 40
LayerCount: 2
Back
Fore
SplineSet
444 250 m 0
 444 143 355 56 250 56 c 0
 142 56 55 144 55 250 c 0
 55 355 142 444 250 444 c 0
 355 444 444 357 444 250 c 0
250 96 m 0
 333 96 404 164 404 250 c 0
 404 336 333 404 250 404 c 0
 164 404 95 334 95 250 c 0
 95 166 163 96 250 96 c 0
EndSplineSet
AlternateSubs2: "'ssty' Script Style lookup 0-1" uni2218.ssty1 uni2218.ssty2
Colour: ffff
EndChar

StartChar: uni2219
Encoding: 8729 8729 1727
Width: 500
Flags: W
HStem: 56 21<196 302.5> 424 20<196 302.5>
VStem: 56 387
LayerCount: 2
Fore
SplineSet
444 250 m 0
 444 143 355 56 250 56 c 0
 142 56 55 144 55 250 c 0
 55 355 142 444 250 444 c 0
 355 444 444 357 444 250 c 0
EndSplineSet
AlternateSubs2: "'ssty' Script Style lookup 0-1" uni2219.ssty1 uni2219.ssty2
Colour: ffff
EndChar
StartChar: radical
Encoding: 8730 8730 1428
Width: 833
VWidth: 1950
Flags: W
GlyphVariantsVertical: radical radical.alt01 radical.alt02 radical.alt03 radical.alt04
GlyphCompositionVertical: 3  radical.bt%0,607,607,1820 radical.vertex%1,190,190,570 radical.tp%0,195,195,585
HStem: -0.606445 21G<348.722 391.066>
DStem2: 70.0225 414.546 86.3018 398.985 0.798138 0.602474<3.6183 87.2991> 205.251 516.623 153.104 449.384 0.414098 -0.910232<39.6092 445.639> 389.815 111 381.441 -0.606445 0.43363 0.901091<0 973.593>
LayerCount: 2
Back
Fore
SplineSet
381.441 -0.606445 m 1
 357.82 -0.606445 l 1
 153.104 449.384 l 1
 86.3018 398.985 l 1
 70.0225 414.546 l 1
 205.251 516.623 l 1
 389.815 111 l 1
 812.654 988.048 l 1
 848.805 970.582 l 1
 381.441 -0.606445 l 1
EndSplineSet
AlternateSubs2: "'ssty' Script Style lookup 0-1" radical.ssty1 radical.ssty2
Colour: ffff
EndChar

StartChar: uni221B
Encoding: 8731 8731 1824
Width: 833
VWidth: 1950
Flags: W
HStem: -0.606445 21<348.722 391.066> 597.5 20<347.377 424.916> 625 41.5<301.5 323.125> 778.5 13<338.5 365.521> 925.5 31.5<357.698 430.316>
VStem: 446.5 46.5<833.61 913.292> 466.5 53<654.492 749.335>
DStem2: 70.0225 414.546 86.3018 398.985 0.798138 0.602474<3.6183 87.2991> 205.251 516.623 153.104 449.384 0.414098 -0.910232<39.6092 445.639> 389.815 111 381.441 -0.606445 0.43363 0.901091<0 973.593>
LayerCount: 2
Fore
SplineSet
403.5 797 m 1xfa
 403.5 793 l 1
 460 783.5 l 1
 473 779.5 486.5 774 497 765 c 0
 512 751.5 519.5 733 519.5 713.5 c 0
 519.5 684 504 656.5 480.5 635.5 c 1
 451 610 411 597.5 370 597.5 c 0
 337.5 597.5 307 607.5 281.5 625 c 1
 277.5 630.5 l 1
 301.5 666.5 l 1
 307 666.5 l 1
 314 656.5 321 647.5 330 639.5 c 0
 344.5 626.5 363.5 617.5 384 617.5 c 0
 405 617.5 425 624 440.5 637.5 c 0
 458.5 653.5 466.5 676.5 466.5 699 c 0xfa
 466.5 720.5 455 740.5 438.5 756 c 0
 428.5 765.5 414.5 770 400.5 773 c 0
 380 777.5 359 778.5 338 778.5 c 1
 338.5 791.5 l 1
 355.5 795 373 799 389 805.5 c 0
 401.5 810.5 413.5 816.5 422.5 824.5 c 0
 438 838.5 446.5 857 446.5 876 c 0
 446.5 889.5 441 902 430 911.5 c 0
 418.5 922 402 925.5 385 925.5 c 0
 375.5 925.5 366 922.5 356 919 c 0
 342 913.5 329 906.5 316 899 c 1
 308 910 l 1
 325.5 923 345 935.5 365 945 c 0
 379.5 951.5 394.5 957 410.5 957 c 0
 432.5 957 455.5 953 471.5 938.5 c 0
 486 926 493 908 493 890 c 0xfc
 493 867.5 484.5 845 466.5 829 c 0
 449 814 427 803 403.5 797 c 1xfa
EndSplineSet
Refer: 1428 8730 N 1 0 0 1 0 0 2
Colour: ffff
EndChar

StartChar: uni221C
Encoding: 8732 8732 1825
Width: 833
VWidth: 1950
Flags: W
HStem: -0.606445 21<348.722 391.066> 701.25 22<308.947 429.447 481.447 527.947>
VStem: 433.947 43.5<619.75 696.75 727.75 901.297>
DStem2: 70.0225 414.546 86.3018 398.985 0.798138 0.602474<3.6183 87.2991> 205.251 516.623 153.104 449.384 0.414098 -0.910232<39.6092 445.639> 389.815 111 381.441 -0.606445 0.43363 0.901091<0 973.593>
LayerCount: 2
Fore
SplineSet
473.947 957.75 m 1
 477.947 954.75 l 1
 477.447 941.25 477.447 805.25 477.447 727.75 c 1
 481.447 723.25 l 1
 534.447 723.25 l 1
 536.947 719.75 l 1
 527.947 701.25 l 1
 481.447 701.25 l 1
 477.447 697.25 l 1
 477.447 670.25 477.447 630.75 478.947 619.75 c 1
 433.947 603.25 l 1
 430.947 606.25 l 1
 433.947 623.75 433.947 665.25 433.947 696.75 c 1
 429.447 701.25 l 1
 269.447 701.25 l 1
 269.447 723.25 l 1
 430.947 940.25 l 1
 473.947 957.75 l 1
433.947 727.25 m 1
 433.947 898.25 l 2
 433.947 899.25 433.447 900.75 433.447 901.25 c 0
 431.947 902.75 429.447 902.25 427.947 901.25 c 0
 408.947 881.75 391.947 858.75 375.447 836.25 c 0
 353.947 806.75 306.447 737.75 306.447 726.75 c 1
 308.947 723.25 l 1
 430.447 723.25 l 1
 433.947 727.25 l 1
217.473 487.452 m 0
EndSplineSet
Refer: 1428 8730 N 1 0 0 1 0 0 2
Colour: ffff
EndChar
StartChar: proportional
Encoding: 8733 8733 1703
Width: 815
Flags: W
HStem: -11 58.0634<692.92 760> -11 43<173.072 323.507> 384 58<170.959 308.895> 399 43<677.715 760>
VStem: 56 42<119.208 304.971>
DStem2: 459 336 412 262 0.614268 -0.789098<-103.355 76.8307 164.326 344.512>
LayerCount: 2
Back
Fore
SplineSet
462 197 m 1x68
 412 262 l 2
 376 308 317 384 237 384 c 0
 160 384 98 312 98 215 c 0
 98 127 146 32 241 32 c 0
 329 32 404 96 462 197 c 1x68
760 -10.3287 m 1
 754.743 -10.7731 749.408 -11 744 -11 c 0x98
 662 -11 593 38 542 95 c 0
 522 117 515 129 494 155 c 1
 458 95 377 -11 254 -11 c 0
 138 -11 56 97 56 215 c 0
 56 334 139 442 257 442 c 0x68
 339 442 408 393 459 336 c 0
 479 314 486 302 507 276 c 1
 543 336 624 442 747 442 c 0
 751.383 442 755.717 441.846 760 441.543 c 1
 760 399 l 1
 672 399 597 335 539 234 c 1
 589 169 l 2
 624.397 123.77 682.031 49.5361 760 47.0634 c 1x98
 760 -10.3287 l 1
EndSplineSet
Colour: ff00
EndChar

StartChar: uni221E
Encoding: 8734 8734 26
Width: 1000
Flags: W
HStem: -11 43<196 285 193.5 315.5> -11 58<724 802.5 724 803> 384 58<198.5 277> 399 43<716 805>
VStem: 56 42<171 263.5 171 274.5> 56 43 902 41 903 43
LayerCount: 2
Fore
SplineSet
462 197 m 1xa5
 412 262 l 2
 376 308 317 384 237 384 c 0
 160 384 98 312 98 215 c 0
 98 127 146 32 241 32 c 0
 329 32 404 96 462 197 c 1xa5
507 276 m 1
 543 336 624 442 747 442 c 0
 863 442 945 334 945 216 c 0
 945 97 862 -11 744 -11 c 0
 662 -11 593 38 542 95 c 0x5a
 522 117 515 129 494 155 c 1
 458 95 377 -11 254 -11 c 0
 138 -11 56 97 56 215 c 0
 56 334 139 442 257 442 c 0
 339 442 408 393 459 336 c 0
 479 314 486 302 507 276 c 1
539 234 m 1
 589 169 l 2
 625 123 684 47 764 47 c 0
 841 47 903 119 903 216 c 0
 903 304 855 399 760 399 c 0
 672 399 597 335 539 234 c 1
EndSplineSet
AlternateSubs2: "'ssty' Script Style lookup 0-1" uni221E.ssty1
EndChar

StartChar: uni2223
Encoding: 8739 8739 1662
Width: 213
Flags: W
GlyphVariantsVertical: uni2223 uni007C.alt01 uni007C.alt02 uni007C.alt03 uni007C.alt04
HStem: 678 20G<86.5 126.5>
VStem: 86.5 40<-89 690>
LayerCount: 2
Fore
SplineSet
126.5 -89 m 5
 86.5 -97 l 5
 86.5 690 l 1
 126.5 698 l 1
 126.5 -89 l 5
EndSplineSet
AlternateSubs2: "'ssty' Script Style lookup 0-1" uni2223.ssty1 uni2223.ssty2
Colour: ff00
EndChar
StartChar: uni2227
Encoding: 8743 8743 440
Width: 775
Flags: MW
GlyphVariantsVertical: uni2227 uni22C0.alt01 uni22C0.alt02
HStem: -9 21 694 20<395 395>
VStem: 11 757<2 10>
LayerCount: 2
Back
Fore
SplineSet
404 713 m 1
 768 2 l 1
 726 -4 l 1
 398 637 l 1
 51 1 l 1
 22 -1 l 1
 11 10 l 1
 395 714 l 1
 404 713 l 1
EndSplineSet
AlternateSubs2: "'ssty' Script Style lookup 0-1" uni2227.ssty1 uni2227.ssty2
EndChar
StartChar: uni2228
Encoding: 8744 8744 441
Width: 775
Flags: MW
GlyphVariantsVertical: uni2228 uni22C1.alt01 uni22C1.alt02
HStem: -12 21<367 382 367 367> 668 20<713 752 752 752>
VStem: 6 750<677 684>
LayerCount: 2
Back
Fore
SplineSet
756 684 m 1
 382 -12 l 1
 367 -12 l 1
 6 677 l 1
 48 684 l 1
 375 59 l 1
 713 688 l 1
 752 688 l 1
 756 684 l 1
EndSplineSet
AlternateSubs2: "'ssty' Script Style lookup 0-1" uni2228.ssty1 uni2228.ssty2
EndChar

StartChar: intersection
Encoding: 8745 8745 1602
Width: 666
Flags: W
GlyphVariantsVertical: intersection intersection.alt01 intersection.alt02
HStem: -2.14355 21G<55.4688 95.4688 569.192 609.192> 557.78 40<221.528 443.135>
VStem: 55.4688 40<-2.14355 456.372> 569.192 40<-2.14355 456.377>
LayerCount: 2
Fore
SplineSet
55.4688 384.476 m 2
 55.4688 512.458 184.044 597.78 332.33 597.78 c 0
 480.616 597.78 609.192 512.458 609.192 384.476 c 2
 609.192 -2.14355 l 1
 569.192 -2.14355 l 1
 569.192 384.476 l 2
 569.192 490.722 455.818 557.78 332.33 557.78 c 0
 208.852 557.78 95.4688 490.711 95.4688 384.476 c 2
 95.4688 -2.14355 l 1
 55.4688 -2.14355 l 1
 55.4688 384.476 l 2
EndSplineSet
AlternateSubs2: "'ssty' Script Style lookup 0-1" intersection.ssty1 intersection.ssty2
Colour: ffff
EndChar
StartChar: union
Encoding: 8746 8746 1601
Width: 666
GlyphVariantsVertical: union union.alt01 union.alt02
HStem: -22.1436 40<221.528 443.135>
VStem: 55.4688 40<119.264 577.78> 569.192 40<119.26 577.78>
LayerCount: 2
Back
Fore
SplineSet
95.4688 191.161 m 2
 95.4688 84.9258 208.852 17.8564 332.33 17.8564 c 0
 455.818 17.8564 569.192 84.915 569.192 191.161 c 2
 569.192 577.78 l 1
 609.192 577.78 l 1
 609.192 191.161 l 2
 609.192 63.1787 480.616 -22.1436 332.33 -22.1436 c 0
 184.044 -22.1436 55.4688 63.1787 55.4688 191.161 c 2
 55.4688 577.78 l 1
 95.4688 577.78 l 1
 95.4688 191.161 l 2
EndSplineSet
AlternateSubs2: "'ssty' Script Style lookup 0-1" union.ssty1 union.ssty2
Colour: ffff
EndChar
StartChar: integral
Encoding: 8747 8747 1384
Width: 556
VWidth: 1950
Flags: W
ItalicCorrection: 56
IsExtendedShape: 1
GlyphVariantsVertical: integral uni222B.alt
HStem: -161 31<165 206 165 235> 919 31<352.5 391.5>
VStem: 50 105 245 76 401 105
LayerCount: 2
Back
Fore
SplineSet
319 401 m 2
 318 200 l 2
 318 157 317 113 315 69 c 0
 313 18 304 -161 166 -161 c 0
 108 -161 49 -136 49 -74 c 0
 49 -21 94 -20 98 -20 c 0
 122 -20 154 -38 154 -74 c 0
 154 -92 148 -108 132 -118 c 1
 134 -120 140 -124 144 -125 c 0
 150 -128 152 -128 159 -129 c 0
 161 -130 162 -130 168 -130 c 0
 244 -130 246 -27 246 84 c 0
 246 122 243 289 243 412 c 0
 243 493 244 574 245 655 c 0
 246 761 248 950 391 950 c 0
 445 950 507 927 507 863 c 0
 507 811 463 809 458 809 c 0
 433 809 402 827 402 863 c 0
 402 881 408 897 424 907 c 1
 423 908 418 912 412 914 c 0
 406 917 404 917 397 918 c 0
 396 919 394 919 389 919 c 0
 316 919 316 818 316 696 c 0
 316 648 319 431 319 401 c 2
EndSplineSet
AlternateSubs2: "'ssty' Script Style lookup 0-1" uni222B.ssty1
EndChar

StartChar: uni222E
Encoding: 8750 8750 1385
Width: 556
VWidth: 1950
Flags: W
ItalicCorrection: 56
IsExtendedShape: 1
GlyphVariantsVertical: uni222E uni222E.alt
HStem: -161 31<165 206 165 211.5> 213 40 537 40 919 31<352.5 391.5>
VStem: 49 104 95 40 243 74 244 74<253 279.5> 402 104 427 40<362 428>
LayerCount: 2
Fore
SplineSet
244 253 m 1xf580
 244 306 243 359 243 412 c 0
 243 488 243 525 244 536 c 1
 178 520 134 461 134 394 c 0
 134 331 176 270 244 253 c 1xf580
317 577 m 1
 412 557 467 476 467 394 c 0
 467 316 414 233 318 212 c 1
 314 161 322 51 304 -25 c 0
 290 -81 257 -161 166 -161 c 0
 108 -161 49 -136 49 -74 c 0
 49 -21 94 -20 98 -20 c 0
 122 -20 154 -38 154 -74 c 0
 154 -92 148 -108 132 -118 c 1
 134 -120 140 -124 144 -125 c 0
 150 -128 152 -128 159 -129 c 0
 161 -130 162 -130 168 -130 c 0
 244 -130 246 -27 246 84 c 0
 246 105 245 126 245 146 c 2xfa40
 245 212 l 1
 150 230 94 312 94 395 c 0
 94 472 145 557 244 577 c 1
 244 757 251 789 256 813 c 0
 271 876 304 950 391 950 c 0
 445 950 507 927 507 863 c 0
 507 811 463 809 458 809 c 0
 433 809 402 827 402 863 c 0
 402 881 408 897 424 907 c 1
 423 908 418 912 412 914 c 0
 406 917 404 917 397 918 c 0
 396 919 394 919 389 919 c 0
 316 919 316 818 316 696 c 0
 316 656 317 617 317 577 c 1
318 253 m 1
 384 270 427 330 427 394 c 0
 427 462 381 520 318 536 c 1
 318 431 l 2
 318 421 319 410 319 401 c 0
 319 392 318 381 318 371 c 2
 318 253 l 1
EndSplineSet
AlternateSubs2: "'ssty' Script Style lookup 0-1" uni222E.ssty1
EndChar
StartChar: therefore
Encoding: 8756 8756 1818
Width: 569
Flags: W
HStem: -12 117 343 115
VStem: 226.5 119
LayerCount: 2
Back
Fore
SplineSet
228 398 m 0
 228 429 254 455 286 455 c 0
 317 455 342 429 342 398 c 0
 342 367 317 341 286 341 c 0
 254 341 228 367 228 398 c 0
EndSplineSet
Refer: 70 58 N 0 1 -1 0 505 -62.5 2
Colour: ff00
EndChar

StartChar: uni2235
Encoding: 8757 8757 1817
Width: 569
Flags: W
HStem: 337.5 117 -15.5 115
VStem: 226.5 119
LayerCount: 2
Fore
SplineSet
228 44.5 m 0x20
 228 13.5 254 -12.5 286 -12.5 c 0
 317 -12.5 342 13.5 342 44.5 c 0
 342 75.5 317 101.5 286 101.5 c 0
 254 101.5 228 75.5 228 44.5 c 0x20
EndSplineSet
Refer: 70 58 N 0 -1 -1 -0 505 505 2
Colour: ff00
EndChar
StartChar: uni2238
Encoding: 8760 8760 1822
Width: 756
Flags: W
HStem: -12 117 343 115
VStem: 50 119
LayerCount: 2
Back
Fore
SplineSet
321 398 m 0
 321 429 347 455 379 455 c 0
 410 455 435 429 435 398 c 0
 435 367 410 341 379 341 c 0
 347 341 321 367 321 398 c 0
EndSplineSet
Refer: 57 8722 N 1 0 0 1 0 -30 2
Colour: ff00
EndChar
StartChar: uni223D
Encoding: 8765 8765 1524
Width: 551
Flags: W
HStem: 178 41<122 136.5> 305 42<403.5 412>
VStem: 22 508<240 275>
LayerCount: 2
Back
Fore
SplineSet
271 291 m 2
 197 245 l 2
 175 231 150 219 123 219 c 0
 104 219 91 226 79 236 c 1
 65 246 53 268 43 286 c 1
 22 275 l 1
 33 249 50 223 69 205 c 0
 84 191 110 178 134 178 c 0
 172 178 207 194 239 214 c 2
 338 277 l 2
 362 292 389 305 418 305 c 0
 437 305 453 300 468 287 c 0
 480 276 496 250 508 228 c 1
 530 240 l 1
 518 264 503 289 488 306 c 0
 475 321 460 334 441 340 c 0
 430 344 418 347 406 347 c 0
 387 347 368 341 350 333 c 0
 322 322 296 307 271 291 c 2
EndSplineSet
Colour: ff00
EndChar

StartChar: uni2240
Encoding: 8768 8768 1729
Width: 243
VWidth: 900
Flags: W
DStem2: 127.65 236.555 114.37 92.5811 0.421901 0.906642<-217.636 86.1874>
LayerCount: 2
Fore
SplineSet
150.295 171.962 m 2
 114.37 92.5811 l 2
 103.368 68.9385 94.7412 42.584 98.2734 15.8154 c 0
 100.759 -3.02148 109.399 -14.9941 120.883 -25.583 c 1
 132.629 -38.1543 156.009 -47.1729 175.162 -54.7324 c 1
 167.004 -76.9912 l 1
 139.789 -69.4873 111.788 -56.0342 91.457 -39.5518 c 0
 75.6152 -26.5117 59.3262 -2.43555 56.1865 21.3574 c 0
 51.2158 59.0312 62.5 95.8232 78.1426 130.165 c 2
 127.65 236.555 l 2
 139.383 262.312 148.739 290.779 144.945 319.53 c 0
 142.46 338.367 135.41 353.575 120.56 366.746 c 0
 108.084 377.204 80.2148 389.666 56.834 398.685 c 1
 65.8535 422.065 l 1
 91.2168 413.308 117.964 401.707 136.78 389.06 c 0
 153.352 378.134 168.202 364.963 176.636 346.911 c 0
 182.04 336.529 186.584 325.024 188.154 313.128 c 0
 190.64 294.291 187.177 274.669 181.6 255.777 c 0
 174.357 226.579 162.887 198.84 150.295 171.962 c 2
EndSplineSet
Colour: ff00
EndChar
StartChar: uni2241
Encoding: 8769 8769 1826
Width: 551
UnlinkRmOvrlpSave: 1
Flags: W
LayerCount: 2
Back
Fore
SplineSet
372 449 m 1
 377 438 l 1
 202 32 l 1
 170 40 l 1
 167 54 l 1
 339 452 l 1
 350 454 l 1
 372 449 l 1
EndSplineSet
Refer: 411 8764 N 1 0 0 1 0 0 2
Colour: ff00
EndChar

StartChar: uni2242
Encoding: 8770 8770 1823
Width: 597
Flags: W
LayerCount: 2
Fore
SplineSet
557 357 m 1
 54 357 l 1
 61 397 l 1
 563 397 l 1
 557 357 l 1
EndSplineSet
Refer: 411 8764 N 1 0 0 1 33 -75 2
Colour: ff00
EndChar
StartChar: uni2243
Encoding: 8771 8771 1812
Width: 597
Flags: W
LayerCount: 2
Back
Fore
SplineSet
557 101 m 1
 54 101 l 1
 61 141 l 1
 563 141 l 1
 557 101 l 1
EndSplineSet
Refer: 411 8764 N 1 0 0 1 33 49 2
Colour: ff00
EndChar

StartChar: uni2244
Encoding: 8772 8772 1811
Width: 597
UnlinkRmOvrlpSave: 1
Flags: W
LayerCount: 2
Fore
SplineSet
557 101 m 1
 54 101 l 1
 61 141 l 1
 563 141 l 1
 557 101 l 1
EndSplineSet
Refer: 1583 824 N 1 0 0 1 58 0 2
Refer: 411 8764 N 1 0 0 1 33 49 2
Colour: ff00
EndChar
StartChar: congruent
Encoding: 8773 8773 1808
Width: 597
Flags: W
LayerCount: 2
Back
Fore
SplineSet
557 299 m 1
 54 299 l 1
 61 339 l 1
 563 339 l 1
 557 299 l 1
557 102 m 1
 54 102 l 1
 61 142 l 1
 563 142 l 1
 557 102 l 1
EndSplineSet
Refer: 411 8764 N 1 0 0 1 33 250 2
Colour: ff00
EndChar
StartChar: uni2246
Encoding: 8774 8774 1809
Width: 597
UnlinkRmOvrlpSave: 1
Flags: W
LayerCount: 2
Back
Fore
SplineSet
402 409 m 1
 407 398 l 1
 232 -8 l 1
 200 0 l 1
 197 14 l 1
 369 412 l 1
 380 414 l 1
 402 409 l 1
EndSplineSet
Refer: 1808 8773 N 1 0 0 1 0 0 2
Colour: ff00
EndChar
StartChar: uni224A
Encoding: 8778 8778 1813
Width: 597
Flags: W
LayerCount: 2
Back
Fore
SplineSet
557 101 m 1
 54 101 l 1
 61 141 l 1
 563 141 l 1
 557 101 l 1
EndSplineSet
Refer: 411 8764 N 1 0 0 1 32 199 2
Refer: 411 8764 N 1 0 0 1 33 49 2
Colour: ff00
EndChar
StartChar: uni224C
Encoding: 8780 8780 1815
Width: 597
Flags: W
LayerCount: 2
Back
Fore
SplineSet
557 299 m 1
 54 299 l 1
 61 339 l 1
 563 339 l 1
 557 299 l 1
557 102 m 1
 54 102 l 1
 61 142 l 1
 563 142 l 1
 557 102 l 1
EndSplineSet
Refer: 1524 8765 N 1 0 0 1 32 250 2
Colour: ff00
EndChar

StartChar: equivalence
Encoding: 8801 8801 1452
Width: 830
Flags: W
HStem: 33 39<90 740 81 749> 230 38<90 740 81 749> 426 39<90 740 81 749>
LayerCount: 2
Fore
SplineSet
90 465 m 1
 749 465 l 1
 740 426 l 1
 81 426 l 1
 90 465 l 1
90 268 m 1
 749 268 l 1
 740 230 l 1
 81 230 l 1
 90 268 l 1
90 72 m 1
 749 72 l 1
 740 33 l 1
 81 33 l 1
 90 72 l 1
EndSplineSet
AlternateSubs2: "'ssty' Script Style lookup 0-1" equivalence.ssty1 equivalence.ssty2
Colour: ff0000
EndChar

StartChar: uni2263
Encoding: 8803 8803 1726
Width: 830
Flags: W
HStem: 33 39<90 740> 230 38<90 740> 426 39<90 740> 622 39<90 740>
LayerCount: 2
Fore
SplineSet
90 661 m 1
 749 661 l 1
 740 622 l 1
 81 622 l 1
 90 661 l 1
90 465 m 1
 749 465 l 1
 740 426 l 1
 81 426 l 1
 90 465 l 1
90 268 m 1
 749 268 l 1
 740 230 l 1
 81 230 l 1
 90 268 l 1
90 72 m 1
 749 72 l 1
 740 33 l 1
 81 33 l 1
 90 72 l 1
EndSplineSet
Colour: ff0000
EndChar

StartChar: lessequal
Encoding: 8804 8804 1453
Width: 807
Flags: W
HStem: 78 21 631 20
VStem: 66 636
DStem2: 130.5 147 107.665 110 0.910507 -0.413494<0 622.548>
LayerCount: 2
Fore
SplineSet
679.5 -149.691 m 1
 107.665 110 l 1
 106.001 122.667 l 1
 116.724 144.818 l 1
 130.5 147 l 1
 697.5 -114.037 l 1
 699.944 -125.5 l 1
 690.5 -145.5 l 1
 679.5 -149.691 l 1
EndSplineSet
Refer: 249 60 N 1 0 0 1 20 117 2
Colour: ff00
EndChar
StartChar: greaterequal
Encoding: 8805 8805 1454
Width: 807
Flags: W
HStem: 77 21 630 20
VStem: 103 637
DStem2: 107.665 -112 130.5 -149 0.910507 0.413493<5.4922 628.04>
LayerCount: 2
Back
Fore
SplineSet
679.5 147.69 m 1
 690.5 143.5 l 1
 699.944 123.5 l 1
 697.5 112.037 l 1
 130.5 -149 l 1
 116.724 -146.818 l 1
 106.001 -124.667 l 1
 107.665 -112 l 1
 679.5 147.69 l 1
EndSplineSet
Refer: 250 62 N 1 0 0 1 26 116 2
Colour: ff00
EndChar

StartChar: uni2266
Encoding: 8806 8806 1839
Width: 756
Flags: W
LayerCount: 2
Fore
SplineSet
696.381 772.471 m 1
 693.768 763.63 l 1
 156.467 559 l 1
 156.467 547 l 1
 690.502 341.455 l 1
 696.164 331.814 l 1
 686.736 308.127 l 1
 677.094 302.465 l 1
 59.6191 541.474 l 1
 59.7637 566.65 l 1
 678.211 799.781 l 1
 688.979 796.034 l 1
 696.381 772.471 l 1
EndSplineSet
Refer: 72 61 N 1 0 0 1 0 -132 2
Colour: ff0000
EndChar
